%TF.GenerationSoftware,KiCad,Pcbnew,9.0.3*%
%TF.CreationDate,2026-04-23T16:24:05-03:00*%
%TF.ProjectId,projeto,70726f6a-6574-46f2-9e6b-696361645f70,rev?*%
%TF.SameCoordinates,Original*%
%TF.FileFunction,Legend,Top*%
%TF.FilePolarity,Positive*%
%FSLAX46Y46*%
G04 Gerber Fmt 4.6, Leading zero omitted, Abs format (unit mm)*
G04 Created by KiCad (PCBNEW 9.0.3) date 2026-04-23 16:24:05*
%MOMM*%
%LPD*%
G01*
G04 APERTURE LIST*
%ADD10C,0.100000*%
%ADD11C,0.150000*%
%ADD12C,0.508000*%
%ADD13C,0.120000*%
%ADD14C,0.152400*%
%ADD15C,0.127000*%
%ADD16C,0.200000*%
G04 APERTURE END LIST*
D10*
X180250000Y-80750000D02*
X110250000Y-80750000D01*
X180250000Y-100750000D02*
X180250000Y-80750000D01*
X124250000Y-120500000D02*
X124250000Y-100750000D01*
X166250000Y-120750000D02*
X166250000Y-100750000D01*
X110250000Y-80750000D02*
X110250000Y-100750000D01*
X180250000Y-80750000D02*
X196250000Y-80750000D01*
X94250000Y-80750000D02*
X110250000Y-80750000D01*
X94250000Y-120750000D02*
X124250000Y-120750000D01*
X166250000Y-120750000D02*
X196250000Y-120750000D01*
X110250000Y-100750000D02*
X180250000Y-100750000D01*
D11*
X103086779Y-110369819D02*
X103086779Y-109369819D01*
X103086779Y-109369819D02*
X103420112Y-110084104D01*
X103420112Y-110084104D02*
X103753445Y-109369819D01*
X103753445Y-109369819D02*
X103753445Y-110369819D01*
X104420112Y-109369819D02*
X104610588Y-109369819D01*
X104610588Y-109369819D02*
X104705826Y-109417438D01*
X104705826Y-109417438D02*
X104801064Y-109512676D01*
X104801064Y-109512676D02*
X104848683Y-109703152D01*
X104848683Y-109703152D02*
X104848683Y-110036485D01*
X104848683Y-110036485D02*
X104801064Y-110226961D01*
X104801064Y-110226961D02*
X104705826Y-110322200D01*
X104705826Y-110322200D02*
X104610588Y-110369819D01*
X104610588Y-110369819D02*
X104420112Y-110369819D01*
X104420112Y-110369819D02*
X104324874Y-110322200D01*
X104324874Y-110322200D02*
X104229636Y-110226961D01*
X104229636Y-110226961D02*
X104182017Y-110036485D01*
X104182017Y-110036485D02*
X104182017Y-109703152D01*
X104182017Y-109703152D02*
X104229636Y-109512676D01*
X104229636Y-109512676D02*
X104324874Y-109417438D01*
X104324874Y-109417438D02*
X104420112Y-109369819D01*
X105134398Y-109369819D02*
X105705826Y-109369819D01*
X105420112Y-110369819D02*
X105420112Y-109369819D01*
X106229636Y-109369819D02*
X106420112Y-109369819D01*
X106420112Y-109369819D02*
X106515350Y-109417438D01*
X106515350Y-109417438D02*
X106610588Y-109512676D01*
X106610588Y-109512676D02*
X106658207Y-109703152D01*
X106658207Y-109703152D02*
X106658207Y-110036485D01*
X106658207Y-110036485D02*
X106610588Y-110226961D01*
X106610588Y-110226961D02*
X106515350Y-110322200D01*
X106515350Y-110322200D02*
X106420112Y-110369819D01*
X106420112Y-110369819D02*
X106229636Y-110369819D01*
X106229636Y-110369819D02*
X106134398Y-110322200D01*
X106134398Y-110322200D02*
X106039160Y-110226961D01*
X106039160Y-110226961D02*
X105991541Y-110036485D01*
X105991541Y-110036485D02*
X105991541Y-109703152D01*
X105991541Y-109703152D02*
X106039160Y-109512676D01*
X106039160Y-109512676D02*
X106134398Y-109417438D01*
X106134398Y-109417438D02*
X106229636Y-109369819D01*
X107658207Y-110369819D02*
X107324874Y-109893628D01*
X107086779Y-110369819D02*
X107086779Y-109369819D01*
X107086779Y-109369819D02*
X107467731Y-109369819D01*
X107467731Y-109369819D02*
X107562969Y-109417438D01*
X107562969Y-109417438D02*
X107610588Y-109465057D01*
X107610588Y-109465057D02*
X107658207Y-109560295D01*
X107658207Y-109560295D02*
X107658207Y-109703152D01*
X107658207Y-109703152D02*
X107610588Y-109798390D01*
X107610588Y-109798390D02*
X107562969Y-109846009D01*
X107562969Y-109846009D02*
X107467731Y-109893628D01*
X107467731Y-109893628D02*
X107086779Y-109893628D01*
X107848684Y-110465057D02*
X108610588Y-110465057D01*
X108848684Y-109846009D02*
X109182017Y-109846009D01*
X109324874Y-110369819D02*
X108848684Y-110369819D01*
X108848684Y-110369819D02*
X108848684Y-109369819D01*
X108848684Y-109369819D02*
X109324874Y-109369819D01*
X109705827Y-110322200D02*
X109848684Y-110369819D01*
X109848684Y-110369819D02*
X110086779Y-110369819D01*
X110086779Y-110369819D02*
X110182017Y-110322200D01*
X110182017Y-110322200D02*
X110229636Y-110274580D01*
X110229636Y-110274580D02*
X110277255Y-110179342D01*
X110277255Y-110179342D02*
X110277255Y-110084104D01*
X110277255Y-110084104D02*
X110229636Y-109988866D01*
X110229636Y-109988866D02*
X110182017Y-109941247D01*
X110182017Y-109941247D02*
X110086779Y-109893628D01*
X110086779Y-109893628D02*
X109896303Y-109846009D01*
X109896303Y-109846009D02*
X109801065Y-109798390D01*
X109801065Y-109798390D02*
X109753446Y-109750771D01*
X109753446Y-109750771D02*
X109705827Y-109655533D01*
X109705827Y-109655533D02*
X109705827Y-109560295D01*
X109705827Y-109560295D02*
X109753446Y-109465057D01*
X109753446Y-109465057D02*
X109801065Y-109417438D01*
X109801065Y-109417438D02*
X109896303Y-109369819D01*
X109896303Y-109369819D02*
X110134398Y-109369819D01*
X110134398Y-109369819D02*
X110277255Y-109417438D01*
X111372493Y-110465057D02*
X111277255Y-110417438D01*
X111277255Y-110417438D02*
X111182017Y-110322200D01*
X111182017Y-110322200D02*
X111039160Y-110179342D01*
X111039160Y-110179342D02*
X110943922Y-110131723D01*
X110943922Y-110131723D02*
X110848684Y-110131723D01*
X110896303Y-110369819D02*
X110801065Y-110322200D01*
X110801065Y-110322200D02*
X110705827Y-110226961D01*
X110705827Y-110226961D02*
X110658208Y-110036485D01*
X110658208Y-110036485D02*
X110658208Y-109703152D01*
X110658208Y-109703152D02*
X110705827Y-109512676D01*
X110705827Y-109512676D02*
X110801065Y-109417438D01*
X110801065Y-109417438D02*
X110896303Y-109369819D01*
X110896303Y-109369819D02*
X111086779Y-109369819D01*
X111086779Y-109369819D02*
X111182017Y-109417438D01*
X111182017Y-109417438D02*
X111277255Y-109512676D01*
X111277255Y-109512676D02*
X111324874Y-109703152D01*
X111324874Y-109703152D02*
X111324874Y-110036485D01*
X111324874Y-110036485D02*
X111277255Y-110226961D01*
X111277255Y-110226961D02*
X111182017Y-110322200D01*
X111182017Y-110322200D02*
X111086779Y-110369819D01*
X111086779Y-110369819D02*
X110896303Y-110369819D01*
X111753446Y-109369819D02*
X111753446Y-110179342D01*
X111753446Y-110179342D02*
X111801065Y-110274580D01*
X111801065Y-110274580D02*
X111848684Y-110322200D01*
X111848684Y-110322200D02*
X111943922Y-110369819D01*
X111943922Y-110369819D02*
X112134398Y-110369819D01*
X112134398Y-110369819D02*
X112229636Y-110322200D01*
X112229636Y-110322200D02*
X112277255Y-110274580D01*
X112277255Y-110274580D02*
X112324874Y-110179342D01*
X112324874Y-110179342D02*
X112324874Y-109369819D01*
X112801065Y-109846009D02*
X113134398Y-109846009D01*
X113277255Y-110369819D02*
X112801065Y-110369819D01*
X112801065Y-110369819D02*
X112801065Y-109369819D01*
X112801065Y-109369819D02*
X113277255Y-109369819D01*
X114277255Y-110369819D02*
X113943922Y-109893628D01*
X113705827Y-110369819D02*
X113705827Y-109369819D01*
X113705827Y-109369819D02*
X114086779Y-109369819D01*
X114086779Y-109369819D02*
X114182017Y-109417438D01*
X114182017Y-109417438D02*
X114229636Y-109465057D01*
X114229636Y-109465057D02*
X114277255Y-109560295D01*
X114277255Y-109560295D02*
X114277255Y-109703152D01*
X114277255Y-109703152D02*
X114229636Y-109798390D01*
X114229636Y-109798390D02*
X114182017Y-109846009D01*
X114182017Y-109846009D02*
X114086779Y-109893628D01*
X114086779Y-109893628D02*
X113705827Y-109893628D01*
X114705827Y-110369819D02*
X114705827Y-109369819D01*
X114705827Y-109369819D02*
X114943922Y-109369819D01*
X114943922Y-109369819D02*
X115086779Y-109417438D01*
X115086779Y-109417438D02*
X115182017Y-109512676D01*
X115182017Y-109512676D02*
X115229636Y-109607914D01*
X115229636Y-109607914D02*
X115277255Y-109798390D01*
X115277255Y-109798390D02*
X115277255Y-109941247D01*
X115277255Y-109941247D02*
X115229636Y-110131723D01*
X115229636Y-110131723D02*
X115182017Y-110226961D01*
X115182017Y-110226961D02*
X115086779Y-110322200D01*
X115086779Y-110322200D02*
X114943922Y-110369819D01*
X114943922Y-110369819D02*
X114705827Y-110369819D01*
X115896303Y-109369819D02*
X116086779Y-109369819D01*
X116086779Y-109369819D02*
X116182017Y-109417438D01*
X116182017Y-109417438D02*
X116277255Y-109512676D01*
X116277255Y-109512676D02*
X116324874Y-109703152D01*
X116324874Y-109703152D02*
X116324874Y-110036485D01*
X116324874Y-110036485D02*
X116277255Y-110226961D01*
X116277255Y-110226961D02*
X116182017Y-110322200D01*
X116182017Y-110322200D02*
X116086779Y-110369819D01*
X116086779Y-110369819D02*
X115896303Y-110369819D01*
X115896303Y-110369819D02*
X115801065Y-110322200D01*
X115801065Y-110322200D02*
X115705827Y-110226961D01*
X115705827Y-110226961D02*
X115658208Y-110036485D01*
X115658208Y-110036485D02*
X115658208Y-109703152D01*
X115658208Y-109703152D02*
X115705827Y-109512676D01*
X115705827Y-109512676D02*
X115801065Y-109417438D01*
X115801065Y-109417438D02*
X115896303Y-109369819D01*
X136798207Y-92484580D02*
X136750588Y-92532200D01*
X136750588Y-92532200D02*
X136607731Y-92579819D01*
X136607731Y-92579819D02*
X136512493Y-92579819D01*
X136512493Y-92579819D02*
X136369636Y-92532200D01*
X136369636Y-92532200D02*
X136274398Y-92436961D01*
X136274398Y-92436961D02*
X136226779Y-92341723D01*
X136226779Y-92341723D02*
X136179160Y-92151247D01*
X136179160Y-92151247D02*
X136179160Y-92008390D01*
X136179160Y-92008390D02*
X136226779Y-91817914D01*
X136226779Y-91817914D02*
X136274398Y-91722676D01*
X136274398Y-91722676D02*
X136369636Y-91627438D01*
X136369636Y-91627438D02*
X136512493Y-91579819D01*
X136512493Y-91579819D02*
X136607731Y-91579819D01*
X136607731Y-91579819D02*
X136750588Y-91627438D01*
X136750588Y-91627438D02*
X136798207Y-91675057D01*
X137417255Y-91579819D02*
X137607731Y-91579819D01*
X137607731Y-91579819D02*
X137702969Y-91627438D01*
X137702969Y-91627438D02*
X137798207Y-91722676D01*
X137798207Y-91722676D02*
X137845826Y-91913152D01*
X137845826Y-91913152D02*
X137845826Y-92246485D01*
X137845826Y-92246485D02*
X137798207Y-92436961D01*
X137798207Y-92436961D02*
X137702969Y-92532200D01*
X137702969Y-92532200D02*
X137607731Y-92579819D01*
X137607731Y-92579819D02*
X137417255Y-92579819D01*
X137417255Y-92579819D02*
X137322017Y-92532200D01*
X137322017Y-92532200D02*
X137226779Y-92436961D01*
X137226779Y-92436961D02*
X137179160Y-92246485D01*
X137179160Y-92246485D02*
X137179160Y-91913152D01*
X137179160Y-91913152D02*
X137226779Y-91722676D01*
X137226779Y-91722676D02*
X137322017Y-91627438D01*
X137322017Y-91627438D02*
X137417255Y-91579819D01*
X138750588Y-92579819D02*
X138274398Y-92579819D01*
X138274398Y-92579819D02*
X138274398Y-91579819D01*
X139274398Y-91579819D02*
X139464874Y-91579819D01*
X139464874Y-91579819D02*
X139560112Y-91627438D01*
X139560112Y-91627438D02*
X139655350Y-91722676D01*
X139655350Y-91722676D02*
X139702969Y-91913152D01*
X139702969Y-91913152D02*
X139702969Y-92246485D01*
X139702969Y-92246485D02*
X139655350Y-92436961D01*
X139655350Y-92436961D02*
X139560112Y-92532200D01*
X139560112Y-92532200D02*
X139464874Y-92579819D01*
X139464874Y-92579819D02*
X139274398Y-92579819D01*
X139274398Y-92579819D02*
X139179160Y-92532200D01*
X139179160Y-92532200D02*
X139083922Y-92436961D01*
X139083922Y-92436961D02*
X139036303Y-92246485D01*
X139036303Y-92246485D02*
X139036303Y-91913152D01*
X139036303Y-91913152D02*
X139083922Y-91722676D01*
X139083922Y-91722676D02*
X139179160Y-91627438D01*
X139179160Y-91627438D02*
X139274398Y-91579819D01*
X140798207Y-92675057D02*
X140702969Y-92627438D01*
X140702969Y-92627438D02*
X140607731Y-92532200D01*
X140607731Y-92532200D02*
X140464874Y-92389342D01*
X140464874Y-92389342D02*
X140369636Y-92341723D01*
X140369636Y-92341723D02*
X140274398Y-92341723D01*
X140322017Y-92579819D02*
X140226779Y-92532200D01*
X140226779Y-92532200D02*
X140131541Y-92436961D01*
X140131541Y-92436961D02*
X140083922Y-92246485D01*
X140083922Y-92246485D02*
X140083922Y-91913152D01*
X140083922Y-91913152D02*
X140131541Y-91722676D01*
X140131541Y-91722676D02*
X140226779Y-91627438D01*
X140226779Y-91627438D02*
X140322017Y-91579819D01*
X140322017Y-91579819D02*
X140512493Y-91579819D01*
X140512493Y-91579819D02*
X140607731Y-91627438D01*
X140607731Y-91627438D02*
X140702969Y-91722676D01*
X140702969Y-91722676D02*
X140750588Y-91913152D01*
X140750588Y-91913152D02*
X140750588Y-92246485D01*
X140750588Y-92246485D02*
X140702969Y-92436961D01*
X140702969Y-92436961D02*
X140607731Y-92532200D01*
X140607731Y-92532200D02*
X140512493Y-92579819D01*
X140512493Y-92579819D02*
X140322017Y-92579819D01*
X141179160Y-91579819D02*
X141179160Y-92389342D01*
X141179160Y-92389342D02*
X141226779Y-92484580D01*
X141226779Y-92484580D02*
X141274398Y-92532200D01*
X141274398Y-92532200D02*
X141369636Y-92579819D01*
X141369636Y-92579819D02*
X141560112Y-92579819D01*
X141560112Y-92579819D02*
X141655350Y-92532200D01*
X141655350Y-92532200D02*
X141702969Y-92484580D01*
X141702969Y-92484580D02*
X141750588Y-92389342D01*
X141750588Y-92389342D02*
X141750588Y-91579819D01*
X142226779Y-92056009D02*
X142560112Y-92056009D01*
X142702969Y-92579819D02*
X142226779Y-92579819D01*
X142226779Y-92579819D02*
X142226779Y-91579819D01*
X142226779Y-91579819D02*
X142702969Y-91579819D01*
X143845827Y-92294104D02*
X144322017Y-92294104D01*
X143750589Y-92579819D02*
X144083922Y-91579819D01*
X144083922Y-91579819D02*
X144417255Y-92579819D01*
X145845827Y-92056009D02*
X145988684Y-92103628D01*
X145988684Y-92103628D02*
X146036303Y-92151247D01*
X146036303Y-92151247D02*
X146083922Y-92246485D01*
X146083922Y-92246485D02*
X146083922Y-92389342D01*
X146083922Y-92389342D02*
X146036303Y-92484580D01*
X146036303Y-92484580D02*
X145988684Y-92532200D01*
X145988684Y-92532200D02*
X145893446Y-92579819D01*
X145893446Y-92579819D02*
X145512494Y-92579819D01*
X145512494Y-92579819D02*
X145512494Y-91579819D01*
X145512494Y-91579819D02*
X145845827Y-91579819D01*
X145845827Y-91579819D02*
X145941065Y-91627438D01*
X145941065Y-91627438D02*
X145988684Y-91675057D01*
X145988684Y-91675057D02*
X146036303Y-91770295D01*
X146036303Y-91770295D02*
X146036303Y-91865533D01*
X146036303Y-91865533D02*
X145988684Y-91960771D01*
X145988684Y-91960771D02*
X145941065Y-92008390D01*
X145941065Y-92008390D02*
X145845827Y-92056009D01*
X145845827Y-92056009D02*
X145512494Y-92056009D01*
X146464875Y-92294104D02*
X146941065Y-92294104D01*
X146369637Y-92579819D02*
X146702970Y-91579819D01*
X146702970Y-91579819D02*
X147036303Y-92579819D01*
X147226780Y-91579819D02*
X147798208Y-91579819D01*
X147512494Y-92579819D02*
X147512494Y-91579819D01*
X148131542Y-92056009D02*
X148464875Y-92056009D01*
X148607732Y-92579819D02*
X148131542Y-92579819D01*
X148131542Y-92579819D02*
X148131542Y-91579819D01*
X148131542Y-91579819D02*
X148607732Y-91579819D01*
X149607732Y-92579819D02*
X149274399Y-92103628D01*
X149036304Y-92579819D02*
X149036304Y-91579819D01*
X149036304Y-91579819D02*
X149417256Y-91579819D01*
X149417256Y-91579819D02*
X149512494Y-91627438D01*
X149512494Y-91627438D02*
X149560113Y-91675057D01*
X149560113Y-91675057D02*
X149607732Y-91770295D01*
X149607732Y-91770295D02*
X149607732Y-91913152D01*
X149607732Y-91913152D02*
X149560113Y-92008390D01*
X149560113Y-92008390D02*
X149512494Y-92056009D01*
X149512494Y-92056009D02*
X149417256Y-92103628D01*
X149417256Y-92103628D02*
X149036304Y-92103628D01*
X150036304Y-92579819D02*
X150036304Y-91579819D01*
X150464875Y-92294104D02*
X150941065Y-92294104D01*
X150369637Y-92579819D02*
X150702970Y-91579819D01*
X150702970Y-91579819D02*
X151036303Y-92579819D01*
X152131542Y-92579819D02*
X152131542Y-91579819D01*
X152131542Y-91579819D02*
X152702970Y-92579819D01*
X152702970Y-92579819D02*
X152702970Y-91579819D01*
X153369637Y-91579819D02*
X153560113Y-91579819D01*
X153560113Y-91579819D02*
X153655351Y-91627438D01*
X153655351Y-91627438D02*
X153750589Y-91722676D01*
X153750589Y-91722676D02*
X153798208Y-91913152D01*
X153798208Y-91913152D02*
X153798208Y-92246485D01*
X153798208Y-92246485D02*
X153750589Y-92436961D01*
X153750589Y-92436961D02*
X153655351Y-92532200D01*
X153655351Y-92532200D02*
X153560113Y-92579819D01*
X153560113Y-92579819D02*
X153369637Y-92579819D01*
X153369637Y-92579819D02*
X153274399Y-92532200D01*
X153274399Y-92532200D02*
X153179161Y-92436961D01*
X153179161Y-92436961D02*
X153131542Y-92246485D01*
X153131542Y-92246485D02*
X153131542Y-91913152D01*
X153131542Y-91913152D02*
X153179161Y-91722676D01*
X153179161Y-91722676D02*
X153274399Y-91627438D01*
X153274399Y-91627438D02*
X153369637Y-91579819D01*
X155464875Y-92579819D02*
X154988685Y-92579819D01*
X154988685Y-92579819D02*
X154988685Y-91579819D01*
X155798209Y-91579819D02*
X155798209Y-92389342D01*
X155798209Y-92389342D02*
X155845828Y-92484580D01*
X155845828Y-92484580D02*
X155893447Y-92532200D01*
X155893447Y-92532200D02*
X155988685Y-92579819D01*
X155988685Y-92579819D02*
X156179161Y-92579819D01*
X156179161Y-92579819D02*
X156274399Y-92532200D01*
X156274399Y-92532200D02*
X156322018Y-92484580D01*
X156322018Y-92484580D02*
X156369637Y-92389342D01*
X156369637Y-92389342D02*
X156369637Y-91579819D01*
X157369637Y-91627438D02*
X157274399Y-91579819D01*
X157274399Y-91579819D02*
X157131542Y-91579819D01*
X157131542Y-91579819D02*
X156988685Y-91627438D01*
X156988685Y-91627438D02*
X156893447Y-91722676D01*
X156893447Y-91722676D02*
X156845828Y-91817914D01*
X156845828Y-91817914D02*
X156798209Y-92008390D01*
X156798209Y-92008390D02*
X156798209Y-92151247D01*
X156798209Y-92151247D02*
X156845828Y-92341723D01*
X156845828Y-92341723D02*
X156893447Y-92436961D01*
X156893447Y-92436961D02*
X156988685Y-92532200D01*
X156988685Y-92532200D02*
X157131542Y-92579819D01*
X157131542Y-92579819D02*
X157226780Y-92579819D01*
X157226780Y-92579819D02*
X157369637Y-92532200D01*
X157369637Y-92532200D02*
X157417256Y-92484580D01*
X157417256Y-92484580D02*
X157417256Y-92151247D01*
X157417256Y-92151247D02*
X157226780Y-92151247D01*
X157798209Y-92294104D02*
X158274399Y-92294104D01*
X157702971Y-92579819D02*
X158036304Y-91579819D01*
X158036304Y-91579819D02*
X158369637Y-92579819D01*
X159274399Y-92579819D02*
X158941066Y-92103628D01*
X158702971Y-92579819D02*
X158702971Y-91579819D01*
X158702971Y-91579819D02*
X159083923Y-91579819D01*
X159083923Y-91579819D02*
X159179161Y-91627438D01*
X159179161Y-91627438D02*
X159226780Y-91675057D01*
X159226780Y-91675057D02*
X159274399Y-91770295D01*
X159274399Y-91770295D02*
X159274399Y-91913152D01*
X159274399Y-91913152D02*
X159226780Y-92008390D01*
X159226780Y-92008390D02*
X159179161Y-92056009D01*
X159179161Y-92056009D02*
X159083923Y-92103628D01*
X159083923Y-92103628D02*
X158702971Y-92103628D01*
X159702971Y-92484580D02*
X159750590Y-92532200D01*
X159750590Y-92532200D02*
X159702971Y-92579819D01*
X159702971Y-92579819D02*
X159655352Y-92532200D01*
X159655352Y-92532200D02*
X159702971Y-92484580D01*
X159702971Y-92484580D02*
X159702971Y-92579819D01*
X159702971Y-92198866D02*
X159655352Y-91627438D01*
X159655352Y-91627438D02*
X159702971Y-91579819D01*
X159702971Y-91579819D02*
X159750590Y-91627438D01*
X159750590Y-91627438D02*
X159702971Y-92198866D01*
X159702971Y-92198866D02*
X159702971Y-91579819D01*
X160179161Y-92484580D02*
X160226780Y-92532200D01*
X160226780Y-92532200D02*
X160179161Y-92579819D01*
X160179161Y-92579819D02*
X160131542Y-92532200D01*
X160131542Y-92532200D02*
X160179161Y-92484580D01*
X160179161Y-92484580D02*
X160179161Y-92579819D01*
X160179161Y-92198866D02*
X160131542Y-91627438D01*
X160131542Y-91627438D02*
X160179161Y-91579819D01*
X160179161Y-91579819D02*
X160226780Y-91627438D01*
X160226780Y-91627438D02*
X160179161Y-92198866D01*
X160179161Y-92198866D02*
X160179161Y-91579819D01*
X160655351Y-92484580D02*
X160702970Y-92532200D01*
X160702970Y-92532200D02*
X160655351Y-92579819D01*
X160655351Y-92579819D02*
X160607732Y-92532200D01*
X160607732Y-92532200D02*
X160655351Y-92484580D01*
X160655351Y-92484580D02*
X160655351Y-92579819D01*
X160655351Y-92198866D02*
X160607732Y-91627438D01*
X160607732Y-91627438D02*
X160655351Y-91579819D01*
X160655351Y-91579819D02*
X160702970Y-91627438D01*
X160702970Y-91627438D02*
X160655351Y-92198866D01*
X160655351Y-92198866D02*
X160655351Y-91579819D01*
X174586779Y-110369819D02*
X174586779Y-109369819D01*
X174586779Y-109369819D02*
X174920112Y-110084104D01*
X174920112Y-110084104D02*
X175253445Y-109369819D01*
X175253445Y-109369819D02*
X175253445Y-110369819D01*
X175920112Y-109369819D02*
X176110588Y-109369819D01*
X176110588Y-109369819D02*
X176205826Y-109417438D01*
X176205826Y-109417438D02*
X176301064Y-109512676D01*
X176301064Y-109512676D02*
X176348683Y-109703152D01*
X176348683Y-109703152D02*
X176348683Y-110036485D01*
X176348683Y-110036485D02*
X176301064Y-110226961D01*
X176301064Y-110226961D02*
X176205826Y-110322200D01*
X176205826Y-110322200D02*
X176110588Y-110369819D01*
X176110588Y-110369819D02*
X175920112Y-110369819D01*
X175920112Y-110369819D02*
X175824874Y-110322200D01*
X175824874Y-110322200D02*
X175729636Y-110226961D01*
X175729636Y-110226961D02*
X175682017Y-110036485D01*
X175682017Y-110036485D02*
X175682017Y-109703152D01*
X175682017Y-109703152D02*
X175729636Y-109512676D01*
X175729636Y-109512676D02*
X175824874Y-109417438D01*
X175824874Y-109417438D02*
X175920112Y-109369819D01*
X176634398Y-109369819D02*
X177205826Y-109369819D01*
X176920112Y-110369819D02*
X176920112Y-109369819D01*
X177729636Y-109369819D02*
X177920112Y-109369819D01*
X177920112Y-109369819D02*
X178015350Y-109417438D01*
X178015350Y-109417438D02*
X178110588Y-109512676D01*
X178110588Y-109512676D02*
X178158207Y-109703152D01*
X178158207Y-109703152D02*
X178158207Y-110036485D01*
X178158207Y-110036485D02*
X178110588Y-110226961D01*
X178110588Y-110226961D02*
X178015350Y-110322200D01*
X178015350Y-110322200D02*
X177920112Y-110369819D01*
X177920112Y-110369819D02*
X177729636Y-110369819D01*
X177729636Y-110369819D02*
X177634398Y-110322200D01*
X177634398Y-110322200D02*
X177539160Y-110226961D01*
X177539160Y-110226961D02*
X177491541Y-110036485D01*
X177491541Y-110036485D02*
X177491541Y-109703152D01*
X177491541Y-109703152D02*
X177539160Y-109512676D01*
X177539160Y-109512676D02*
X177634398Y-109417438D01*
X177634398Y-109417438D02*
X177729636Y-109369819D01*
X179158207Y-110369819D02*
X178824874Y-109893628D01*
X178586779Y-110369819D02*
X178586779Y-109369819D01*
X178586779Y-109369819D02*
X178967731Y-109369819D01*
X178967731Y-109369819D02*
X179062969Y-109417438D01*
X179062969Y-109417438D02*
X179110588Y-109465057D01*
X179110588Y-109465057D02*
X179158207Y-109560295D01*
X179158207Y-109560295D02*
X179158207Y-109703152D01*
X179158207Y-109703152D02*
X179110588Y-109798390D01*
X179110588Y-109798390D02*
X179062969Y-109846009D01*
X179062969Y-109846009D02*
X178967731Y-109893628D01*
X178967731Y-109893628D02*
X178586779Y-109893628D01*
X179348684Y-110465057D02*
X180110588Y-110465057D01*
X180348684Y-110369819D02*
X180348684Y-109369819D01*
X180348684Y-109369819D02*
X180586779Y-109369819D01*
X180586779Y-109369819D02*
X180729636Y-109417438D01*
X180729636Y-109417438D02*
X180824874Y-109512676D01*
X180824874Y-109512676D02*
X180872493Y-109607914D01*
X180872493Y-109607914D02*
X180920112Y-109798390D01*
X180920112Y-109798390D02*
X180920112Y-109941247D01*
X180920112Y-109941247D02*
X180872493Y-110131723D01*
X180872493Y-110131723D02*
X180824874Y-110226961D01*
X180824874Y-110226961D02*
X180729636Y-110322200D01*
X180729636Y-110322200D02*
X180586779Y-110369819D01*
X180586779Y-110369819D02*
X180348684Y-110369819D01*
X181348684Y-110369819D02*
X181348684Y-109369819D01*
X182396302Y-110369819D02*
X182062969Y-109893628D01*
X181824874Y-110369819D02*
X181824874Y-109369819D01*
X181824874Y-109369819D02*
X182205826Y-109369819D01*
X182205826Y-109369819D02*
X182301064Y-109417438D01*
X182301064Y-109417438D02*
X182348683Y-109465057D01*
X182348683Y-109465057D02*
X182396302Y-109560295D01*
X182396302Y-109560295D02*
X182396302Y-109703152D01*
X182396302Y-109703152D02*
X182348683Y-109798390D01*
X182348683Y-109798390D02*
X182301064Y-109846009D01*
X182301064Y-109846009D02*
X182205826Y-109893628D01*
X182205826Y-109893628D02*
X181824874Y-109893628D01*
X182824874Y-109846009D02*
X183158207Y-109846009D01*
X183301064Y-110369819D02*
X182824874Y-110369819D01*
X182824874Y-110369819D02*
X182824874Y-109369819D01*
X182824874Y-109369819D02*
X183301064Y-109369819D01*
X183729636Y-110369819D02*
X183729636Y-109369819D01*
X184062969Y-109369819D02*
X184634397Y-109369819D01*
X184348683Y-110369819D02*
X184348683Y-109369819D01*
X185158207Y-109369819D02*
X185348683Y-109369819D01*
X185348683Y-109369819D02*
X185443921Y-109417438D01*
X185443921Y-109417438D02*
X185539159Y-109512676D01*
X185539159Y-109512676D02*
X185586778Y-109703152D01*
X185586778Y-109703152D02*
X185586778Y-110036485D01*
X185586778Y-110036485D02*
X185539159Y-110226961D01*
X185539159Y-110226961D02*
X185443921Y-110322200D01*
X185443921Y-110322200D02*
X185348683Y-110369819D01*
X185348683Y-110369819D02*
X185158207Y-110369819D01*
X185158207Y-110369819D02*
X185062969Y-110322200D01*
X185062969Y-110322200D02*
X184967731Y-110226961D01*
X184967731Y-110226961D02*
X184920112Y-110036485D01*
X184920112Y-110036485D02*
X184920112Y-109703152D01*
X184920112Y-109703152D02*
X184967731Y-109512676D01*
X184967731Y-109512676D02*
X185062969Y-109417438D01*
X185062969Y-109417438D02*
X185158207Y-109369819D01*
D10*
X139726190Y-137694884D02*
X139869047Y-137742503D01*
X139869047Y-137742503D02*
X140107142Y-137742503D01*
X140107142Y-137742503D02*
X140202380Y-137694884D01*
X140202380Y-137694884D02*
X140249999Y-137647264D01*
X140249999Y-137647264D02*
X140297618Y-137552026D01*
X140297618Y-137552026D02*
X140297618Y-137456788D01*
X140297618Y-137456788D02*
X140249999Y-137361550D01*
X140249999Y-137361550D02*
X140202380Y-137313931D01*
X140202380Y-137313931D02*
X140107142Y-137266312D01*
X140107142Y-137266312D02*
X139916666Y-137218693D01*
X139916666Y-137218693D02*
X139821428Y-137171074D01*
X139821428Y-137171074D02*
X139773809Y-137123455D01*
X139773809Y-137123455D02*
X139726190Y-137028217D01*
X139726190Y-137028217D02*
X139726190Y-136932979D01*
X139726190Y-136932979D02*
X139773809Y-136837741D01*
X139773809Y-136837741D02*
X139821428Y-136790122D01*
X139821428Y-136790122D02*
X139916666Y-136742503D01*
X139916666Y-136742503D02*
X140154761Y-136742503D01*
X140154761Y-136742503D02*
X140297618Y-136790122D01*
X140726190Y-137218693D02*
X141059523Y-137218693D01*
X141202380Y-137742503D02*
X140726190Y-137742503D01*
X140726190Y-137742503D02*
X140726190Y-136742503D01*
X140726190Y-136742503D02*
X141202380Y-136742503D01*
X142250000Y-136742503D02*
X142583333Y-137742503D01*
X142583333Y-137742503D02*
X142916666Y-136742503D01*
X143440476Y-136742503D02*
X143630952Y-136742503D01*
X143630952Y-136742503D02*
X143726190Y-136790122D01*
X143726190Y-136790122D02*
X143821428Y-136885360D01*
X143821428Y-136885360D02*
X143869047Y-137075836D01*
X143869047Y-137075836D02*
X143869047Y-137409169D01*
X143869047Y-137409169D02*
X143821428Y-137599645D01*
X143821428Y-137599645D02*
X143726190Y-137694884D01*
X143726190Y-137694884D02*
X143630952Y-137742503D01*
X143630952Y-137742503D02*
X143440476Y-137742503D01*
X143440476Y-137742503D02*
X143345238Y-137694884D01*
X143345238Y-137694884D02*
X143250000Y-137599645D01*
X143250000Y-137599645D02*
X143202381Y-137409169D01*
X143202381Y-137409169D02*
X143202381Y-137075836D01*
X143202381Y-137075836D02*
X143250000Y-136885360D01*
X143250000Y-136885360D02*
X143345238Y-136790122D01*
X143345238Y-136790122D02*
X143440476Y-136742503D01*
X144869047Y-137647264D02*
X144821428Y-137694884D01*
X144821428Y-137694884D02*
X144678571Y-137742503D01*
X144678571Y-137742503D02*
X144583333Y-137742503D01*
X144583333Y-137742503D02*
X144440476Y-137694884D01*
X144440476Y-137694884D02*
X144345238Y-137599645D01*
X144345238Y-137599645D02*
X144297619Y-137504407D01*
X144297619Y-137504407D02*
X144250000Y-137313931D01*
X144250000Y-137313931D02*
X144250000Y-137171074D01*
X144250000Y-137171074D02*
X144297619Y-136980598D01*
X144297619Y-136980598D02*
X144345238Y-136885360D01*
X144345238Y-136885360D02*
X144440476Y-136790122D01*
X144440476Y-136790122D02*
X144583333Y-136742503D01*
X144583333Y-136742503D02*
X144678571Y-136742503D01*
X144678571Y-136742503D02*
X144821428Y-136790122D01*
X144821428Y-136790122D02*
X144869047Y-136837741D01*
X145297619Y-137218693D02*
X145630952Y-137218693D01*
X145773809Y-137742503D02*
X145297619Y-137742503D01*
X145297619Y-137742503D02*
X145297619Y-136742503D01*
X145297619Y-136742503D02*
X145773809Y-136742503D01*
X146964286Y-137218693D02*
X147297619Y-137218693D01*
X147440476Y-137742503D02*
X146964286Y-137742503D01*
X146964286Y-137742503D02*
X146964286Y-136742503D01*
X146964286Y-136742503D02*
X147440476Y-136742503D01*
X147821429Y-137694884D02*
X147964286Y-137742503D01*
X147964286Y-137742503D02*
X148202381Y-137742503D01*
X148202381Y-137742503D02*
X148297619Y-137694884D01*
X148297619Y-137694884D02*
X148345238Y-137647264D01*
X148345238Y-137647264D02*
X148392857Y-137552026D01*
X148392857Y-137552026D02*
X148392857Y-137456788D01*
X148392857Y-137456788D02*
X148345238Y-137361550D01*
X148345238Y-137361550D02*
X148297619Y-137313931D01*
X148297619Y-137313931D02*
X148202381Y-137266312D01*
X148202381Y-137266312D02*
X148011905Y-137218693D01*
X148011905Y-137218693D02*
X147916667Y-137171074D01*
X147916667Y-137171074D02*
X147869048Y-137123455D01*
X147869048Y-137123455D02*
X147821429Y-137028217D01*
X147821429Y-137028217D02*
X147821429Y-136932979D01*
X147821429Y-136932979D02*
X147869048Y-136837741D01*
X147869048Y-136837741D02*
X147916667Y-136790122D01*
X147916667Y-136790122D02*
X148011905Y-136742503D01*
X148011905Y-136742503D02*
X148250000Y-136742503D01*
X148250000Y-136742503D02*
X148392857Y-136790122D01*
X148678572Y-136742503D02*
X149250000Y-136742503D01*
X148964286Y-137742503D02*
X148964286Y-136742503D01*
X149535715Y-137456788D02*
X150011905Y-137456788D01*
X149440477Y-137742503D02*
X149773810Y-136742503D01*
X149773810Y-136742503D02*
X150107143Y-137742503D01*
X141678571Y-139352447D02*
X141678571Y-138352447D01*
X141678571Y-138352447D02*
X142011904Y-139066732D01*
X142011904Y-139066732D02*
X142345237Y-138352447D01*
X142345237Y-138352447D02*
X142345237Y-139352447D01*
X142821428Y-138828637D02*
X143154761Y-138828637D01*
X143297618Y-139352447D02*
X142821428Y-139352447D01*
X142821428Y-139352447D02*
X142821428Y-138352447D01*
X142821428Y-138352447D02*
X143297618Y-138352447D01*
X144964285Y-139352447D02*
X144488095Y-139352447D01*
X144488095Y-139352447D02*
X144488095Y-138352447D01*
X145297619Y-138828637D02*
X145630952Y-138828637D01*
X145773809Y-139352447D02*
X145297619Y-139352447D01*
X145297619Y-139352447D02*
X145297619Y-138352447D01*
X145297619Y-138352447D02*
X145773809Y-138352447D01*
X146202381Y-139352447D02*
X146202381Y-138352447D01*
X146202381Y-138352447D02*
X146773809Y-139352447D01*
X146773809Y-139352447D02*
X146773809Y-138352447D01*
X147250000Y-139352447D02*
X147250000Y-138352447D01*
X147250000Y-138352447D02*
X147488095Y-138352447D01*
X147488095Y-138352447D02*
X147630952Y-138400066D01*
X147630952Y-138400066D02*
X147726190Y-138495304D01*
X147726190Y-138495304D02*
X147773809Y-138590542D01*
X147773809Y-138590542D02*
X147821428Y-138781018D01*
X147821428Y-138781018D02*
X147821428Y-138923875D01*
X147821428Y-138923875D02*
X147773809Y-139114351D01*
X147773809Y-139114351D02*
X147726190Y-139209589D01*
X147726190Y-139209589D02*
X147630952Y-139304828D01*
X147630952Y-139304828D02*
X147488095Y-139352447D01*
X147488095Y-139352447D02*
X147250000Y-139352447D01*
X148440476Y-138352447D02*
X148630952Y-138352447D01*
X148630952Y-138352447D02*
X148726190Y-138400066D01*
X148726190Y-138400066D02*
X148821428Y-138495304D01*
X148821428Y-138495304D02*
X148869047Y-138685780D01*
X148869047Y-138685780D02*
X148869047Y-139019113D01*
X148869047Y-139019113D02*
X148821428Y-139209589D01*
X148821428Y-139209589D02*
X148726190Y-139304828D01*
X148726190Y-139304828D02*
X148630952Y-139352447D01*
X148630952Y-139352447D02*
X148440476Y-139352447D01*
X148440476Y-139352447D02*
X148345238Y-139304828D01*
X148345238Y-139304828D02*
X148250000Y-139209589D01*
X148250000Y-139209589D02*
X148202381Y-139019113D01*
X148202381Y-139019113D02*
X148202381Y-138685780D01*
X148202381Y-138685780D02*
X148250000Y-138495304D01*
X148250000Y-138495304D02*
X148345238Y-138400066D01*
X148345238Y-138400066D02*
X148440476Y-138352447D01*
X141178571Y-140914772D02*
X141321428Y-140962391D01*
X141321428Y-140962391D02*
X141559523Y-140962391D01*
X141559523Y-140962391D02*
X141654761Y-140914772D01*
X141654761Y-140914772D02*
X141702380Y-140867152D01*
X141702380Y-140867152D02*
X141749999Y-140771914D01*
X141749999Y-140771914D02*
X141749999Y-140676676D01*
X141749999Y-140676676D02*
X141702380Y-140581438D01*
X141702380Y-140581438D02*
X141654761Y-140533819D01*
X141654761Y-140533819D02*
X141559523Y-140486200D01*
X141559523Y-140486200D02*
X141369047Y-140438581D01*
X141369047Y-140438581D02*
X141273809Y-140390962D01*
X141273809Y-140390962D02*
X141226190Y-140343343D01*
X141226190Y-140343343D02*
X141178571Y-140248105D01*
X141178571Y-140248105D02*
X141178571Y-140152867D01*
X141178571Y-140152867D02*
X141226190Y-140057629D01*
X141226190Y-140057629D02*
X141273809Y-140010010D01*
X141273809Y-140010010D02*
X141369047Y-139962391D01*
X141369047Y-139962391D02*
X141607142Y-139962391D01*
X141607142Y-139962391D02*
X141749999Y-140010010D01*
X142178571Y-140438581D02*
X142511904Y-140438581D01*
X142654761Y-140962391D02*
X142178571Y-140962391D01*
X142178571Y-140962391D02*
X142178571Y-139962391D01*
X142178571Y-139962391D02*
X142654761Y-139962391D01*
X143083333Y-139962391D02*
X143083333Y-140771914D01*
X143083333Y-140771914D02*
X143130952Y-140867152D01*
X143130952Y-140867152D02*
X143178571Y-140914772D01*
X143178571Y-140914772D02*
X143273809Y-140962391D01*
X143273809Y-140962391D02*
X143464285Y-140962391D01*
X143464285Y-140962391D02*
X143559523Y-140914772D01*
X143559523Y-140914772D02*
X143607142Y-140867152D01*
X143607142Y-140867152D02*
X143654761Y-140771914D01*
X143654761Y-140771914D02*
X143654761Y-139962391D01*
X145464285Y-140962391D02*
X145130952Y-140486200D01*
X144892857Y-140962391D02*
X144892857Y-139962391D01*
X144892857Y-139962391D02*
X145273809Y-139962391D01*
X145273809Y-139962391D02*
X145369047Y-140010010D01*
X145369047Y-140010010D02*
X145416666Y-140057629D01*
X145416666Y-140057629D02*
X145464285Y-140152867D01*
X145464285Y-140152867D02*
X145464285Y-140295724D01*
X145464285Y-140295724D02*
X145416666Y-140390962D01*
X145416666Y-140390962D02*
X145369047Y-140438581D01*
X145369047Y-140438581D02*
X145273809Y-140486200D01*
X145273809Y-140486200D02*
X144892857Y-140486200D01*
X146083333Y-139962391D02*
X146273809Y-139962391D01*
X146273809Y-139962391D02*
X146369047Y-140010010D01*
X146369047Y-140010010D02*
X146464285Y-140105248D01*
X146464285Y-140105248D02*
X146511904Y-140295724D01*
X146511904Y-140295724D02*
X146511904Y-140629057D01*
X146511904Y-140629057D02*
X146464285Y-140819533D01*
X146464285Y-140819533D02*
X146369047Y-140914772D01*
X146369047Y-140914772D02*
X146273809Y-140962391D01*
X146273809Y-140962391D02*
X146083333Y-140962391D01*
X146083333Y-140962391D02*
X145988095Y-140914772D01*
X145988095Y-140914772D02*
X145892857Y-140819533D01*
X145892857Y-140819533D02*
X145845238Y-140629057D01*
X145845238Y-140629057D02*
X145845238Y-140295724D01*
X145845238Y-140295724D02*
X145892857Y-140105248D01*
X145892857Y-140105248D02*
X145988095Y-140010010D01*
X145988095Y-140010010D02*
X146083333Y-139962391D01*
X147273809Y-140438581D02*
X147416666Y-140486200D01*
X147416666Y-140486200D02*
X147464285Y-140533819D01*
X147464285Y-140533819D02*
X147511904Y-140629057D01*
X147511904Y-140629057D02*
X147511904Y-140771914D01*
X147511904Y-140771914D02*
X147464285Y-140867152D01*
X147464285Y-140867152D02*
X147416666Y-140914772D01*
X147416666Y-140914772D02*
X147321428Y-140962391D01*
X147321428Y-140962391D02*
X146940476Y-140962391D01*
X146940476Y-140962391D02*
X146940476Y-139962391D01*
X146940476Y-139962391D02*
X147273809Y-139962391D01*
X147273809Y-139962391D02*
X147369047Y-140010010D01*
X147369047Y-140010010D02*
X147416666Y-140057629D01*
X147416666Y-140057629D02*
X147464285Y-140152867D01*
X147464285Y-140152867D02*
X147464285Y-140248105D01*
X147464285Y-140248105D02*
X147416666Y-140343343D01*
X147416666Y-140343343D02*
X147369047Y-140390962D01*
X147369047Y-140390962D02*
X147273809Y-140438581D01*
X147273809Y-140438581D02*
X146940476Y-140438581D01*
X148130952Y-139962391D02*
X148321428Y-139962391D01*
X148321428Y-139962391D02*
X148416666Y-140010010D01*
X148416666Y-140010010D02*
X148511904Y-140105248D01*
X148511904Y-140105248D02*
X148559523Y-140295724D01*
X148559523Y-140295724D02*
X148559523Y-140629057D01*
X148559523Y-140629057D02*
X148511904Y-140819533D01*
X148511904Y-140819533D02*
X148416666Y-140914772D01*
X148416666Y-140914772D02*
X148321428Y-140962391D01*
X148321428Y-140962391D02*
X148130952Y-140962391D01*
X148130952Y-140962391D02*
X148035714Y-140914772D01*
X148035714Y-140914772D02*
X147940476Y-140819533D01*
X147940476Y-140819533D02*
X147892857Y-140629057D01*
X147892857Y-140629057D02*
X147892857Y-140295724D01*
X147892857Y-140295724D02*
X147940476Y-140105248D01*
X147940476Y-140105248D02*
X148035714Y-140010010D01*
X148035714Y-140010010D02*
X148130952Y-139962391D01*
X142416667Y-142572335D02*
X142416667Y-141572335D01*
X142416667Y-141572335D02*
X142750000Y-142286620D01*
X142750000Y-142286620D02*
X143083333Y-141572335D01*
X143083333Y-141572335D02*
X143083333Y-142572335D01*
X143750000Y-141572335D02*
X143940476Y-141572335D01*
X143940476Y-141572335D02*
X144035714Y-141619954D01*
X144035714Y-141619954D02*
X144130952Y-141715192D01*
X144130952Y-141715192D02*
X144178571Y-141905668D01*
X144178571Y-141905668D02*
X144178571Y-142239001D01*
X144178571Y-142239001D02*
X144130952Y-142429477D01*
X144130952Y-142429477D02*
X144035714Y-142524716D01*
X144035714Y-142524716D02*
X143940476Y-142572335D01*
X143940476Y-142572335D02*
X143750000Y-142572335D01*
X143750000Y-142572335D02*
X143654762Y-142524716D01*
X143654762Y-142524716D02*
X143559524Y-142429477D01*
X143559524Y-142429477D02*
X143511905Y-142239001D01*
X143511905Y-142239001D02*
X143511905Y-141905668D01*
X143511905Y-141905668D02*
X143559524Y-141715192D01*
X143559524Y-141715192D02*
X143654762Y-141619954D01*
X143654762Y-141619954D02*
X143750000Y-141572335D01*
X145178571Y-142572335D02*
X144845238Y-142096144D01*
X144607143Y-142572335D02*
X144607143Y-141572335D01*
X144607143Y-141572335D02*
X144988095Y-141572335D01*
X144988095Y-141572335D02*
X145083333Y-141619954D01*
X145083333Y-141619954D02*
X145130952Y-141667573D01*
X145130952Y-141667573D02*
X145178571Y-141762811D01*
X145178571Y-141762811D02*
X145178571Y-141905668D01*
X145178571Y-141905668D02*
X145130952Y-142000906D01*
X145130952Y-142000906D02*
X145083333Y-142048525D01*
X145083333Y-142048525D02*
X144988095Y-142096144D01*
X144988095Y-142096144D02*
X144607143Y-142096144D01*
X146178571Y-142572335D02*
X145845238Y-142096144D01*
X145607143Y-142572335D02*
X145607143Y-141572335D01*
X145607143Y-141572335D02*
X145988095Y-141572335D01*
X145988095Y-141572335D02*
X146083333Y-141619954D01*
X146083333Y-141619954D02*
X146130952Y-141667573D01*
X146130952Y-141667573D02*
X146178571Y-141762811D01*
X146178571Y-141762811D02*
X146178571Y-141905668D01*
X146178571Y-141905668D02*
X146130952Y-142000906D01*
X146130952Y-142000906D02*
X146083333Y-142048525D01*
X146083333Y-142048525D02*
X145988095Y-142096144D01*
X145988095Y-142096144D02*
X145607143Y-142096144D01*
X146607143Y-142048525D02*
X146940476Y-142048525D01*
X147083333Y-142572335D02*
X146607143Y-142572335D01*
X146607143Y-142572335D02*
X146607143Y-141572335D01*
X146607143Y-141572335D02*
X147083333Y-141572335D01*
X147511905Y-141572335D02*
X147511905Y-142381858D01*
X147511905Y-142381858D02*
X147559524Y-142477096D01*
X147559524Y-142477096D02*
X147607143Y-142524716D01*
X147607143Y-142524716D02*
X147702381Y-142572335D01*
X147702381Y-142572335D02*
X147892857Y-142572335D01*
X147892857Y-142572335D02*
X147988095Y-142524716D01*
X147988095Y-142524716D02*
X148035714Y-142477096D01*
X148035714Y-142477096D02*
X148083333Y-142381858D01*
X148083333Y-142381858D02*
X148083333Y-141572335D01*
D11*
X112285714Y-127454819D02*
X112904761Y-127454819D01*
X112904761Y-127454819D02*
X112571428Y-127835771D01*
X112571428Y-127835771D02*
X112714285Y-127835771D01*
X112714285Y-127835771D02*
X112809523Y-127883390D01*
X112809523Y-127883390D02*
X112857142Y-127931009D01*
X112857142Y-127931009D02*
X112904761Y-128026247D01*
X112904761Y-128026247D02*
X112904761Y-128264342D01*
X112904761Y-128264342D02*
X112857142Y-128359580D01*
X112857142Y-128359580D02*
X112809523Y-128407200D01*
X112809523Y-128407200D02*
X112714285Y-128454819D01*
X112714285Y-128454819D02*
X112428571Y-128454819D01*
X112428571Y-128454819D02*
X112333333Y-128407200D01*
X112333333Y-128407200D02*
X112285714Y-128359580D01*
X113238095Y-127454819D02*
X113857142Y-127454819D01*
X113857142Y-127454819D02*
X113523809Y-127835771D01*
X113523809Y-127835771D02*
X113666666Y-127835771D01*
X113666666Y-127835771D02*
X113761904Y-127883390D01*
X113761904Y-127883390D02*
X113809523Y-127931009D01*
X113809523Y-127931009D02*
X113857142Y-128026247D01*
X113857142Y-128026247D02*
X113857142Y-128264342D01*
X113857142Y-128264342D02*
X113809523Y-128359580D01*
X113809523Y-128359580D02*
X113761904Y-128407200D01*
X113761904Y-128407200D02*
X113666666Y-128454819D01*
X113666666Y-128454819D02*
X113380952Y-128454819D01*
X113380952Y-128454819D02*
X113285714Y-128407200D01*
X113285714Y-128407200D02*
X113238095Y-128359580D01*
X114285714Y-128454819D02*
X114285714Y-127454819D01*
X114380952Y-128073866D02*
X114666666Y-128454819D01*
X114666666Y-127788152D02*
X114285714Y-128169104D01*
X96473866Y-125030951D02*
X96473866Y-124269047D01*
X96854819Y-124649999D02*
X96092914Y-124649999D01*
X141777500Y-118721719D02*
X141777500Y-118959814D01*
X141539405Y-118864576D02*
X141777500Y-118959814D01*
X141777500Y-118959814D02*
X142015595Y-118864576D01*
X141634643Y-119150290D02*
X141777500Y-118959814D01*
X141777500Y-118959814D02*
X141920357Y-119150290D01*
X172115555Y-129181009D02*
X172258412Y-129228628D01*
X172258412Y-129228628D02*
X172306031Y-129276247D01*
X172306031Y-129276247D02*
X172353650Y-129371485D01*
X172353650Y-129371485D02*
X172353650Y-129514342D01*
X172353650Y-129514342D02*
X172306031Y-129609580D01*
X172306031Y-129609580D02*
X172258412Y-129657200D01*
X172258412Y-129657200D02*
X172163174Y-129704819D01*
X172163174Y-129704819D02*
X171782222Y-129704819D01*
X171782222Y-129704819D02*
X171782222Y-128704819D01*
X171782222Y-128704819D02*
X172115555Y-128704819D01*
X172115555Y-128704819D02*
X172210793Y-128752438D01*
X172210793Y-128752438D02*
X172258412Y-128800057D01*
X172258412Y-128800057D02*
X172306031Y-128895295D01*
X172306031Y-128895295D02*
X172306031Y-128990533D01*
X172306031Y-128990533D02*
X172258412Y-129085771D01*
X172258412Y-129085771D02*
X172210793Y-129133390D01*
X172210793Y-129133390D02*
X172115555Y-129181009D01*
X172115555Y-129181009D02*
X171782222Y-129181009D01*
X172639365Y-128704819D02*
X173210793Y-128704819D01*
X172925079Y-129704819D02*
X172925079Y-128704819D01*
X173544127Y-129704819D02*
X173544127Y-128704819D01*
X173544127Y-128704819D02*
X174115555Y-129704819D01*
X174115555Y-129704819D02*
X174115555Y-128704819D01*
X175115555Y-129704819D02*
X174544127Y-129704819D01*
X174829841Y-129704819D02*
X174829841Y-128704819D01*
X174829841Y-128704819D02*
X174734603Y-128847676D01*
X174734603Y-128847676D02*
X174639365Y-128942914D01*
X174639365Y-128942914D02*
X174544127Y-128990533D01*
X157142857Y-129181009D02*
X157285714Y-129228628D01*
X157285714Y-129228628D02*
X157333333Y-129276247D01*
X157333333Y-129276247D02*
X157380952Y-129371485D01*
X157380952Y-129371485D02*
X157380952Y-129514342D01*
X157380952Y-129514342D02*
X157333333Y-129609580D01*
X157333333Y-129609580D02*
X157285714Y-129657200D01*
X157285714Y-129657200D02*
X157190476Y-129704819D01*
X157190476Y-129704819D02*
X156809524Y-129704819D01*
X156809524Y-129704819D02*
X156809524Y-128704819D01*
X156809524Y-128704819D02*
X157142857Y-128704819D01*
X157142857Y-128704819D02*
X157238095Y-128752438D01*
X157238095Y-128752438D02*
X157285714Y-128800057D01*
X157285714Y-128800057D02*
X157333333Y-128895295D01*
X157333333Y-128895295D02*
X157333333Y-128990533D01*
X157333333Y-128990533D02*
X157285714Y-129085771D01*
X157285714Y-129085771D02*
X157238095Y-129133390D01*
X157238095Y-129133390D02*
X157142857Y-129181009D01*
X157142857Y-129181009D02*
X156809524Y-129181009D01*
X158000000Y-128704819D02*
X158190476Y-128704819D01*
X158190476Y-128704819D02*
X158285714Y-128752438D01*
X158285714Y-128752438D02*
X158380952Y-128847676D01*
X158380952Y-128847676D02*
X158428571Y-129038152D01*
X158428571Y-129038152D02*
X158428571Y-129371485D01*
X158428571Y-129371485D02*
X158380952Y-129561961D01*
X158380952Y-129561961D02*
X158285714Y-129657200D01*
X158285714Y-129657200D02*
X158190476Y-129704819D01*
X158190476Y-129704819D02*
X158000000Y-129704819D01*
X158000000Y-129704819D02*
X157904762Y-129657200D01*
X157904762Y-129657200D02*
X157809524Y-129561961D01*
X157809524Y-129561961D02*
X157761905Y-129371485D01*
X157761905Y-129371485D02*
X157761905Y-129038152D01*
X157761905Y-129038152D02*
X157809524Y-128847676D01*
X157809524Y-128847676D02*
X157904762Y-128752438D01*
X157904762Y-128752438D02*
X158000000Y-128704819D01*
X159047619Y-128704819D02*
X159238095Y-128704819D01*
X159238095Y-128704819D02*
X159333333Y-128752438D01*
X159333333Y-128752438D02*
X159428571Y-128847676D01*
X159428571Y-128847676D02*
X159476190Y-129038152D01*
X159476190Y-129038152D02*
X159476190Y-129371485D01*
X159476190Y-129371485D02*
X159428571Y-129561961D01*
X159428571Y-129561961D02*
X159333333Y-129657200D01*
X159333333Y-129657200D02*
X159238095Y-129704819D01*
X159238095Y-129704819D02*
X159047619Y-129704819D01*
X159047619Y-129704819D02*
X158952381Y-129657200D01*
X158952381Y-129657200D02*
X158857143Y-129561961D01*
X158857143Y-129561961D02*
X158809524Y-129371485D01*
X158809524Y-129371485D02*
X158809524Y-129038152D01*
X158809524Y-129038152D02*
X158857143Y-128847676D01*
X158857143Y-128847676D02*
X158952381Y-128752438D01*
X158952381Y-128752438D02*
X159047619Y-128704819D01*
X159761905Y-128704819D02*
X160333333Y-128704819D01*
X160047619Y-129704819D02*
X160047619Y-128704819D01*
X140488094Y-146419104D02*
X140964284Y-146419104D01*
X140392856Y-146704819D02*
X140726189Y-145704819D01*
X140726189Y-145704819D02*
X141059522Y-146704819D01*
X141392856Y-146038152D02*
X141392856Y-146704819D01*
X141392856Y-146133390D02*
X141440475Y-146085771D01*
X141440475Y-146085771D02*
X141535713Y-146038152D01*
X141535713Y-146038152D02*
X141678570Y-146038152D01*
X141678570Y-146038152D02*
X141773808Y-146085771D01*
X141773808Y-146085771D02*
X141821427Y-146181009D01*
X141821427Y-146181009D02*
X141821427Y-146704819D01*
X142154761Y-146038152D02*
X142535713Y-146038152D01*
X142297618Y-145704819D02*
X142297618Y-146561961D01*
X142297618Y-146561961D02*
X142345237Y-146657200D01*
X142345237Y-146657200D02*
X142440475Y-146704819D01*
X142440475Y-146704819D02*
X142535713Y-146704819D01*
X143249999Y-146657200D02*
X143154761Y-146704819D01*
X143154761Y-146704819D02*
X142964285Y-146704819D01*
X142964285Y-146704819D02*
X142869047Y-146657200D01*
X142869047Y-146657200D02*
X142821428Y-146561961D01*
X142821428Y-146561961D02*
X142821428Y-146181009D01*
X142821428Y-146181009D02*
X142869047Y-146085771D01*
X142869047Y-146085771D02*
X142964285Y-146038152D01*
X142964285Y-146038152D02*
X143154761Y-146038152D01*
X143154761Y-146038152D02*
X143249999Y-146085771D01*
X143249999Y-146085771D02*
X143297618Y-146181009D01*
X143297618Y-146181009D02*
X143297618Y-146276247D01*
X143297618Y-146276247D02*
X142821428Y-146371485D01*
X143726190Y-146038152D02*
X143726190Y-146704819D01*
X143726190Y-146133390D02*
X143773809Y-146085771D01*
X143773809Y-146085771D02*
X143869047Y-146038152D01*
X143869047Y-146038152D02*
X144011904Y-146038152D01*
X144011904Y-146038152D02*
X144107142Y-146085771D01*
X144107142Y-146085771D02*
X144154761Y-146181009D01*
X144154761Y-146181009D02*
X144154761Y-146704819D01*
X144630952Y-146038152D02*
X144630952Y-146704819D01*
X144630952Y-146133390D02*
X144678571Y-146085771D01*
X144678571Y-146085771D02*
X144773809Y-146038152D01*
X144773809Y-146038152D02*
X144916666Y-146038152D01*
X144916666Y-146038152D02*
X145011904Y-146085771D01*
X145011904Y-146085771D02*
X145059523Y-146181009D01*
X145059523Y-146181009D02*
X145059523Y-146704819D01*
X145964285Y-146704819D02*
X145964285Y-146181009D01*
X145964285Y-146181009D02*
X145916666Y-146085771D01*
X145916666Y-146085771D02*
X145821428Y-146038152D01*
X145821428Y-146038152D02*
X145630952Y-146038152D01*
X145630952Y-146038152D02*
X145535714Y-146085771D01*
X145964285Y-146657200D02*
X145869047Y-146704819D01*
X145869047Y-146704819D02*
X145630952Y-146704819D01*
X145630952Y-146704819D02*
X145535714Y-146657200D01*
X145535714Y-146657200D02*
X145488095Y-146561961D01*
X145488095Y-146561961D02*
X145488095Y-146466723D01*
X145488095Y-146466723D02*
X145535714Y-146371485D01*
X145535714Y-146371485D02*
X145630952Y-146323866D01*
X145630952Y-146323866D02*
X145869047Y-146323866D01*
X145869047Y-146323866D02*
X145964285Y-146276247D01*
X147154762Y-146419104D02*
X147630952Y-146419104D01*
X147059524Y-146704819D02*
X147392857Y-145704819D01*
X147392857Y-145704819D02*
X147726190Y-146704819D01*
X148059524Y-146704819D02*
X148059524Y-146038152D01*
X148059524Y-146228628D02*
X148107143Y-146133390D01*
X148107143Y-146133390D02*
X148154762Y-146085771D01*
X148154762Y-146085771D02*
X148250000Y-146038152D01*
X148250000Y-146038152D02*
X148345238Y-146038152D01*
X149059524Y-146657200D02*
X148964286Y-146704819D01*
X148964286Y-146704819D02*
X148773810Y-146704819D01*
X148773810Y-146704819D02*
X148678572Y-146657200D01*
X148678572Y-146657200D02*
X148630953Y-146561961D01*
X148630953Y-146561961D02*
X148630953Y-146181009D01*
X148630953Y-146181009D02*
X148678572Y-146085771D01*
X148678572Y-146085771D02*
X148773810Y-146038152D01*
X148773810Y-146038152D02*
X148964286Y-146038152D01*
X148964286Y-146038152D02*
X149059524Y-146085771D01*
X149059524Y-146085771D02*
X149107143Y-146181009D01*
X149107143Y-146181009D02*
X149107143Y-146276247D01*
X149107143Y-146276247D02*
X148630953Y-146371485D01*
X149964286Y-146704819D02*
X149964286Y-146181009D01*
X149964286Y-146181009D02*
X149916667Y-146085771D01*
X149916667Y-146085771D02*
X149821429Y-146038152D01*
X149821429Y-146038152D02*
X149630953Y-146038152D01*
X149630953Y-146038152D02*
X149535715Y-146085771D01*
X149964286Y-146657200D02*
X149869048Y-146704819D01*
X149869048Y-146704819D02*
X149630953Y-146704819D01*
X149630953Y-146704819D02*
X149535715Y-146657200D01*
X149535715Y-146657200D02*
X149488096Y-146561961D01*
X149488096Y-146561961D02*
X149488096Y-146466723D01*
X149488096Y-146466723D02*
X149535715Y-146371485D01*
X149535715Y-146371485D02*
X149630953Y-146323866D01*
X149630953Y-146323866D02*
X149869048Y-146323866D01*
X149869048Y-146323866D02*
X149964286Y-146276247D01*
X148820000Y-114048119D02*
X148820000Y-114286214D01*
X148581905Y-114190976D02*
X148820000Y-114286214D01*
X148820000Y-114286214D02*
X149058095Y-114190976D01*
X148677143Y-114476690D02*
X148820000Y-114286214D01*
X148820000Y-114286214D02*
X148962857Y-114476690D01*
X113178571Y-130954819D02*
X112607143Y-130954819D01*
X112892857Y-130954819D02*
X112892857Y-129954819D01*
X112892857Y-129954819D02*
X112797619Y-130097676D01*
X112797619Y-130097676D02*
X112702381Y-130192914D01*
X112702381Y-130192914D02*
X112607143Y-130240533D01*
X113797619Y-129954819D02*
X113892857Y-129954819D01*
X113892857Y-129954819D02*
X113988095Y-130002438D01*
X113988095Y-130002438D02*
X114035714Y-130050057D01*
X114035714Y-130050057D02*
X114083333Y-130145295D01*
X114083333Y-130145295D02*
X114130952Y-130335771D01*
X114130952Y-130335771D02*
X114130952Y-130573866D01*
X114130952Y-130573866D02*
X114083333Y-130764342D01*
X114083333Y-130764342D02*
X114035714Y-130859580D01*
X114035714Y-130859580D02*
X113988095Y-130907200D01*
X113988095Y-130907200D02*
X113892857Y-130954819D01*
X113892857Y-130954819D02*
X113797619Y-130954819D01*
X113797619Y-130954819D02*
X113702381Y-130907200D01*
X113702381Y-130907200D02*
X113654762Y-130859580D01*
X113654762Y-130859580D02*
X113607143Y-130764342D01*
X113607143Y-130764342D02*
X113559524Y-130573866D01*
X113559524Y-130573866D02*
X113559524Y-130335771D01*
X113559524Y-130335771D02*
X113607143Y-130145295D01*
X113607143Y-130145295D02*
X113654762Y-130050057D01*
X113654762Y-130050057D02*
X113702381Y-130002438D01*
X113702381Y-130002438D02*
X113797619Y-129954819D01*
X114750000Y-129954819D02*
X114845238Y-129954819D01*
X114845238Y-129954819D02*
X114940476Y-130002438D01*
X114940476Y-130002438D02*
X114988095Y-130050057D01*
X114988095Y-130050057D02*
X115035714Y-130145295D01*
X115035714Y-130145295D02*
X115083333Y-130335771D01*
X115083333Y-130335771D02*
X115083333Y-130573866D01*
X115083333Y-130573866D02*
X115035714Y-130764342D01*
X115035714Y-130764342D02*
X114988095Y-130859580D01*
X114988095Y-130859580D02*
X114940476Y-130907200D01*
X114940476Y-130907200D02*
X114845238Y-130954819D01*
X114845238Y-130954819D02*
X114750000Y-130954819D01*
X114750000Y-130954819D02*
X114654762Y-130907200D01*
X114654762Y-130907200D02*
X114607143Y-130859580D01*
X114607143Y-130859580D02*
X114559524Y-130764342D01*
X114559524Y-130764342D02*
X114511905Y-130573866D01*
X114511905Y-130573866D02*
X114511905Y-130335771D01*
X114511905Y-130335771D02*
X114559524Y-130145295D01*
X114559524Y-130145295D02*
X114607143Y-130050057D01*
X114607143Y-130050057D02*
X114654762Y-130002438D01*
X114654762Y-130002438D02*
X114750000Y-129954819D01*
X115511905Y-130954819D02*
X115511905Y-129954819D01*
X115607143Y-130573866D02*
X115892857Y-130954819D01*
X115892857Y-130288152D02*
X115511905Y-130669104D01*
X164676825Y-129181009D02*
X164819682Y-129228628D01*
X164819682Y-129228628D02*
X164867301Y-129276247D01*
X164867301Y-129276247D02*
X164914920Y-129371485D01*
X164914920Y-129371485D02*
X164914920Y-129514342D01*
X164914920Y-129514342D02*
X164867301Y-129609580D01*
X164867301Y-129609580D02*
X164819682Y-129657200D01*
X164819682Y-129657200D02*
X164724444Y-129704819D01*
X164724444Y-129704819D02*
X164343492Y-129704819D01*
X164343492Y-129704819D02*
X164343492Y-128704819D01*
X164343492Y-128704819D02*
X164676825Y-128704819D01*
X164676825Y-128704819D02*
X164772063Y-128752438D01*
X164772063Y-128752438D02*
X164819682Y-128800057D01*
X164819682Y-128800057D02*
X164867301Y-128895295D01*
X164867301Y-128895295D02*
X164867301Y-128990533D01*
X164867301Y-128990533D02*
X164819682Y-129085771D01*
X164819682Y-129085771D02*
X164772063Y-129133390D01*
X164772063Y-129133390D02*
X164676825Y-129181009D01*
X164676825Y-129181009D02*
X164343492Y-129181009D01*
X165200635Y-128704819D02*
X165772063Y-128704819D01*
X165486349Y-129704819D02*
X165486349Y-128704819D01*
X166105397Y-129704819D02*
X166105397Y-128704819D01*
X166105397Y-128704819D02*
X166676825Y-129704819D01*
X166676825Y-129704819D02*
X166676825Y-128704819D01*
X167105397Y-128800057D02*
X167153016Y-128752438D01*
X167153016Y-128752438D02*
X167248254Y-128704819D01*
X167248254Y-128704819D02*
X167486349Y-128704819D01*
X167486349Y-128704819D02*
X167581587Y-128752438D01*
X167581587Y-128752438D02*
X167629206Y-128800057D01*
X167629206Y-128800057D02*
X167676825Y-128895295D01*
X167676825Y-128895295D02*
X167676825Y-128990533D01*
X167676825Y-128990533D02*
X167629206Y-129133390D01*
X167629206Y-129133390D02*
X167057778Y-129704819D01*
X167057778Y-129704819D02*
X167676825Y-129704819D01*
X179792380Y-129704819D02*
X179459047Y-129228628D01*
X179220952Y-129704819D02*
X179220952Y-128704819D01*
X179220952Y-128704819D02*
X179601904Y-128704819D01*
X179601904Y-128704819D02*
X179697142Y-128752438D01*
X179697142Y-128752438D02*
X179744761Y-128800057D01*
X179744761Y-128800057D02*
X179792380Y-128895295D01*
X179792380Y-128895295D02*
X179792380Y-129038152D01*
X179792380Y-129038152D02*
X179744761Y-129133390D01*
X179744761Y-129133390D02*
X179697142Y-129181009D01*
X179697142Y-129181009D02*
X179601904Y-129228628D01*
X179601904Y-129228628D02*
X179220952Y-129228628D01*
X180173333Y-129657200D02*
X180316190Y-129704819D01*
X180316190Y-129704819D02*
X180554285Y-129704819D01*
X180554285Y-129704819D02*
X180649523Y-129657200D01*
X180649523Y-129657200D02*
X180697142Y-129609580D01*
X180697142Y-129609580D02*
X180744761Y-129514342D01*
X180744761Y-129514342D02*
X180744761Y-129419104D01*
X180744761Y-129419104D02*
X180697142Y-129323866D01*
X180697142Y-129323866D02*
X180649523Y-129276247D01*
X180649523Y-129276247D02*
X180554285Y-129228628D01*
X180554285Y-129228628D02*
X180363809Y-129181009D01*
X180363809Y-129181009D02*
X180268571Y-129133390D01*
X180268571Y-129133390D02*
X180220952Y-129085771D01*
X180220952Y-129085771D02*
X180173333Y-128990533D01*
X180173333Y-128990533D02*
X180173333Y-128895295D01*
X180173333Y-128895295D02*
X180220952Y-128800057D01*
X180220952Y-128800057D02*
X180268571Y-128752438D01*
X180268571Y-128752438D02*
X180363809Y-128704819D01*
X180363809Y-128704819D02*
X180601904Y-128704819D01*
X180601904Y-128704819D02*
X180744761Y-128752438D01*
X181030476Y-128704819D02*
X181601904Y-128704819D01*
X181316190Y-129704819D02*
X181316190Y-128704819D01*
D12*
%TO.C,J6*%
X159233400Y-127249999D02*
G75*
G02*
X158471400Y-127249999I-381000J0D01*
G01*
X158471400Y-127249999D02*
G75*
G02*
X159233400Y-127249999I381000J0D01*
G01*
D13*
%TO.C,R25*%
X110272936Y-127265000D02*
X110727064Y-127265000D01*
X110272936Y-128735000D02*
X110727064Y-128735000D01*
%TO.C,R11*%
X138450164Y-119945100D02*
X137996036Y-119945100D01*
X138450164Y-121415100D02*
X137996036Y-121415100D01*
%TO.C,Conn_01x02_Pin3*%
X157321200Y-117280000D02*
X157321200Y-114680000D01*
X157321200Y-119880000D02*
X157321200Y-118550000D01*
X158651200Y-119880000D02*
X157321200Y-119880000D01*
X159981200Y-114680000D02*
X157321200Y-114680000D01*
X159981200Y-117280000D02*
X157321200Y-117280000D01*
X159981200Y-117280000D02*
X159981200Y-114680000D01*
%TO.C,TP19*%
X163200000Y-108000000D02*
G75*
G02*
X161800000Y-108000000I-700000J0D01*
G01*
X161800000Y-108000000D02*
G75*
G02*
X163200000Y-108000000I700000J0D01*
G01*
%TO.C,TP30*%
X135783300Y-102750000D02*
G75*
G02*
X134383300Y-102750000I-700000J0D01*
G01*
X134383300Y-102750000D02*
G75*
G02*
X135783300Y-102750000I700000J0D01*
G01*
%TO.C,R29*%
X168150600Y-124477064D02*
X168150600Y-124022936D01*
X169620600Y-124477064D02*
X169620600Y-124022936D01*
%TO.C,J3*%
X132340000Y-78130000D02*
X132340000Y-76750000D01*
X133720000Y-78130000D02*
X132340000Y-78130000D01*
X134990000Y-75370000D02*
X157960000Y-75370000D01*
X134990000Y-78130000D02*
X134990000Y-75370000D01*
X134990000Y-78130000D02*
X157960000Y-78130000D01*
X157960000Y-78130000D02*
X157960000Y-75370000D01*
%TO.C,Conn_01x02_Pin2*%
X189345000Y-126280000D02*
X189345000Y-124900000D01*
X190725000Y-126280000D02*
X189345000Y-126280000D01*
X191995000Y-123520000D02*
X194645000Y-123520000D01*
X191995000Y-126280000D02*
X191995000Y-123520000D01*
X191995000Y-126280000D02*
X194645000Y-126280000D01*
X194645000Y-126280000D02*
X194645000Y-123520000D01*
%TO.C,R5*%
X159015000Y-125035436D02*
X159015000Y-125489564D01*
X160485000Y-125035436D02*
X160485000Y-125489564D01*
%TO.C,J1*%
X113620000Y-121980000D02*
X113620000Y-121870000D01*
X116380000Y-121870000D02*
X113620000Y-121870000D01*
X116380000Y-121980000D02*
X113620000Y-121980000D01*
X116380000Y-121980000D02*
X116380000Y-121870000D01*
X116380000Y-123250000D02*
X116380000Y-124630000D01*
X116380000Y-124630000D02*
X115000000Y-124630000D01*
%TO.C,BZ1*%
X96450000Y-121200000D02*
X97450000Y-121200000D01*
X96450000Y-122200000D02*
X96450000Y-121200000D01*
X97150000Y-124250000D02*
X97150000Y-128250000D01*
X99500000Y-130600000D02*
X103500000Y-130600000D01*
X103500000Y-121900000D02*
X99500000Y-121900000D01*
X105850000Y-128250000D02*
X105850000Y-124250000D01*
%TO.C,C2*%
X107265000Y-134898752D02*
X107265000Y-134376248D01*
X108735000Y-134898752D02*
X108735000Y-134376248D01*
%TO.C,R15*%
X152601464Y-119945100D02*
X152147336Y-119945100D01*
X152601464Y-121415100D02*
X152147336Y-121415100D01*
D14*
%TO.C,U5*%
X136102200Y-119559000D02*
X140344000Y-119559000D01*
X140344000Y-114301200D02*
X136102200Y-114301200D01*
D13*
%TO.C,D6*%
X178522936Y-121815000D02*
X178977064Y-121815000D01*
X178522936Y-123285000D02*
X178977064Y-123285000D01*
%TO.C,C10*%
X172012200Y-125001248D02*
X172012200Y-125523752D01*
X173482200Y-125001248D02*
X173482200Y-125523752D01*
%TO.C,TP17*%
X158700000Y-108000000D02*
G75*
G02*
X157300000Y-108000000I-700000J0D01*
G01*
X157300000Y-108000000D02*
G75*
G02*
X158700000Y-108000000I700000J0D01*
G01*
%TO.C,L1*%
X120740000Y-121890000D02*
X131760000Y-121890000D01*
X120740000Y-124690000D02*
X120740000Y-121890000D01*
X120740000Y-132110000D02*
X120740000Y-129310000D01*
X131760000Y-121890000D02*
X131760000Y-124690000D01*
X131760000Y-129310000D02*
X131760000Y-132110000D01*
X131760000Y-132110000D02*
X120740000Y-132110000D01*
%TO.C,R27*%
X166457800Y-124477064D02*
X166457800Y-124022936D01*
X167927800Y-124477064D02*
X167927800Y-124022936D01*
%TO.C,U10*%
X111750000Y-132990000D02*
X110950000Y-132990000D01*
X111750000Y-132990000D02*
X112550000Y-132990000D01*
X111750000Y-136110000D02*
X110950000Y-136110000D01*
X111750000Y-136110000D02*
X112550000Y-136110000D01*
X113290000Y-136390000D02*
X112810000Y-136390000D01*
X113050000Y-136060000D01*
X113290000Y-136390000D01*
G36*
X113290000Y-136390000D02*
G01*
X112810000Y-136390000D01*
X113050000Y-136060000D01*
X113290000Y-136390000D01*
G37*
%TO.C,R30*%
X178977064Y-124015000D02*
X178522936Y-124015000D01*
X178977064Y-125485000D02*
X178522936Y-125485000D01*
%TO.C,R19*%
X161765000Y-128822936D02*
X161765000Y-129277064D01*
X163235000Y-128822936D02*
X163235000Y-129277064D01*
%TO.C,R26*%
X169843400Y-124477064D02*
X169843400Y-124022936D01*
X171313400Y-124477064D02*
X171313400Y-124022936D01*
%TO.C,R6*%
X193272936Y-138065000D02*
X193727064Y-138065000D01*
X193272936Y-139535000D02*
X193727064Y-139535000D01*
D15*
%TO.C,SW5*%
X171700000Y-134000000D02*
X171700000Y-140100000D01*
X171700000Y-140100000D02*
X177800000Y-140100000D01*
X177800000Y-134000000D02*
X171700000Y-134000000D01*
X177800000Y-140100000D02*
X177800000Y-134000000D01*
D16*
X177100000Y-130800000D02*
G75*
G02*
X176900000Y-130800000I-100000J0D01*
G01*
X176900000Y-130800000D02*
G75*
G02*
X177100000Y-130800000I100000J0D01*
G01*
D13*
%TO.C,TP11*%
X155950000Y-120750000D02*
G75*
G02*
X154550000Y-120750000I-700000J0D01*
G01*
X154550000Y-120750000D02*
G75*
G02*
X155950000Y-120750000I700000J0D01*
G01*
%TO.C,RV1*%
X90640000Y-70640000D02*
X91770000Y-70640000D01*
X90640000Y-75360000D02*
X90640000Y-70640000D01*
X90970000Y-75360000D02*
X90640000Y-75360000D01*
X93270000Y-75360000D02*
X92730000Y-75360000D01*
X94230000Y-70640000D02*
X95360000Y-70640000D01*
X95360000Y-70640000D02*
X95360000Y-75360000D01*
X95360000Y-75360000D02*
X95030000Y-75360000D01*
%TO.C,J5*%
X137870000Y-127370000D02*
X139250000Y-127370000D01*
X137870000Y-128750000D02*
X137870000Y-127370000D01*
X137870000Y-130020000D02*
X137870000Y-130130000D01*
X137870000Y-130020000D02*
X140630000Y-130020000D01*
X137870000Y-130130000D02*
X140630000Y-130130000D01*
X140630000Y-130020000D02*
X140630000Y-130130000D01*
%TO.C,D4*%
X189227064Y-132265000D02*
X188772936Y-132265000D01*
X189227064Y-133735000D02*
X188772936Y-133735000D01*
%TO.C,R24*%
X192490000Y-128672936D02*
X192490000Y-129127064D01*
X193960000Y-128672936D02*
X193960000Y-129127064D01*
%TO.C,TP27*%
X139200000Y-102750000D02*
G75*
G02*
X137800000Y-102750000I-700000J0D01*
G01*
X137800000Y-102750000D02*
G75*
G02*
X139200000Y-102750000I700000J0D01*
G01*
D15*
%TO.C,SW1*%
X157200000Y-134000000D02*
X157200000Y-140100000D01*
X157200000Y-140100000D02*
X163300000Y-140100000D01*
X163300000Y-134000000D02*
X157200000Y-134000000D01*
X163300000Y-140100000D02*
X163300000Y-134000000D01*
D16*
X162600000Y-130800000D02*
G75*
G02*
X162400000Y-130800000I-100000J0D01*
G01*
X162400000Y-130800000D02*
G75*
G02*
X162600000Y-130800000I100000J0D01*
G01*
D15*
%TO.C,U9*%
X138700000Y-104475000D02*
X134800000Y-104475000D01*
X138700000Y-109525000D02*
X134800000Y-109525000D01*
D16*
X140890000Y-109305000D02*
G75*
G02*
X140690000Y-109305000I-100000J0D01*
G01*
X140690000Y-109305000D02*
G75*
G02*
X140890000Y-109305000I100000J0D01*
G01*
D13*
%TO.C,TP16*%
X112450000Y-124250000D02*
G75*
G02*
X111050000Y-124250000I-700000J0D01*
G01*
X111050000Y-124250000D02*
G75*
G02*
X112450000Y-124250000I700000J0D01*
G01*
%TO.C,J4*%
X137870000Y-130370000D02*
X139250000Y-130370000D01*
X137870000Y-131750000D02*
X137870000Y-130370000D01*
X137870000Y-133020000D02*
X137870000Y-133130000D01*
X137870000Y-133020000D02*
X140630000Y-133020000D01*
X137870000Y-133130000D02*
X140630000Y-133130000D01*
X140630000Y-133020000D02*
X140630000Y-133130000D01*
%TO.C,C3*%
X162765000Y-103723752D02*
X162765000Y-103201248D01*
X164235000Y-103723752D02*
X164235000Y-103201248D01*
%TO.C,TP29*%
X145700000Y-102750000D02*
G75*
G02*
X144300000Y-102750000I-700000J0D01*
G01*
X144300000Y-102750000D02*
G75*
G02*
X145700000Y-102750000I700000J0D01*
G01*
%TO.C,TP26*%
X142616700Y-102750000D02*
G75*
G02*
X141216700Y-102750000I-700000J0D01*
G01*
X141216700Y-102750000D02*
G75*
G02*
X142616700Y-102750000I700000J0D01*
G01*
D15*
%TO.C,U11*%
X147735000Y-106750000D02*
X151265000Y-106750000D01*
X151265000Y-111750000D02*
X147735000Y-111750000D01*
D16*
X145410000Y-106975000D02*
G75*
G02*
X145210000Y-106975000I-100000J0D01*
G01*
X145210000Y-106975000D02*
G75*
G02*
X145410000Y-106975000I100000J0D01*
G01*
D13*
%TO.C,TP10*%
X141950000Y-120750000D02*
G75*
G02*
X140550000Y-120750000I-700000J0D01*
G01*
X140550000Y-120750000D02*
G75*
G02*
X141950000Y-120750000I700000J0D01*
G01*
%TO.C,TP28*%
X128450000Y-104000000D02*
G75*
G02*
X127050000Y-104000000I-700000J0D01*
G01*
X127050000Y-104000000D02*
G75*
G02*
X128450000Y-104000000I700000J0D01*
G01*
%TO.C,U1*%
X136250000Y-123750000D02*
X137250000Y-123750000D01*
X136250000Y-124500000D02*
X136250000Y-123750000D01*
X136250000Y-143310000D02*
X154250000Y-143310000D01*
X136250000Y-149250000D02*
X136250000Y-142500000D01*
X154250000Y-123750000D02*
X153250000Y-123750000D01*
X154250000Y-124500000D02*
X154250000Y-123750000D01*
X154250000Y-149250000D02*
X136250000Y-149250000D01*
X154250000Y-149250000D02*
X154250000Y-142500000D01*
%TO.C,Q1*%
X142937500Y-106740000D02*
X142287500Y-106740000D01*
X142937500Y-106740000D02*
X143587500Y-106740000D01*
X142937500Y-109860000D02*
X142287500Y-109860000D01*
X142937500Y-109860000D02*
X143587500Y-109860000D01*
X141775000Y-106790000D02*
X141535000Y-106460000D01*
X142015000Y-106460000D01*
X141775000Y-106790000D01*
G36*
X141775000Y-106790000D02*
G01*
X141535000Y-106460000D01*
X142015000Y-106460000D01*
X141775000Y-106790000D01*
G37*
D14*
%TO.C,U6*%
X150253500Y-119559000D02*
X154495300Y-119559000D01*
X154495300Y-114301200D02*
X150253500Y-114301200D01*
D13*
%TO.C,R10*%
X176265000Y-128822936D02*
X176265000Y-129277064D01*
X177735000Y-128822936D02*
X177735000Y-129277064D01*
%TO.C,D1*%
X182522936Y-121815000D02*
X182977064Y-121815000D01*
X182522936Y-123285000D02*
X182977064Y-123285000D01*
%TO.C,C8*%
X149238748Y-104265000D02*
X149761252Y-104265000D01*
X149238748Y-105735000D02*
X149761252Y-105735000D01*
%TO.C,D3*%
X189227064Y-138065000D02*
X188772936Y-138065000D01*
X189227064Y-139535000D02*
X188772936Y-139535000D01*
%TO.C,C6*%
X160515000Y-103723752D02*
X160515000Y-103201248D01*
X161985000Y-103723752D02*
X161985000Y-103201248D01*
%TO.C,Conn_01x04_Pin2*%
X127800000Y-110370000D02*
X129130000Y-110370000D01*
X127800000Y-111700000D02*
X127800000Y-110370000D01*
X130400000Y-110370000D02*
X138080000Y-110370000D01*
X130400000Y-113030000D02*
X130400000Y-110370000D01*
X130400000Y-113030000D02*
X138080000Y-113030000D01*
X138080000Y-113030000D02*
X138080000Y-110370000D01*
%TO.C,R22*%
X110272936Y-129765000D02*
X110727064Y-129765000D01*
X110272936Y-131235000D02*
X110727064Y-131235000D01*
%TO.C,Conn_01x04_Pin1*%
X154380000Y-110420000D02*
X154380000Y-113080000D01*
X162060000Y-110420000D02*
X154380000Y-110420000D01*
X162060000Y-110420000D02*
X162060000Y-113080000D01*
X162060000Y-113080000D02*
X154380000Y-113080000D01*
X164660000Y-111750000D02*
X164660000Y-113080000D01*
X164660000Y-113080000D02*
X163330000Y-113080000D01*
D15*
%TO.C,SW2*%
X164450000Y-134000000D02*
X164450000Y-140100000D01*
X164450000Y-140100000D02*
X170550000Y-140100000D01*
X170550000Y-134000000D02*
X164450000Y-134000000D01*
X170550000Y-140100000D02*
X170550000Y-134000000D01*
D16*
X169850000Y-130800000D02*
G75*
G02*
X169650000Y-130800000I-100000J0D01*
G01*
X169650000Y-130800000D02*
G75*
G02*
X169850000Y-130800000I100000J0D01*
G01*
D13*
%TO.C,con1*%
X103215000Y-74040000D02*
X103215000Y-68850000D01*
X109785000Y-68850000D02*
X103215000Y-68850000D01*
X109785000Y-74040000D02*
X103215000Y-74040000D01*
X109785000Y-74040000D02*
X109785000Y-68850000D01*
X109785000Y-76580000D02*
X109785000Y-79230000D01*
X109785000Y-79230000D02*
X106500000Y-79230000D01*
%TO.C,Conn_01x02_Pin1*%
X130616300Y-117320000D02*
X130616300Y-119920000D01*
X130616300Y-117320000D02*
X133276300Y-117320000D01*
X130616300Y-119920000D02*
X133276300Y-119920000D01*
X131946300Y-114720000D02*
X133276300Y-114720000D01*
X133276300Y-114720000D02*
X133276300Y-116050000D01*
X133276300Y-117320000D02*
X133276300Y-119920000D01*
%TO.C,C7*%
X154515000Y-103723752D02*
X154515000Y-103201248D01*
X155985000Y-103723752D02*
X155985000Y-103201248D01*
%TO.C,C4*%
X114515000Y-134898752D02*
X114515000Y-134376248D01*
X115985000Y-134898752D02*
X115985000Y-134376248D01*
%TO.C,Q2*%
X130562500Y-104240000D02*
X129912500Y-104240000D01*
X130562500Y-104240000D02*
X131212500Y-104240000D01*
X130562500Y-107360000D02*
X129912500Y-107360000D01*
X130562500Y-107360000D02*
X131212500Y-107360000D01*
X131965000Y-107640000D02*
X131485000Y-107640000D01*
X131725000Y-107310000D01*
X131965000Y-107640000D01*
G36*
X131965000Y-107640000D02*
G01*
X131485000Y-107640000D01*
X131725000Y-107310000D01*
X131965000Y-107640000D01*
G37*
%TO.C,SW6*%
X107400000Y-138000000D02*
X108600000Y-138000000D01*
X107400000Y-142200000D02*
X107400000Y-138000000D01*
X108600000Y-142200000D02*
X107400000Y-142200000D01*
X116250000Y-142200000D02*
X116600000Y-142200000D01*
X116600000Y-138000000D02*
X115400000Y-138000000D01*
X116600000Y-142200000D02*
X116600000Y-138000000D01*
X115500000Y-142680000D02*
X115500000Y-142200000D01*
X115980000Y-142200000D01*
X115500000Y-142680000D01*
G36*
X115500000Y-142680000D02*
G01*
X115500000Y-142200000D01*
X115980000Y-142200000D01*
X115500000Y-142680000D01*
G37*
%TO.C,J2*%
X137870000Y-138620000D02*
X139250000Y-138620000D01*
X137870000Y-140000000D02*
X137870000Y-138620000D01*
X137870000Y-141270000D02*
X137870000Y-141380000D01*
X137870000Y-141270000D02*
X140630000Y-141270000D01*
X137870000Y-141380000D02*
X140630000Y-141380000D01*
X140630000Y-141270000D02*
X140630000Y-141380000D01*
D15*
%TO.C,U4*%
X156750000Y-102212500D02*
X157260000Y-102212500D01*
X156750000Y-104712500D02*
X157260000Y-104712500D01*
X159240000Y-102212500D02*
X159750000Y-102212500D01*
X159750000Y-104712500D02*
X159240000Y-104712500D01*
D16*
X156350000Y-102662500D02*
G75*
G02*
X156150000Y-102662500I-100000J0D01*
G01*
X156150000Y-102662500D02*
G75*
G02*
X156350000Y-102662500I100000J0D01*
G01*
%TO.C,USB-B-S-X-X-TH1*%
X119950000Y-133150000D02*
X132050000Y-133150000D01*
X119950000Y-136940000D02*
X119950000Y-133150000D01*
X119950000Y-149350000D02*
X119950000Y-140960000D01*
X132050000Y-133150000D02*
X132050000Y-136940000D01*
X132050000Y-140960000D02*
X132050000Y-149350000D01*
X132050000Y-149350000D02*
X119950000Y-149350000D01*
X132850000Y-134250000D02*
G75*
G02*
X132650000Y-134250000I-100000J0D01*
G01*
X132650000Y-134250000D02*
G75*
G02*
X132850000Y-134250000I100000J0D01*
G01*
D13*
%TO.C,C9*%
X173765000Y-125001248D02*
X173765000Y-125523752D01*
X175235000Y-125001248D02*
X175235000Y-125523752D01*
%TO.C,R28*%
X164765000Y-124477064D02*
X164765000Y-124022936D01*
X166235000Y-124477064D02*
X166235000Y-124022936D01*
%TO.C,R23*%
X189490000Y-129127064D02*
X189490000Y-128672936D01*
X190960000Y-129127064D02*
X190960000Y-128672936D01*
%TO.C,R7*%
X157015000Y-125035436D02*
X157015000Y-125489564D01*
X158485000Y-125035436D02*
X158485000Y-125489564D01*
%TO.C,R31*%
X182977064Y-124015000D02*
X182522936Y-124015000D01*
X182977064Y-125485000D02*
X182522936Y-125485000D01*
%TO.C,R12*%
X193272936Y-132265000D02*
X193727064Y-132265000D01*
X193272936Y-133735000D02*
X193727064Y-133735000D01*
%TO.C,D2*%
X189227064Y-141015000D02*
X188772936Y-141015000D01*
X189227064Y-142485000D02*
X188772936Y-142485000D01*
%TO.C,R18*%
X169015000Y-128822936D02*
X169015000Y-129277064D01*
X170485000Y-128822936D02*
X170485000Y-129277064D01*
%TO.C,RV2*%
X194990000Y-70640000D02*
X196120000Y-70640000D01*
X194990000Y-75360000D02*
X194990000Y-70640000D01*
X195320000Y-75360000D02*
X194990000Y-75360000D01*
X197620000Y-75360000D02*
X197080000Y-75360000D01*
X198580000Y-70640000D02*
X199710000Y-70640000D01*
X199710000Y-70640000D02*
X199710000Y-75360000D01*
X199710000Y-75360000D02*
X199380000Y-75360000D01*
%TO.C,R3*%
X130977064Y-108015000D02*
X130522936Y-108015000D01*
X130977064Y-109485000D02*
X130522936Y-109485000D01*
%TO.C,TP25*%
X128450000Y-107250000D02*
G75*
G02*
X127050000Y-107250000I-700000J0D01*
G01*
X127050000Y-107250000D02*
G75*
G02*
X128450000Y-107250000I700000J0D01*
G01*
%TO.C,TP21*%
X156450000Y-108000000D02*
G75*
G02*
X155050000Y-108000000I-700000J0D01*
G01*
X155050000Y-108000000D02*
G75*
G02*
X156450000Y-108000000I700000J0D01*
G01*
%TO.C,R17*%
X193272936Y-135015000D02*
X193727064Y-135015000D01*
X193272936Y-136485000D02*
X193727064Y-136485000D01*
%TO.C,R21*%
X108015000Y-123977064D02*
X108015000Y-123522936D01*
X109485000Y-123977064D02*
X109485000Y-123522936D01*
%TO.C,R20*%
X183515000Y-128822936D02*
X183515000Y-129277064D01*
X184985000Y-128822936D02*
X184985000Y-129277064D01*
%TO.C,R4*%
X193272936Y-141065000D02*
X193727064Y-141065000D01*
X193272936Y-142535000D02*
X193727064Y-142535000D01*
%TO.C,R13*%
X142977064Y-104515000D02*
X142522936Y-104515000D01*
X142977064Y-105985000D02*
X142522936Y-105985000D01*
%TO.C,D5*%
X189227064Y-135015000D02*
X188772936Y-135015000D01*
X189227064Y-136485000D02*
X188772936Y-136485000D01*
D15*
%TO.C,SW3*%
X178950000Y-134000000D02*
X178950000Y-140100000D01*
X178950000Y-140100000D02*
X185050000Y-140100000D01*
X185050000Y-134000000D02*
X178950000Y-134000000D01*
X185050000Y-140100000D02*
X185050000Y-134000000D01*
D16*
X184350000Y-130800000D02*
G75*
G02*
X184150000Y-130800000I-100000J0D01*
G01*
X184150000Y-130800000D02*
G75*
G02*
X184350000Y-130800000I100000J0D01*
G01*
D13*
%TO.C,TP18*%
X160950000Y-108000000D02*
G75*
G02*
X159550000Y-108000000I-700000J0D01*
G01*
X159550000Y-108000000D02*
G75*
G02*
X160950000Y-108000000I700000J0D01*
G01*
%TD*%
M02*
