%TF.GenerationSoftware,KiCad,Pcbnew,9.0.3*%
%TF.CreationDate,2026-04-23T16:24:05-03:00*%
%TF.ProjectId,projeto,70726f6a-6574-46f2-9e6b-696361645f70,rev?*%
%TF.SameCoordinates,Original*%
%TF.FileFunction,Soldermask,Top*%
%TF.FilePolarity,Negative*%
%FSLAX46Y46*%
G04 Gerber Fmt 4.6, Leading zero omitted, Abs format (unit mm)*
G04 Created by KiCad (PCBNEW 9.0.3) date 2026-04-23 16:24:05*
%MOMM*%
%LPD*%
G01*
G04 APERTURE LIST*
G04 Aperture macros list*
%AMRoundRect*
0 Rectangle with rounded corners*
0 $1 Rounding radius*
0 $2 $3 $4 $5 $6 $7 $8 $9 X,Y pos of 4 corners*
0 Add a 4 corners polygon primitive as box body*
4,1,4,$2,$3,$4,$5,$6,$7,$8,$9,$2,$3,0*
0 Add four circle primitives for the rounded corners*
1,1,$1+$1,$2,$3*
1,1,$1+$1,$4,$5*
1,1,$1+$1,$6,$7*
1,1,$1+$1,$8,$9*
0 Add four rect primitives between the rounded corners*
20,1,$1+$1,$2,$3,$4,$5,0*
20,1,$1+$1,$4,$5,$6,$7,0*
20,1,$1+$1,$6,$7,$8,$9,0*
20,1,$1+$1,$8,$9,$2,$3,0*%
G04 Aperture macros list end*
%ADD10C,0.010000*%
%ADD11C,1.447800*%
%ADD12RoundRect,0.250000X-0.350000X-0.450000X0.350000X-0.450000X0.350000X0.450000X-0.350000X0.450000X0*%
%ADD13RoundRect,0.250000X0.350000X0.450000X-0.350000X0.450000X-0.350000X-0.450000X0.350000X-0.450000X0*%
%ADD14R,1.700000X1.700000*%
%ADD15C,1.700000*%
%ADD16C,1.000000*%
%ADD17RoundRect,0.250000X0.450000X-0.350000X0.450000X0.350000X-0.450000X0.350000X-0.450000X-0.350000X0*%
%ADD18RoundRect,0.250000X-0.450000X0.350000X-0.450000X-0.350000X0.450000X-0.350000X0.450000X0.350000X0*%
%ADD19R,2.500000X2.500000*%
%ADD20RoundRect,0.250000X0.475000X-0.337500X0.475000X0.337500X-0.475000X0.337500X-0.475000X-0.337500X0*%
%ADD21RoundRect,0.102000X0.730250X0.279400X-0.730250X0.279400X-0.730250X-0.279400X0.730250X-0.279400X0*%
%ADD22RoundRect,0.102000X1.358900X1.701800X-1.358900X1.701800X-1.358900X-1.701800X1.358900X-1.701800X0*%
%ADD23RoundRect,0.250000X-0.475000X0.337500X-0.475000X-0.337500X0.475000X-0.337500X0.475000X0.337500X0*%
%ADD24RoundRect,0.250002X-1.799998X-1.799998X1.799998X-1.799998X1.799998X1.799998X-1.799998X1.799998X0*%
%ADD25RoundRect,0.150000X0.512500X0.150000X-0.512500X0.150000X-0.512500X-0.150000X0.512500X-0.150000X0*%
%ADD26RoundRect,0.102000X-0.700000X1.050000X-0.700000X-1.050000X0.700000X-1.050000X0.700000X1.050000X0*%
%ADD27RoundRect,0.250000X0.400000X0.400000X-0.400000X0.400000X-0.400000X-0.400000X0.400000X-0.400000X0*%
%ADD28RoundRect,0.250000X0.750000X0.400000X-0.750000X0.400000X-0.750000X-0.400000X0.750000X-0.400000X0*%
%ADD29RoundRect,0.100500X0.986500X0.301500X-0.986500X0.301500X-0.986500X-0.301500X0.986500X-0.301500X0*%
%ADD30RoundRect,0.076750X-0.810250X-0.230250X0.810250X-0.230250X0.810250X0.230250X-0.810250X0.230250X0*%
%ADD31R,1.500000X0.900000*%
%ADD32R,0.900000X1.500000*%
%ADD33R,0.900000X0.900000*%
%ADD34RoundRect,0.150000X-0.587500X-0.150000X0.587500X-0.150000X0.587500X0.150000X-0.587500X0.150000X0*%
%ADD35RoundRect,0.102000X-0.730250X-0.279400X0.730250X-0.279400X0.730250X0.279400X-0.730250X0.279400X0*%
%ADD36RoundRect,0.102000X-1.358900X-1.701800X1.358900X-1.701800X1.358900X1.701800X-1.358900X1.701800X0*%
%ADD37RoundRect,0.250000X-0.337500X-0.475000X0.337500X-0.475000X0.337500X0.475000X-0.337500X0.475000X0*%
%ADD38R,2.800000X2.800000*%
%ADD39C,2.800000*%
%ADD40RoundRect,0.150000X0.587500X0.150000X-0.587500X0.150000X-0.587500X-0.150000X0.587500X-0.150000X0*%
%ADD41RoundRect,0.250000X0.450000X0.450000X-0.450000X0.450000X-0.450000X-0.450000X0.450000X-0.450000X0*%
%ADD42C,1.400000*%
%ADD43RoundRect,0.102000X-0.704000X-0.704000X0.704000X-0.704000X0.704000X0.704000X-0.704000X0.704000X0*%
%ADD44C,1.612000*%
%ADD45C,3.520000*%
G04 APERTURE END LIST*
D10*
%TO.C,U4*%
X157318000Y-102488500D02*
X157325000Y-102489500D01*
X157331000Y-102490500D01*
X157337000Y-102491500D01*
X157344000Y-102493500D01*
X157350000Y-102495500D01*
X157356000Y-102498500D01*
X157362000Y-102501500D01*
X157368000Y-102504500D01*
X157373000Y-102507500D01*
X157378000Y-102511500D01*
X157384000Y-102515500D01*
X157389000Y-102519500D01*
X157393000Y-102524500D01*
X157398000Y-102528500D01*
X157402000Y-102533500D01*
X157406000Y-102539500D01*
X157410000Y-102544500D01*
X157413000Y-102550500D01*
X157416000Y-102555500D01*
X157419000Y-102561500D01*
X157422000Y-102567500D01*
X157424000Y-102573500D01*
X157426000Y-102580500D01*
X157427000Y-102586500D01*
X157428000Y-102592500D01*
X157429000Y-102599500D01*
X157430000Y-102605500D01*
X157430000Y-102612500D01*
X157430000Y-102812500D01*
X157430000Y-102819500D01*
X157429000Y-102825500D01*
X157428000Y-102832500D01*
X157427000Y-102838500D01*
X157426000Y-102844500D01*
X157424000Y-102851500D01*
X157422000Y-102857500D01*
X157419000Y-102863500D01*
X157416000Y-102869500D01*
X157413000Y-102874500D01*
X157410000Y-102880500D01*
X157406000Y-102885500D01*
X157402000Y-102891500D01*
X157398000Y-102896500D01*
X157393000Y-102900500D01*
X157389000Y-102905500D01*
X157384000Y-102909500D01*
X157378000Y-102913500D01*
X157373000Y-102917500D01*
X157368000Y-102920500D01*
X157362000Y-102923500D01*
X157356000Y-102926500D01*
X157350000Y-102929500D01*
X157344000Y-102931500D01*
X157337000Y-102933500D01*
X157331000Y-102934500D01*
X157325000Y-102935500D01*
X157318000Y-102936500D01*
X157312000Y-102937500D01*
X157305000Y-102937500D01*
X156865000Y-102937500D01*
X156858000Y-102937500D01*
X156852000Y-102936500D01*
X156845000Y-102935500D01*
X156839000Y-102934500D01*
X156833000Y-102933500D01*
X156826000Y-102931500D01*
X156820000Y-102929500D01*
X156814000Y-102926500D01*
X156808000Y-102923500D01*
X156802000Y-102920500D01*
X156797000Y-102917500D01*
X156792000Y-102913500D01*
X156786000Y-102909500D01*
X156781000Y-102905500D01*
X156777000Y-102900500D01*
X156772000Y-102896500D01*
X156768000Y-102891500D01*
X156764000Y-102885500D01*
X156760000Y-102880500D01*
X156757000Y-102874500D01*
X156754000Y-102869500D01*
X156751000Y-102863500D01*
X156748000Y-102857500D01*
X156746000Y-102851500D01*
X156744000Y-102844500D01*
X156743000Y-102838500D01*
X156742000Y-102832500D01*
X156741000Y-102825500D01*
X156740000Y-102819500D01*
X156740000Y-102812500D01*
X156740000Y-102612500D01*
X156740000Y-102605500D01*
X156741000Y-102599500D01*
X156742000Y-102592500D01*
X156743000Y-102586500D01*
X156744000Y-102580500D01*
X156746000Y-102573500D01*
X156748000Y-102567500D01*
X156751000Y-102561500D01*
X156754000Y-102555500D01*
X156757000Y-102550500D01*
X156760000Y-102544500D01*
X156764000Y-102539500D01*
X156768000Y-102533500D01*
X156772000Y-102528500D01*
X156777000Y-102524500D01*
X156781000Y-102519500D01*
X156786000Y-102515500D01*
X156792000Y-102511500D01*
X156797000Y-102507500D01*
X156802000Y-102504500D01*
X156808000Y-102501500D01*
X156814000Y-102498500D01*
X156820000Y-102495500D01*
X156826000Y-102493500D01*
X156833000Y-102491500D01*
X156839000Y-102490500D01*
X156845000Y-102489500D01*
X156852000Y-102488500D01*
X156858000Y-102487500D01*
X156865000Y-102487500D01*
X157305000Y-102487500D01*
X157312000Y-102487500D01*
X157318000Y-102488500D01*
G36*
X157318000Y-102488500D02*
G01*
X157325000Y-102489500D01*
X157331000Y-102490500D01*
X157337000Y-102491500D01*
X157344000Y-102493500D01*
X157350000Y-102495500D01*
X157356000Y-102498500D01*
X157362000Y-102501500D01*
X157368000Y-102504500D01*
X157373000Y-102507500D01*
X157378000Y-102511500D01*
X157384000Y-102515500D01*
X157389000Y-102519500D01*
X157393000Y-102524500D01*
X157398000Y-102528500D01*
X157402000Y-102533500D01*
X157406000Y-102539500D01*
X157410000Y-102544500D01*
X157413000Y-102550500D01*
X157416000Y-102555500D01*
X157419000Y-102561500D01*
X157422000Y-102567500D01*
X157424000Y-102573500D01*
X157426000Y-102580500D01*
X157427000Y-102586500D01*
X157428000Y-102592500D01*
X157429000Y-102599500D01*
X157430000Y-102605500D01*
X157430000Y-102612500D01*
X157430000Y-102812500D01*
X157430000Y-102819500D01*
X157429000Y-102825500D01*
X157428000Y-102832500D01*
X157427000Y-102838500D01*
X157426000Y-102844500D01*
X157424000Y-102851500D01*
X157422000Y-102857500D01*
X157419000Y-102863500D01*
X157416000Y-102869500D01*
X157413000Y-102874500D01*
X157410000Y-102880500D01*
X157406000Y-102885500D01*
X157402000Y-102891500D01*
X157398000Y-102896500D01*
X157393000Y-102900500D01*
X157389000Y-102905500D01*
X157384000Y-102909500D01*
X157378000Y-102913500D01*
X157373000Y-102917500D01*
X157368000Y-102920500D01*
X157362000Y-102923500D01*
X157356000Y-102926500D01*
X157350000Y-102929500D01*
X157344000Y-102931500D01*
X157337000Y-102933500D01*
X157331000Y-102934500D01*
X157325000Y-102935500D01*
X157318000Y-102936500D01*
X157312000Y-102937500D01*
X157305000Y-102937500D01*
X156865000Y-102937500D01*
X156858000Y-102937500D01*
X156852000Y-102936500D01*
X156845000Y-102935500D01*
X156839000Y-102934500D01*
X156833000Y-102933500D01*
X156826000Y-102931500D01*
X156820000Y-102929500D01*
X156814000Y-102926500D01*
X156808000Y-102923500D01*
X156802000Y-102920500D01*
X156797000Y-102917500D01*
X156792000Y-102913500D01*
X156786000Y-102909500D01*
X156781000Y-102905500D01*
X156777000Y-102900500D01*
X156772000Y-102896500D01*
X156768000Y-102891500D01*
X156764000Y-102885500D01*
X156760000Y-102880500D01*
X156757000Y-102874500D01*
X156754000Y-102869500D01*
X156751000Y-102863500D01*
X156748000Y-102857500D01*
X156746000Y-102851500D01*
X156744000Y-102844500D01*
X156743000Y-102838500D01*
X156742000Y-102832500D01*
X156741000Y-102825500D01*
X156740000Y-102819500D01*
X156740000Y-102812500D01*
X156740000Y-102612500D01*
X156740000Y-102605500D01*
X156741000Y-102599500D01*
X156742000Y-102592500D01*
X156743000Y-102586500D01*
X156744000Y-102580500D01*
X156746000Y-102573500D01*
X156748000Y-102567500D01*
X156751000Y-102561500D01*
X156754000Y-102555500D01*
X156757000Y-102550500D01*
X156760000Y-102544500D01*
X156764000Y-102539500D01*
X156768000Y-102533500D01*
X156772000Y-102528500D01*
X156777000Y-102524500D01*
X156781000Y-102519500D01*
X156786000Y-102515500D01*
X156792000Y-102511500D01*
X156797000Y-102507500D01*
X156802000Y-102504500D01*
X156808000Y-102501500D01*
X156814000Y-102498500D01*
X156820000Y-102495500D01*
X156826000Y-102493500D01*
X156833000Y-102491500D01*
X156839000Y-102490500D01*
X156845000Y-102489500D01*
X156852000Y-102488500D01*
X156858000Y-102487500D01*
X156865000Y-102487500D01*
X157305000Y-102487500D01*
X157312000Y-102487500D01*
X157318000Y-102488500D01*
G37*
X157318000Y-102988500D02*
X157325000Y-102989500D01*
X157331000Y-102990500D01*
X157337000Y-102991500D01*
X157344000Y-102993500D01*
X157350000Y-102995500D01*
X157356000Y-102998500D01*
X157362000Y-103001500D01*
X157368000Y-103004500D01*
X157373000Y-103007500D01*
X157378000Y-103011500D01*
X157384000Y-103015500D01*
X157389000Y-103019500D01*
X157393000Y-103024500D01*
X157398000Y-103028500D01*
X157402000Y-103033500D01*
X157406000Y-103039500D01*
X157410000Y-103044500D01*
X157413000Y-103050500D01*
X157416000Y-103055500D01*
X157419000Y-103061500D01*
X157422000Y-103067500D01*
X157424000Y-103073500D01*
X157426000Y-103080500D01*
X157427000Y-103086500D01*
X157428000Y-103092500D01*
X157429000Y-103099500D01*
X157430000Y-103105500D01*
X157430000Y-103112500D01*
X157430000Y-103312500D01*
X157430000Y-103319500D01*
X157429000Y-103325500D01*
X157428000Y-103332500D01*
X157427000Y-103338500D01*
X157426000Y-103344500D01*
X157424000Y-103351500D01*
X157422000Y-103357500D01*
X157419000Y-103363500D01*
X157416000Y-103369500D01*
X157413000Y-103374500D01*
X157410000Y-103380500D01*
X157406000Y-103385500D01*
X157402000Y-103391500D01*
X157398000Y-103396500D01*
X157393000Y-103400500D01*
X157389000Y-103405500D01*
X157384000Y-103409500D01*
X157378000Y-103413500D01*
X157373000Y-103417500D01*
X157368000Y-103420500D01*
X157362000Y-103423500D01*
X157356000Y-103426500D01*
X157350000Y-103429500D01*
X157344000Y-103431500D01*
X157337000Y-103433500D01*
X157331000Y-103434500D01*
X157325000Y-103435500D01*
X157318000Y-103436500D01*
X157312000Y-103437500D01*
X157305000Y-103437500D01*
X156865000Y-103437500D01*
X156858000Y-103437500D01*
X156852000Y-103436500D01*
X156845000Y-103435500D01*
X156839000Y-103434500D01*
X156833000Y-103433500D01*
X156826000Y-103431500D01*
X156820000Y-103429500D01*
X156814000Y-103426500D01*
X156808000Y-103423500D01*
X156802000Y-103420500D01*
X156797000Y-103417500D01*
X156792000Y-103413500D01*
X156786000Y-103409500D01*
X156781000Y-103405500D01*
X156777000Y-103400500D01*
X156772000Y-103396500D01*
X156768000Y-103391500D01*
X156764000Y-103385500D01*
X156760000Y-103380500D01*
X156757000Y-103374500D01*
X156754000Y-103369500D01*
X156751000Y-103363500D01*
X156748000Y-103357500D01*
X156746000Y-103351500D01*
X156744000Y-103344500D01*
X156743000Y-103338500D01*
X156742000Y-103332500D01*
X156741000Y-103325500D01*
X156740000Y-103319500D01*
X156740000Y-103312500D01*
X156740000Y-103112500D01*
X156740000Y-103105500D01*
X156741000Y-103099500D01*
X156742000Y-103092500D01*
X156743000Y-103086500D01*
X156744000Y-103080500D01*
X156746000Y-103073500D01*
X156748000Y-103067500D01*
X156751000Y-103061500D01*
X156754000Y-103055500D01*
X156757000Y-103050500D01*
X156760000Y-103044500D01*
X156764000Y-103039500D01*
X156768000Y-103033500D01*
X156772000Y-103028500D01*
X156777000Y-103024500D01*
X156781000Y-103019500D01*
X156786000Y-103015500D01*
X156792000Y-103011500D01*
X156797000Y-103007500D01*
X156802000Y-103004500D01*
X156808000Y-103001500D01*
X156814000Y-102998500D01*
X156820000Y-102995500D01*
X156826000Y-102993500D01*
X156833000Y-102991500D01*
X156839000Y-102990500D01*
X156845000Y-102989500D01*
X156852000Y-102988500D01*
X156858000Y-102987500D01*
X156865000Y-102987500D01*
X157305000Y-102987500D01*
X157312000Y-102987500D01*
X157318000Y-102988500D01*
G36*
X157318000Y-102988500D02*
G01*
X157325000Y-102989500D01*
X157331000Y-102990500D01*
X157337000Y-102991500D01*
X157344000Y-102993500D01*
X157350000Y-102995500D01*
X157356000Y-102998500D01*
X157362000Y-103001500D01*
X157368000Y-103004500D01*
X157373000Y-103007500D01*
X157378000Y-103011500D01*
X157384000Y-103015500D01*
X157389000Y-103019500D01*
X157393000Y-103024500D01*
X157398000Y-103028500D01*
X157402000Y-103033500D01*
X157406000Y-103039500D01*
X157410000Y-103044500D01*
X157413000Y-103050500D01*
X157416000Y-103055500D01*
X157419000Y-103061500D01*
X157422000Y-103067500D01*
X157424000Y-103073500D01*
X157426000Y-103080500D01*
X157427000Y-103086500D01*
X157428000Y-103092500D01*
X157429000Y-103099500D01*
X157430000Y-103105500D01*
X157430000Y-103112500D01*
X157430000Y-103312500D01*
X157430000Y-103319500D01*
X157429000Y-103325500D01*
X157428000Y-103332500D01*
X157427000Y-103338500D01*
X157426000Y-103344500D01*
X157424000Y-103351500D01*
X157422000Y-103357500D01*
X157419000Y-103363500D01*
X157416000Y-103369500D01*
X157413000Y-103374500D01*
X157410000Y-103380500D01*
X157406000Y-103385500D01*
X157402000Y-103391500D01*
X157398000Y-103396500D01*
X157393000Y-103400500D01*
X157389000Y-103405500D01*
X157384000Y-103409500D01*
X157378000Y-103413500D01*
X157373000Y-103417500D01*
X157368000Y-103420500D01*
X157362000Y-103423500D01*
X157356000Y-103426500D01*
X157350000Y-103429500D01*
X157344000Y-103431500D01*
X157337000Y-103433500D01*
X157331000Y-103434500D01*
X157325000Y-103435500D01*
X157318000Y-103436500D01*
X157312000Y-103437500D01*
X157305000Y-103437500D01*
X156865000Y-103437500D01*
X156858000Y-103437500D01*
X156852000Y-103436500D01*
X156845000Y-103435500D01*
X156839000Y-103434500D01*
X156833000Y-103433500D01*
X156826000Y-103431500D01*
X156820000Y-103429500D01*
X156814000Y-103426500D01*
X156808000Y-103423500D01*
X156802000Y-103420500D01*
X156797000Y-103417500D01*
X156792000Y-103413500D01*
X156786000Y-103409500D01*
X156781000Y-103405500D01*
X156777000Y-103400500D01*
X156772000Y-103396500D01*
X156768000Y-103391500D01*
X156764000Y-103385500D01*
X156760000Y-103380500D01*
X156757000Y-103374500D01*
X156754000Y-103369500D01*
X156751000Y-103363500D01*
X156748000Y-103357500D01*
X156746000Y-103351500D01*
X156744000Y-103344500D01*
X156743000Y-103338500D01*
X156742000Y-103332500D01*
X156741000Y-103325500D01*
X156740000Y-103319500D01*
X156740000Y-103312500D01*
X156740000Y-103112500D01*
X156740000Y-103105500D01*
X156741000Y-103099500D01*
X156742000Y-103092500D01*
X156743000Y-103086500D01*
X156744000Y-103080500D01*
X156746000Y-103073500D01*
X156748000Y-103067500D01*
X156751000Y-103061500D01*
X156754000Y-103055500D01*
X156757000Y-103050500D01*
X156760000Y-103044500D01*
X156764000Y-103039500D01*
X156768000Y-103033500D01*
X156772000Y-103028500D01*
X156777000Y-103024500D01*
X156781000Y-103019500D01*
X156786000Y-103015500D01*
X156792000Y-103011500D01*
X156797000Y-103007500D01*
X156802000Y-103004500D01*
X156808000Y-103001500D01*
X156814000Y-102998500D01*
X156820000Y-102995500D01*
X156826000Y-102993500D01*
X156833000Y-102991500D01*
X156839000Y-102990500D01*
X156845000Y-102989500D01*
X156852000Y-102988500D01*
X156858000Y-102987500D01*
X156865000Y-102987500D01*
X157305000Y-102987500D01*
X157312000Y-102987500D01*
X157318000Y-102988500D01*
G37*
X157318000Y-103488500D02*
X157325000Y-103489500D01*
X157331000Y-103490500D01*
X157337000Y-103491500D01*
X157344000Y-103493500D01*
X157350000Y-103495500D01*
X157356000Y-103498500D01*
X157362000Y-103501500D01*
X157368000Y-103504500D01*
X157373000Y-103507500D01*
X157378000Y-103511500D01*
X157384000Y-103515500D01*
X157389000Y-103519500D01*
X157393000Y-103524500D01*
X157398000Y-103528500D01*
X157402000Y-103533500D01*
X157406000Y-103539500D01*
X157410000Y-103544500D01*
X157413000Y-103550500D01*
X157416000Y-103555500D01*
X157419000Y-103561500D01*
X157422000Y-103567500D01*
X157424000Y-103573500D01*
X157426000Y-103580500D01*
X157427000Y-103586500D01*
X157428000Y-103592500D01*
X157429000Y-103599500D01*
X157430000Y-103605500D01*
X157430000Y-103612500D01*
X157430000Y-103812500D01*
X157430000Y-103819500D01*
X157429000Y-103825500D01*
X157428000Y-103832500D01*
X157427000Y-103838500D01*
X157426000Y-103844500D01*
X157424000Y-103851500D01*
X157422000Y-103857500D01*
X157419000Y-103863500D01*
X157416000Y-103869500D01*
X157413000Y-103874500D01*
X157410000Y-103880500D01*
X157406000Y-103885500D01*
X157402000Y-103891500D01*
X157398000Y-103896500D01*
X157393000Y-103900500D01*
X157389000Y-103905500D01*
X157384000Y-103909500D01*
X157378000Y-103913500D01*
X157373000Y-103917500D01*
X157368000Y-103920500D01*
X157362000Y-103923500D01*
X157356000Y-103926500D01*
X157350000Y-103929500D01*
X157344000Y-103931500D01*
X157337000Y-103933500D01*
X157331000Y-103934500D01*
X157325000Y-103935500D01*
X157318000Y-103936500D01*
X157312000Y-103937500D01*
X157305000Y-103937500D01*
X156865000Y-103937500D01*
X156858000Y-103937500D01*
X156852000Y-103936500D01*
X156845000Y-103935500D01*
X156839000Y-103934500D01*
X156833000Y-103933500D01*
X156826000Y-103931500D01*
X156820000Y-103929500D01*
X156814000Y-103926500D01*
X156808000Y-103923500D01*
X156802000Y-103920500D01*
X156797000Y-103917500D01*
X156792000Y-103913500D01*
X156786000Y-103909500D01*
X156781000Y-103905500D01*
X156777000Y-103900500D01*
X156772000Y-103896500D01*
X156768000Y-103891500D01*
X156764000Y-103885500D01*
X156760000Y-103880500D01*
X156757000Y-103874500D01*
X156754000Y-103869500D01*
X156751000Y-103863500D01*
X156748000Y-103857500D01*
X156746000Y-103851500D01*
X156744000Y-103844500D01*
X156743000Y-103838500D01*
X156742000Y-103832500D01*
X156741000Y-103825500D01*
X156740000Y-103819500D01*
X156740000Y-103812500D01*
X156740000Y-103612500D01*
X156740000Y-103605500D01*
X156741000Y-103599500D01*
X156742000Y-103592500D01*
X156743000Y-103586500D01*
X156744000Y-103580500D01*
X156746000Y-103573500D01*
X156748000Y-103567500D01*
X156751000Y-103561500D01*
X156754000Y-103555500D01*
X156757000Y-103550500D01*
X156760000Y-103544500D01*
X156764000Y-103539500D01*
X156768000Y-103533500D01*
X156772000Y-103528500D01*
X156777000Y-103524500D01*
X156781000Y-103519500D01*
X156786000Y-103515500D01*
X156792000Y-103511500D01*
X156797000Y-103507500D01*
X156802000Y-103504500D01*
X156808000Y-103501500D01*
X156814000Y-103498500D01*
X156820000Y-103495500D01*
X156826000Y-103493500D01*
X156833000Y-103491500D01*
X156839000Y-103490500D01*
X156845000Y-103489500D01*
X156852000Y-103488500D01*
X156858000Y-103487500D01*
X156865000Y-103487500D01*
X157305000Y-103487500D01*
X157312000Y-103487500D01*
X157318000Y-103488500D01*
G36*
X157318000Y-103488500D02*
G01*
X157325000Y-103489500D01*
X157331000Y-103490500D01*
X157337000Y-103491500D01*
X157344000Y-103493500D01*
X157350000Y-103495500D01*
X157356000Y-103498500D01*
X157362000Y-103501500D01*
X157368000Y-103504500D01*
X157373000Y-103507500D01*
X157378000Y-103511500D01*
X157384000Y-103515500D01*
X157389000Y-103519500D01*
X157393000Y-103524500D01*
X157398000Y-103528500D01*
X157402000Y-103533500D01*
X157406000Y-103539500D01*
X157410000Y-103544500D01*
X157413000Y-103550500D01*
X157416000Y-103555500D01*
X157419000Y-103561500D01*
X157422000Y-103567500D01*
X157424000Y-103573500D01*
X157426000Y-103580500D01*
X157427000Y-103586500D01*
X157428000Y-103592500D01*
X157429000Y-103599500D01*
X157430000Y-103605500D01*
X157430000Y-103612500D01*
X157430000Y-103812500D01*
X157430000Y-103819500D01*
X157429000Y-103825500D01*
X157428000Y-103832500D01*
X157427000Y-103838500D01*
X157426000Y-103844500D01*
X157424000Y-103851500D01*
X157422000Y-103857500D01*
X157419000Y-103863500D01*
X157416000Y-103869500D01*
X157413000Y-103874500D01*
X157410000Y-103880500D01*
X157406000Y-103885500D01*
X157402000Y-103891500D01*
X157398000Y-103896500D01*
X157393000Y-103900500D01*
X157389000Y-103905500D01*
X157384000Y-103909500D01*
X157378000Y-103913500D01*
X157373000Y-103917500D01*
X157368000Y-103920500D01*
X157362000Y-103923500D01*
X157356000Y-103926500D01*
X157350000Y-103929500D01*
X157344000Y-103931500D01*
X157337000Y-103933500D01*
X157331000Y-103934500D01*
X157325000Y-103935500D01*
X157318000Y-103936500D01*
X157312000Y-103937500D01*
X157305000Y-103937500D01*
X156865000Y-103937500D01*
X156858000Y-103937500D01*
X156852000Y-103936500D01*
X156845000Y-103935500D01*
X156839000Y-103934500D01*
X156833000Y-103933500D01*
X156826000Y-103931500D01*
X156820000Y-103929500D01*
X156814000Y-103926500D01*
X156808000Y-103923500D01*
X156802000Y-103920500D01*
X156797000Y-103917500D01*
X156792000Y-103913500D01*
X156786000Y-103909500D01*
X156781000Y-103905500D01*
X156777000Y-103900500D01*
X156772000Y-103896500D01*
X156768000Y-103891500D01*
X156764000Y-103885500D01*
X156760000Y-103880500D01*
X156757000Y-103874500D01*
X156754000Y-103869500D01*
X156751000Y-103863500D01*
X156748000Y-103857500D01*
X156746000Y-103851500D01*
X156744000Y-103844500D01*
X156743000Y-103838500D01*
X156742000Y-103832500D01*
X156741000Y-103825500D01*
X156740000Y-103819500D01*
X156740000Y-103812500D01*
X156740000Y-103612500D01*
X156740000Y-103605500D01*
X156741000Y-103599500D01*
X156742000Y-103592500D01*
X156743000Y-103586500D01*
X156744000Y-103580500D01*
X156746000Y-103573500D01*
X156748000Y-103567500D01*
X156751000Y-103561500D01*
X156754000Y-103555500D01*
X156757000Y-103550500D01*
X156760000Y-103544500D01*
X156764000Y-103539500D01*
X156768000Y-103533500D01*
X156772000Y-103528500D01*
X156777000Y-103524500D01*
X156781000Y-103519500D01*
X156786000Y-103515500D01*
X156792000Y-103511500D01*
X156797000Y-103507500D01*
X156802000Y-103504500D01*
X156808000Y-103501500D01*
X156814000Y-103498500D01*
X156820000Y-103495500D01*
X156826000Y-103493500D01*
X156833000Y-103491500D01*
X156839000Y-103490500D01*
X156845000Y-103489500D01*
X156852000Y-103488500D01*
X156858000Y-103487500D01*
X156865000Y-103487500D01*
X157305000Y-103487500D01*
X157312000Y-103487500D01*
X157318000Y-103488500D01*
G37*
X157318000Y-103988500D02*
X157325000Y-103989500D01*
X157331000Y-103990500D01*
X157337000Y-103991500D01*
X157344000Y-103993500D01*
X157350000Y-103995500D01*
X157356000Y-103998500D01*
X157362000Y-104001500D01*
X157368000Y-104004500D01*
X157373000Y-104007500D01*
X157378000Y-104011500D01*
X157384000Y-104015500D01*
X157389000Y-104019500D01*
X157393000Y-104024500D01*
X157398000Y-104028500D01*
X157402000Y-104033500D01*
X157406000Y-104039500D01*
X157410000Y-104044500D01*
X157413000Y-104050500D01*
X157416000Y-104055500D01*
X157419000Y-104061500D01*
X157422000Y-104067500D01*
X157424000Y-104073500D01*
X157426000Y-104080500D01*
X157427000Y-104086500D01*
X157428000Y-104092500D01*
X157429000Y-104099500D01*
X157430000Y-104105500D01*
X157430000Y-104112500D01*
X157430000Y-104312500D01*
X157430000Y-104319500D01*
X157429000Y-104325500D01*
X157428000Y-104332500D01*
X157427000Y-104338500D01*
X157426000Y-104344500D01*
X157424000Y-104351500D01*
X157422000Y-104357500D01*
X157419000Y-104363500D01*
X157416000Y-104369500D01*
X157413000Y-104374500D01*
X157410000Y-104380500D01*
X157406000Y-104385500D01*
X157402000Y-104391500D01*
X157398000Y-104396500D01*
X157393000Y-104400500D01*
X157389000Y-104405500D01*
X157384000Y-104409500D01*
X157378000Y-104413500D01*
X157373000Y-104417500D01*
X157368000Y-104420500D01*
X157362000Y-104423500D01*
X157356000Y-104426500D01*
X157350000Y-104429500D01*
X157344000Y-104431500D01*
X157337000Y-104433500D01*
X157331000Y-104434500D01*
X157325000Y-104435500D01*
X157318000Y-104436500D01*
X157312000Y-104437500D01*
X157305000Y-104437500D01*
X156865000Y-104437500D01*
X156858000Y-104437500D01*
X156852000Y-104436500D01*
X156845000Y-104435500D01*
X156839000Y-104434500D01*
X156833000Y-104433500D01*
X156826000Y-104431500D01*
X156820000Y-104429500D01*
X156814000Y-104426500D01*
X156808000Y-104423500D01*
X156802000Y-104420500D01*
X156797000Y-104417500D01*
X156792000Y-104413500D01*
X156786000Y-104409500D01*
X156781000Y-104405500D01*
X156777000Y-104400500D01*
X156772000Y-104396500D01*
X156768000Y-104391500D01*
X156764000Y-104385500D01*
X156760000Y-104380500D01*
X156757000Y-104374500D01*
X156754000Y-104369500D01*
X156751000Y-104363500D01*
X156748000Y-104357500D01*
X156746000Y-104351500D01*
X156744000Y-104344500D01*
X156743000Y-104338500D01*
X156742000Y-104332500D01*
X156741000Y-104325500D01*
X156740000Y-104319500D01*
X156740000Y-104312500D01*
X156740000Y-104112500D01*
X156740000Y-104105500D01*
X156741000Y-104099500D01*
X156742000Y-104092500D01*
X156743000Y-104086500D01*
X156744000Y-104080500D01*
X156746000Y-104073500D01*
X156748000Y-104067500D01*
X156751000Y-104061500D01*
X156754000Y-104055500D01*
X156757000Y-104050500D01*
X156760000Y-104044500D01*
X156764000Y-104039500D01*
X156768000Y-104033500D01*
X156772000Y-104028500D01*
X156777000Y-104024500D01*
X156781000Y-104019500D01*
X156786000Y-104015500D01*
X156792000Y-104011500D01*
X156797000Y-104007500D01*
X156802000Y-104004500D01*
X156808000Y-104001500D01*
X156814000Y-103998500D01*
X156820000Y-103995500D01*
X156826000Y-103993500D01*
X156833000Y-103991500D01*
X156839000Y-103990500D01*
X156845000Y-103989500D01*
X156852000Y-103988500D01*
X156858000Y-103987500D01*
X156865000Y-103987500D01*
X157305000Y-103987500D01*
X157312000Y-103987500D01*
X157318000Y-103988500D01*
G36*
X157318000Y-103988500D02*
G01*
X157325000Y-103989500D01*
X157331000Y-103990500D01*
X157337000Y-103991500D01*
X157344000Y-103993500D01*
X157350000Y-103995500D01*
X157356000Y-103998500D01*
X157362000Y-104001500D01*
X157368000Y-104004500D01*
X157373000Y-104007500D01*
X157378000Y-104011500D01*
X157384000Y-104015500D01*
X157389000Y-104019500D01*
X157393000Y-104024500D01*
X157398000Y-104028500D01*
X157402000Y-104033500D01*
X157406000Y-104039500D01*
X157410000Y-104044500D01*
X157413000Y-104050500D01*
X157416000Y-104055500D01*
X157419000Y-104061500D01*
X157422000Y-104067500D01*
X157424000Y-104073500D01*
X157426000Y-104080500D01*
X157427000Y-104086500D01*
X157428000Y-104092500D01*
X157429000Y-104099500D01*
X157430000Y-104105500D01*
X157430000Y-104112500D01*
X157430000Y-104312500D01*
X157430000Y-104319500D01*
X157429000Y-104325500D01*
X157428000Y-104332500D01*
X157427000Y-104338500D01*
X157426000Y-104344500D01*
X157424000Y-104351500D01*
X157422000Y-104357500D01*
X157419000Y-104363500D01*
X157416000Y-104369500D01*
X157413000Y-104374500D01*
X157410000Y-104380500D01*
X157406000Y-104385500D01*
X157402000Y-104391500D01*
X157398000Y-104396500D01*
X157393000Y-104400500D01*
X157389000Y-104405500D01*
X157384000Y-104409500D01*
X157378000Y-104413500D01*
X157373000Y-104417500D01*
X157368000Y-104420500D01*
X157362000Y-104423500D01*
X157356000Y-104426500D01*
X157350000Y-104429500D01*
X157344000Y-104431500D01*
X157337000Y-104433500D01*
X157331000Y-104434500D01*
X157325000Y-104435500D01*
X157318000Y-104436500D01*
X157312000Y-104437500D01*
X157305000Y-104437500D01*
X156865000Y-104437500D01*
X156858000Y-104437500D01*
X156852000Y-104436500D01*
X156845000Y-104435500D01*
X156839000Y-104434500D01*
X156833000Y-104433500D01*
X156826000Y-104431500D01*
X156820000Y-104429500D01*
X156814000Y-104426500D01*
X156808000Y-104423500D01*
X156802000Y-104420500D01*
X156797000Y-104417500D01*
X156792000Y-104413500D01*
X156786000Y-104409500D01*
X156781000Y-104405500D01*
X156777000Y-104400500D01*
X156772000Y-104396500D01*
X156768000Y-104391500D01*
X156764000Y-104385500D01*
X156760000Y-104380500D01*
X156757000Y-104374500D01*
X156754000Y-104369500D01*
X156751000Y-104363500D01*
X156748000Y-104357500D01*
X156746000Y-104351500D01*
X156744000Y-104344500D01*
X156743000Y-104338500D01*
X156742000Y-104332500D01*
X156741000Y-104325500D01*
X156740000Y-104319500D01*
X156740000Y-104312500D01*
X156740000Y-104112500D01*
X156740000Y-104105500D01*
X156741000Y-104099500D01*
X156742000Y-104092500D01*
X156743000Y-104086500D01*
X156744000Y-104080500D01*
X156746000Y-104073500D01*
X156748000Y-104067500D01*
X156751000Y-104061500D01*
X156754000Y-104055500D01*
X156757000Y-104050500D01*
X156760000Y-104044500D01*
X156764000Y-104039500D01*
X156768000Y-104033500D01*
X156772000Y-104028500D01*
X156777000Y-104024500D01*
X156781000Y-104019500D01*
X156786000Y-104015500D01*
X156792000Y-104011500D01*
X156797000Y-104007500D01*
X156802000Y-104004500D01*
X156808000Y-104001500D01*
X156814000Y-103998500D01*
X156820000Y-103995500D01*
X156826000Y-103993500D01*
X156833000Y-103991500D01*
X156839000Y-103990500D01*
X156845000Y-103989500D01*
X156852000Y-103988500D01*
X156858000Y-103987500D01*
X156865000Y-103987500D01*
X157305000Y-103987500D01*
X157312000Y-103987500D01*
X157318000Y-103988500D01*
G37*
X157863000Y-102203500D02*
X157870000Y-102204500D01*
X157876000Y-102205500D01*
X157882000Y-102206500D01*
X157889000Y-102208500D01*
X157895000Y-102210500D01*
X157901000Y-102213500D01*
X157907000Y-102216500D01*
X157912000Y-102219500D01*
X157918000Y-102222500D01*
X157923000Y-102226500D01*
X157929000Y-102230500D01*
X157934000Y-102234500D01*
X157938000Y-102239500D01*
X157943000Y-102243500D01*
X157947000Y-102248500D01*
X157951000Y-102254500D01*
X157955000Y-102259500D01*
X157958000Y-102264500D01*
X157961000Y-102270500D01*
X157964000Y-102276500D01*
X157967000Y-102282500D01*
X157969000Y-102288500D01*
X157971000Y-102295500D01*
X157972000Y-102301500D01*
X157973000Y-102307500D01*
X157974000Y-102314500D01*
X157975000Y-102320500D01*
X157975000Y-102327500D01*
X157975000Y-102767500D01*
X157975000Y-102774500D01*
X157974000Y-102780500D01*
X157973000Y-102787500D01*
X157972000Y-102793500D01*
X157971000Y-102799500D01*
X157969000Y-102806500D01*
X157967000Y-102812500D01*
X157964000Y-102818500D01*
X157961000Y-102824500D01*
X157958000Y-102830500D01*
X157955000Y-102835500D01*
X157951000Y-102840500D01*
X157947000Y-102846500D01*
X157943000Y-102851500D01*
X157938000Y-102855500D01*
X157934000Y-102860500D01*
X157929000Y-102864500D01*
X157923000Y-102868500D01*
X157918000Y-102872500D01*
X157912000Y-102875500D01*
X157907000Y-102878500D01*
X157901000Y-102881500D01*
X157895000Y-102884500D01*
X157889000Y-102886500D01*
X157882000Y-102888500D01*
X157876000Y-102889500D01*
X157870000Y-102890500D01*
X157863000Y-102891500D01*
X157857000Y-102892500D01*
X157850000Y-102892500D01*
X157650000Y-102892500D01*
X157643000Y-102892500D01*
X157637000Y-102891500D01*
X157630000Y-102890500D01*
X157624000Y-102889500D01*
X157618000Y-102888500D01*
X157611000Y-102886500D01*
X157605000Y-102884500D01*
X157599000Y-102881500D01*
X157593000Y-102878500D01*
X157587000Y-102875500D01*
X157582000Y-102872500D01*
X157577000Y-102868500D01*
X157571000Y-102864500D01*
X157566000Y-102860500D01*
X157562000Y-102855500D01*
X157557000Y-102851500D01*
X157553000Y-102846500D01*
X157549000Y-102840500D01*
X157545000Y-102835500D01*
X157542000Y-102830500D01*
X157539000Y-102824500D01*
X157536000Y-102818500D01*
X157533000Y-102812500D01*
X157531000Y-102806500D01*
X157529000Y-102799500D01*
X157528000Y-102793500D01*
X157527000Y-102787500D01*
X157526000Y-102780500D01*
X157525000Y-102774500D01*
X157525000Y-102767500D01*
X157525000Y-102327500D01*
X157525000Y-102320500D01*
X157526000Y-102314500D01*
X157527000Y-102307500D01*
X157528000Y-102301500D01*
X157529000Y-102295500D01*
X157531000Y-102288500D01*
X157533000Y-102282500D01*
X157536000Y-102276500D01*
X157539000Y-102270500D01*
X157542000Y-102264500D01*
X157545000Y-102259500D01*
X157549000Y-102254500D01*
X157553000Y-102248500D01*
X157557000Y-102243500D01*
X157562000Y-102239500D01*
X157566000Y-102234500D01*
X157571000Y-102230500D01*
X157577000Y-102226500D01*
X157582000Y-102222500D01*
X157588000Y-102219500D01*
X157593000Y-102216500D01*
X157599000Y-102213500D01*
X157605000Y-102210500D01*
X157611000Y-102208500D01*
X157618000Y-102206500D01*
X157624000Y-102205500D01*
X157630000Y-102204500D01*
X157637000Y-102203500D01*
X157643000Y-102202500D01*
X157650000Y-102202500D01*
X157850000Y-102202500D01*
X157857000Y-102202500D01*
X157863000Y-102203500D01*
G36*
X157863000Y-102203500D02*
G01*
X157870000Y-102204500D01*
X157876000Y-102205500D01*
X157882000Y-102206500D01*
X157889000Y-102208500D01*
X157895000Y-102210500D01*
X157901000Y-102213500D01*
X157907000Y-102216500D01*
X157912000Y-102219500D01*
X157918000Y-102222500D01*
X157923000Y-102226500D01*
X157929000Y-102230500D01*
X157934000Y-102234500D01*
X157938000Y-102239500D01*
X157943000Y-102243500D01*
X157947000Y-102248500D01*
X157951000Y-102254500D01*
X157955000Y-102259500D01*
X157958000Y-102264500D01*
X157961000Y-102270500D01*
X157964000Y-102276500D01*
X157967000Y-102282500D01*
X157969000Y-102288500D01*
X157971000Y-102295500D01*
X157972000Y-102301500D01*
X157973000Y-102307500D01*
X157974000Y-102314500D01*
X157975000Y-102320500D01*
X157975000Y-102327500D01*
X157975000Y-102767500D01*
X157975000Y-102774500D01*
X157974000Y-102780500D01*
X157973000Y-102787500D01*
X157972000Y-102793500D01*
X157971000Y-102799500D01*
X157969000Y-102806500D01*
X157967000Y-102812500D01*
X157964000Y-102818500D01*
X157961000Y-102824500D01*
X157958000Y-102830500D01*
X157955000Y-102835500D01*
X157951000Y-102840500D01*
X157947000Y-102846500D01*
X157943000Y-102851500D01*
X157938000Y-102855500D01*
X157934000Y-102860500D01*
X157929000Y-102864500D01*
X157923000Y-102868500D01*
X157918000Y-102872500D01*
X157912000Y-102875500D01*
X157907000Y-102878500D01*
X157901000Y-102881500D01*
X157895000Y-102884500D01*
X157889000Y-102886500D01*
X157882000Y-102888500D01*
X157876000Y-102889500D01*
X157870000Y-102890500D01*
X157863000Y-102891500D01*
X157857000Y-102892500D01*
X157850000Y-102892500D01*
X157650000Y-102892500D01*
X157643000Y-102892500D01*
X157637000Y-102891500D01*
X157630000Y-102890500D01*
X157624000Y-102889500D01*
X157618000Y-102888500D01*
X157611000Y-102886500D01*
X157605000Y-102884500D01*
X157599000Y-102881500D01*
X157593000Y-102878500D01*
X157587000Y-102875500D01*
X157582000Y-102872500D01*
X157577000Y-102868500D01*
X157571000Y-102864500D01*
X157566000Y-102860500D01*
X157562000Y-102855500D01*
X157557000Y-102851500D01*
X157553000Y-102846500D01*
X157549000Y-102840500D01*
X157545000Y-102835500D01*
X157542000Y-102830500D01*
X157539000Y-102824500D01*
X157536000Y-102818500D01*
X157533000Y-102812500D01*
X157531000Y-102806500D01*
X157529000Y-102799500D01*
X157528000Y-102793500D01*
X157527000Y-102787500D01*
X157526000Y-102780500D01*
X157525000Y-102774500D01*
X157525000Y-102767500D01*
X157525000Y-102327500D01*
X157525000Y-102320500D01*
X157526000Y-102314500D01*
X157527000Y-102307500D01*
X157528000Y-102301500D01*
X157529000Y-102295500D01*
X157531000Y-102288500D01*
X157533000Y-102282500D01*
X157536000Y-102276500D01*
X157539000Y-102270500D01*
X157542000Y-102264500D01*
X157545000Y-102259500D01*
X157549000Y-102254500D01*
X157553000Y-102248500D01*
X157557000Y-102243500D01*
X157562000Y-102239500D01*
X157566000Y-102234500D01*
X157571000Y-102230500D01*
X157577000Y-102226500D01*
X157582000Y-102222500D01*
X157588000Y-102219500D01*
X157593000Y-102216500D01*
X157599000Y-102213500D01*
X157605000Y-102210500D01*
X157611000Y-102208500D01*
X157618000Y-102206500D01*
X157624000Y-102205500D01*
X157630000Y-102204500D01*
X157637000Y-102203500D01*
X157643000Y-102202500D01*
X157650000Y-102202500D01*
X157850000Y-102202500D01*
X157857000Y-102202500D01*
X157863000Y-102203500D01*
G37*
X157863000Y-104033500D02*
X157870000Y-104034500D01*
X157876000Y-104035500D01*
X157882000Y-104036500D01*
X157889000Y-104038500D01*
X157895000Y-104040500D01*
X157901000Y-104043500D01*
X157907000Y-104046500D01*
X157912000Y-104049500D01*
X157918000Y-104052500D01*
X157923000Y-104056500D01*
X157929000Y-104060500D01*
X157934000Y-104064500D01*
X157938000Y-104069500D01*
X157943000Y-104073500D01*
X157947000Y-104078500D01*
X157951000Y-104084500D01*
X157955000Y-104089500D01*
X157958000Y-104094500D01*
X157961000Y-104100500D01*
X157964000Y-104106500D01*
X157967000Y-104112500D01*
X157969000Y-104118500D01*
X157971000Y-104125500D01*
X157972000Y-104131500D01*
X157973000Y-104137500D01*
X157974000Y-104144500D01*
X157975000Y-104150500D01*
X157975000Y-104157500D01*
X157975000Y-104597500D01*
X157975000Y-104604500D01*
X157974000Y-104610500D01*
X157973000Y-104617500D01*
X157972000Y-104623500D01*
X157971000Y-104629500D01*
X157969000Y-104636500D01*
X157967000Y-104642500D01*
X157964000Y-104648500D01*
X157961000Y-104654500D01*
X157958000Y-104660500D01*
X157955000Y-104665500D01*
X157951000Y-104670500D01*
X157947000Y-104676500D01*
X157943000Y-104681500D01*
X157938000Y-104685500D01*
X157934000Y-104690500D01*
X157929000Y-104694500D01*
X157923000Y-104698500D01*
X157918000Y-104702500D01*
X157912000Y-104705500D01*
X157907000Y-104708500D01*
X157901000Y-104711500D01*
X157895000Y-104714500D01*
X157889000Y-104716500D01*
X157882000Y-104718500D01*
X157876000Y-104719500D01*
X157870000Y-104720500D01*
X157863000Y-104721500D01*
X157857000Y-104722500D01*
X157850000Y-104722500D01*
X157650000Y-104722500D01*
X157643000Y-104722500D01*
X157637000Y-104721500D01*
X157630000Y-104720500D01*
X157624000Y-104719500D01*
X157618000Y-104718500D01*
X157611000Y-104716500D01*
X157605000Y-104714500D01*
X157599000Y-104711500D01*
X157593000Y-104708500D01*
X157587000Y-104705500D01*
X157582000Y-104702500D01*
X157577000Y-104698500D01*
X157571000Y-104694500D01*
X157566000Y-104690500D01*
X157562000Y-104685500D01*
X157557000Y-104681500D01*
X157553000Y-104676500D01*
X157549000Y-104670500D01*
X157545000Y-104665500D01*
X157542000Y-104660500D01*
X157539000Y-104654500D01*
X157536000Y-104648500D01*
X157533000Y-104642500D01*
X157531000Y-104636500D01*
X157529000Y-104629500D01*
X157528000Y-104623500D01*
X157527000Y-104617500D01*
X157526000Y-104610500D01*
X157525000Y-104604500D01*
X157525000Y-104597500D01*
X157525000Y-104157500D01*
X157525000Y-104150500D01*
X157526000Y-104144500D01*
X157527000Y-104137500D01*
X157528000Y-104131500D01*
X157529000Y-104125500D01*
X157531000Y-104118500D01*
X157533000Y-104112500D01*
X157536000Y-104106500D01*
X157539000Y-104100500D01*
X157542000Y-104094500D01*
X157545000Y-104089500D01*
X157549000Y-104084500D01*
X157553000Y-104078500D01*
X157557000Y-104073500D01*
X157562000Y-104069500D01*
X157566000Y-104064500D01*
X157571000Y-104060500D01*
X157577000Y-104056500D01*
X157582000Y-104052500D01*
X157588000Y-104049500D01*
X157593000Y-104046500D01*
X157599000Y-104043500D01*
X157605000Y-104040500D01*
X157611000Y-104038500D01*
X157618000Y-104036500D01*
X157624000Y-104035500D01*
X157630000Y-104034500D01*
X157637000Y-104033500D01*
X157643000Y-104032500D01*
X157650000Y-104032500D01*
X157850000Y-104032500D01*
X157857000Y-104032500D01*
X157863000Y-104033500D01*
G36*
X157863000Y-104033500D02*
G01*
X157870000Y-104034500D01*
X157876000Y-104035500D01*
X157882000Y-104036500D01*
X157889000Y-104038500D01*
X157895000Y-104040500D01*
X157901000Y-104043500D01*
X157907000Y-104046500D01*
X157912000Y-104049500D01*
X157918000Y-104052500D01*
X157923000Y-104056500D01*
X157929000Y-104060500D01*
X157934000Y-104064500D01*
X157938000Y-104069500D01*
X157943000Y-104073500D01*
X157947000Y-104078500D01*
X157951000Y-104084500D01*
X157955000Y-104089500D01*
X157958000Y-104094500D01*
X157961000Y-104100500D01*
X157964000Y-104106500D01*
X157967000Y-104112500D01*
X157969000Y-104118500D01*
X157971000Y-104125500D01*
X157972000Y-104131500D01*
X157973000Y-104137500D01*
X157974000Y-104144500D01*
X157975000Y-104150500D01*
X157975000Y-104157500D01*
X157975000Y-104597500D01*
X157975000Y-104604500D01*
X157974000Y-104610500D01*
X157973000Y-104617500D01*
X157972000Y-104623500D01*
X157971000Y-104629500D01*
X157969000Y-104636500D01*
X157967000Y-104642500D01*
X157964000Y-104648500D01*
X157961000Y-104654500D01*
X157958000Y-104660500D01*
X157955000Y-104665500D01*
X157951000Y-104670500D01*
X157947000Y-104676500D01*
X157943000Y-104681500D01*
X157938000Y-104685500D01*
X157934000Y-104690500D01*
X157929000Y-104694500D01*
X157923000Y-104698500D01*
X157918000Y-104702500D01*
X157912000Y-104705500D01*
X157907000Y-104708500D01*
X157901000Y-104711500D01*
X157895000Y-104714500D01*
X157889000Y-104716500D01*
X157882000Y-104718500D01*
X157876000Y-104719500D01*
X157870000Y-104720500D01*
X157863000Y-104721500D01*
X157857000Y-104722500D01*
X157850000Y-104722500D01*
X157650000Y-104722500D01*
X157643000Y-104722500D01*
X157637000Y-104721500D01*
X157630000Y-104720500D01*
X157624000Y-104719500D01*
X157618000Y-104718500D01*
X157611000Y-104716500D01*
X157605000Y-104714500D01*
X157599000Y-104711500D01*
X157593000Y-104708500D01*
X157587000Y-104705500D01*
X157582000Y-104702500D01*
X157577000Y-104698500D01*
X157571000Y-104694500D01*
X157566000Y-104690500D01*
X157562000Y-104685500D01*
X157557000Y-104681500D01*
X157553000Y-104676500D01*
X157549000Y-104670500D01*
X157545000Y-104665500D01*
X157542000Y-104660500D01*
X157539000Y-104654500D01*
X157536000Y-104648500D01*
X157533000Y-104642500D01*
X157531000Y-104636500D01*
X157529000Y-104629500D01*
X157528000Y-104623500D01*
X157527000Y-104617500D01*
X157526000Y-104610500D01*
X157525000Y-104604500D01*
X157525000Y-104597500D01*
X157525000Y-104157500D01*
X157525000Y-104150500D01*
X157526000Y-104144500D01*
X157527000Y-104137500D01*
X157528000Y-104131500D01*
X157529000Y-104125500D01*
X157531000Y-104118500D01*
X157533000Y-104112500D01*
X157536000Y-104106500D01*
X157539000Y-104100500D01*
X157542000Y-104094500D01*
X157545000Y-104089500D01*
X157549000Y-104084500D01*
X157553000Y-104078500D01*
X157557000Y-104073500D01*
X157562000Y-104069500D01*
X157566000Y-104064500D01*
X157571000Y-104060500D01*
X157577000Y-104056500D01*
X157582000Y-104052500D01*
X157588000Y-104049500D01*
X157593000Y-104046500D01*
X157599000Y-104043500D01*
X157605000Y-104040500D01*
X157611000Y-104038500D01*
X157618000Y-104036500D01*
X157624000Y-104035500D01*
X157630000Y-104034500D01*
X157637000Y-104033500D01*
X157643000Y-104032500D01*
X157650000Y-104032500D01*
X157850000Y-104032500D01*
X157857000Y-104032500D01*
X157863000Y-104033500D01*
G37*
X158363000Y-102203500D02*
X158370000Y-102204500D01*
X158376000Y-102205500D01*
X158382000Y-102206500D01*
X158389000Y-102208500D01*
X158395000Y-102210500D01*
X158401000Y-102213500D01*
X158407000Y-102216500D01*
X158413000Y-102219500D01*
X158418000Y-102222500D01*
X158423000Y-102226500D01*
X158429000Y-102230500D01*
X158434000Y-102234500D01*
X158438000Y-102239500D01*
X158443000Y-102243500D01*
X158447000Y-102248500D01*
X158451000Y-102254500D01*
X158455000Y-102259500D01*
X158458000Y-102264500D01*
X158461000Y-102270500D01*
X158464000Y-102276500D01*
X158467000Y-102282500D01*
X158469000Y-102288500D01*
X158471000Y-102295500D01*
X158472000Y-102301500D01*
X158473000Y-102307500D01*
X158474000Y-102314500D01*
X158475000Y-102320500D01*
X158475000Y-102327500D01*
X158475000Y-102767500D01*
X158475000Y-102774500D01*
X158474000Y-102780500D01*
X158473000Y-102787500D01*
X158472000Y-102793500D01*
X158471000Y-102799500D01*
X158469000Y-102806500D01*
X158467000Y-102812500D01*
X158464000Y-102818500D01*
X158461000Y-102824500D01*
X158458000Y-102830500D01*
X158455000Y-102835500D01*
X158451000Y-102840500D01*
X158447000Y-102846500D01*
X158443000Y-102851500D01*
X158438000Y-102855500D01*
X158434000Y-102860500D01*
X158429000Y-102864500D01*
X158423000Y-102868500D01*
X158418000Y-102872500D01*
X158413000Y-102875500D01*
X158407000Y-102878500D01*
X158401000Y-102881500D01*
X158395000Y-102884500D01*
X158389000Y-102886500D01*
X158382000Y-102888500D01*
X158376000Y-102889500D01*
X158370000Y-102890500D01*
X158363000Y-102891500D01*
X158357000Y-102892500D01*
X158350000Y-102892500D01*
X158150000Y-102892500D01*
X158143000Y-102892500D01*
X158137000Y-102891500D01*
X158130000Y-102890500D01*
X158124000Y-102889500D01*
X158118000Y-102888500D01*
X158111000Y-102886500D01*
X158105000Y-102884500D01*
X158099000Y-102881500D01*
X158093000Y-102878500D01*
X158087000Y-102875500D01*
X158082000Y-102872500D01*
X158077000Y-102868500D01*
X158071000Y-102864500D01*
X158066000Y-102860500D01*
X158062000Y-102855500D01*
X158057000Y-102851500D01*
X158053000Y-102846500D01*
X158049000Y-102840500D01*
X158045000Y-102835500D01*
X158042000Y-102830500D01*
X158039000Y-102824500D01*
X158036000Y-102818500D01*
X158033000Y-102812500D01*
X158031000Y-102806500D01*
X158029000Y-102799500D01*
X158028000Y-102793500D01*
X158027000Y-102787500D01*
X158026000Y-102780500D01*
X158025000Y-102774500D01*
X158025000Y-102767500D01*
X158025000Y-102327500D01*
X158025000Y-102320500D01*
X158026000Y-102314500D01*
X158027000Y-102307500D01*
X158028000Y-102301500D01*
X158029000Y-102295500D01*
X158031000Y-102288500D01*
X158033000Y-102282500D01*
X158036000Y-102276500D01*
X158039000Y-102270500D01*
X158042000Y-102264500D01*
X158045000Y-102259500D01*
X158049000Y-102254500D01*
X158053000Y-102248500D01*
X158057000Y-102243500D01*
X158062000Y-102239500D01*
X158066000Y-102234500D01*
X158071000Y-102230500D01*
X158077000Y-102226500D01*
X158082000Y-102222500D01*
X158088000Y-102219500D01*
X158093000Y-102216500D01*
X158099000Y-102213500D01*
X158105000Y-102210500D01*
X158111000Y-102208500D01*
X158118000Y-102206500D01*
X158124000Y-102205500D01*
X158130000Y-102204500D01*
X158137000Y-102203500D01*
X158143000Y-102202500D01*
X158150000Y-102202500D01*
X158350000Y-102202500D01*
X158357000Y-102202500D01*
X158363000Y-102203500D01*
G36*
X158363000Y-102203500D02*
G01*
X158370000Y-102204500D01*
X158376000Y-102205500D01*
X158382000Y-102206500D01*
X158389000Y-102208500D01*
X158395000Y-102210500D01*
X158401000Y-102213500D01*
X158407000Y-102216500D01*
X158413000Y-102219500D01*
X158418000Y-102222500D01*
X158423000Y-102226500D01*
X158429000Y-102230500D01*
X158434000Y-102234500D01*
X158438000Y-102239500D01*
X158443000Y-102243500D01*
X158447000Y-102248500D01*
X158451000Y-102254500D01*
X158455000Y-102259500D01*
X158458000Y-102264500D01*
X158461000Y-102270500D01*
X158464000Y-102276500D01*
X158467000Y-102282500D01*
X158469000Y-102288500D01*
X158471000Y-102295500D01*
X158472000Y-102301500D01*
X158473000Y-102307500D01*
X158474000Y-102314500D01*
X158475000Y-102320500D01*
X158475000Y-102327500D01*
X158475000Y-102767500D01*
X158475000Y-102774500D01*
X158474000Y-102780500D01*
X158473000Y-102787500D01*
X158472000Y-102793500D01*
X158471000Y-102799500D01*
X158469000Y-102806500D01*
X158467000Y-102812500D01*
X158464000Y-102818500D01*
X158461000Y-102824500D01*
X158458000Y-102830500D01*
X158455000Y-102835500D01*
X158451000Y-102840500D01*
X158447000Y-102846500D01*
X158443000Y-102851500D01*
X158438000Y-102855500D01*
X158434000Y-102860500D01*
X158429000Y-102864500D01*
X158423000Y-102868500D01*
X158418000Y-102872500D01*
X158413000Y-102875500D01*
X158407000Y-102878500D01*
X158401000Y-102881500D01*
X158395000Y-102884500D01*
X158389000Y-102886500D01*
X158382000Y-102888500D01*
X158376000Y-102889500D01*
X158370000Y-102890500D01*
X158363000Y-102891500D01*
X158357000Y-102892500D01*
X158350000Y-102892500D01*
X158150000Y-102892500D01*
X158143000Y-102892500D01*
X158137000Y-102891500D01*
X158130000Y-102890500D01*
X158124000Y-102889500D01*
X158118000Y-102888500D01*
X158111000Y-102886500D01*
X158105000Y-102884500D01*
X158099000Y-102881500D01*
X158093000Y-102878500D01*
X158087000Y-102875500D01*
X158082000Y-102872500D01*
X158077000Y-102868500D01*
X158071000Y-102864500D01*
X158066000Y-102860500D01*
X158062000Y-102855500D01*
X158057000Y-102851500D01*
X158053000Y-102846500D01*
X158049000Y-102840500D01*
X158045000Y-102835500D01*
X158042000Y-102830500D01*
X158039000Y-102824500D01*
X158036000Y-102818500D01*
X158033000Y-102812500D01*
X158031000Y-102806500D01*
X158029000Y-102799500D01*
X158028000Y-102793500D01*
X158027000Y-102787500D01*
X158026000Y-102780500D01*
X158025000Y-102774500D01*
X158025000Y-102767500D01*
X158025000Y-102327500D01*
X158025000Y-102320500D01*
X158026000Y-102314500D01*
X158027000Y-102307500D01*
X158028000Y-102301500D01*
X158029000Y-102295500D01*
X158031000Y-102288500D01*
X158033000Y-102282500D01*
X158036000Y-102276500D01*
X158039000Y-102270500D01*
X158042000Y-102264500D01*
X158045000Y-102259500D01*
X158049000Y-102254500D01*
X158053000Y-102248500D01*
X158057000Y-102243500D01*
X158062000Y-102239500D01*
X158066000Y-102234500D01*
X158071000Y-102230500D01*
X158077000Y-102226500D01*
X158082000Y-102222500D01*
X158088000Y-102219500D01*
X158093000Y-102216500D01*
X158099000Y-102213500D01*
X158105000Y-102210500D01*
X158111000Y-102208500D01*
X158118000Y-102206500D01*
X158124000Y-102205500D01*
X158130000Y-102204500D01*
X158137000Y-102203500D01*
X158143000Y-102202500D01*
X158150000Y-102202500D01*
X158350000Y-102202500D01*
X158357000Y-102202500D01*
X158363000Y-102203500D01*
G37*
X158363000Y-104033500D02*
X158370000Y-104034500D01*
X158376000Y-104035500D01*
X158382000Y-104036500D01*
X158389000Y-104038500D01*
X158395000Y-104040500D01*
X158401000Y-104043500D01*
X158407000Y-104046500D01*
X158413000Y-104049500D01*
X158418000Y-104052500D01*
X158423000Y-104056500D01*
X158429000Y-104060500D01*
X158434000Y-104064500D01*
X158438000Y-104069500D01*
X158443000Y-104073500D01*
X158447000Y-104078500D01*
X158451000Y-104084500D01*
X158455000Y-104089500D01*
X158458000Y-104094500D01*
X158461000Y-104100500D01*
X158464000Y-104106500D01*
X158467000Y-104112500D01*
X158469000Y-104118500D01*
X158471000Y-104125500D01*
X158472000Y-104131500D01*
X158473000Y-104137500D01*
X158474000Y-104144500D01*
X158475000Y-104150500D01*
X158475000Y-104157500D01*
X158475000Y-104597500D01*
X158475000Y-104604500D01*
X158474000Y-104610500D01*
X158473000Y-104617500D01*
X158472000Y-104623500D01*
X158471000Y-104629500D01*
X158469000Y-104636500D01*
X158467000Y-104642500D01*
X158464000Y-104648500D01*
X158461000Y-104654500D01*
X158458000Y-104660500D01*
X158455000Y-104665500D01*
X158451000Y-104670500D01*
X158447000Y-104676500D01*
X158443000Y-104681500D01*
X158438000Y-104685500D01*
X158434000Y-104690500D01*
X158429000Y-104694500D01*
X158423000Y-104698500D01*
X158418000Y-104702500D01*
X158413000Y-104705500D01*
X158407000Y-104708500D01*
X158401000Y-104711500D01*
X158395000Y-104714500D01*
X158389000Y-104716500D01*
X158382000Y-104718500D01*
X158376000Y-104719500D01*
X158370000Y-104720500D01*
X158363000Y-104721500D01*
X158357000Y-104722500D01*
X158350000Y-104722500D01*
X158150000Y-104722500D01*
X158143000Y-104722500D01*
X158137000Y-104721500D01*
X158130000Y-104720500D01*
X158124000Y-104719500D01*
X158118000Y-104718500D01*
X158111000Y-104716500D01*
X158105000Y-104714500D01*
X158099000Y-104711500D01*
X158093000Y-104708500D01*
X158087000Y-104705500D01*
X158082000Y-104702500D01*
X158077000Y-104698500D01*
X158071000Y-104694500D01*
X158066000Y-104690500D01*
X158062000Y-104685500D01*
X158057000Y-104681500D01*
X158053000Y-104676500D01*
X158049000Y-104670500D01*
X158045000Y-104665500D01*
X158042000Y-104660500D01*
X158039000Y-104654500D01*
X158036000Y-104648500D01*
X158033000Y-104642500D01*
X158031000Y-104636500D01*
X158029000Y-104629500D01*
X158028000Y-104623500D01*
X158027000Y-104617500D01*
X158026000Y-104610500D01*
X158025000Y-104604500D01*
X158025000Y-104597500D01*
X158025000Y-104157500D01*
X158025000Y-104150500D01*
X158026000Y-104144500D01*
X158027000Y-104137500D01*
X158028000Y-104131500D01*
X158029000Y-104125500D01*
X158031000Y-104118500D01*
X158033000Y-104112500D01*
X158036000Y-104106500D01*
X158039000Y-104100500D01*
X158042000Y-104094500D01*
X158045000Y-104089500D01*
X158049000Y-104084500D01*
X158053000Y-104078500D01*
X158057000Y-104073500D01*
X158062000Y-104069500D01*
X158066000Y-104064500D01*
X158071000Y-104060500D01*
X158077000Y-104056500D01*
X158082000Y-104052500D01*
X158088000Y-104049500D01*
X158093000Y-104046500D01*
X158099000Y-104043500D01*
X158105000Y-104040500D01*
X158111000Y-104038500D01*
X158118000Y-104036500D01*
X158124000Y-104035500D01*
X158130000Y-104034500D01*
X158137000Y-104033500D01*
X158143000Y-104032500D01*
X158150000Y-104032500D01*
X158350000Y-104032500D01*
X158357000Y-104032500D01*
X158363000Y-104033500D01*
G36*
X158363000Y-104033500D02*
G01*
X158370000Y-104034500D01*
X158376000Y-104035500D01*
X158382000Y-104036500D01*
X158389000Y-104038500D01*
X158395000Y-104040500D01*
X158401000Y-104043500D01*
X158407000Y-104046500D01*
X158413000Y-104049500D01*
X158418000Y-104052500D01*
X158423000Y-104056500D01*
X158429000Y-104060500D01*
X158434000Y-104064500D01*
X158438000Y-104069500D01*
X158443000Y-104073500D01*
X158447000Y-104078500D01*
X158451000Y-104084500D01*
X158455000Y-104089500D01*
X158458000Y-104094500D01*
X158461000Y-104100500D01*
X158464000Y-104106500D01*
X158467000Y-104112500D01*
X158469000Y-104118500D01*
X158471000Y-104125500D01*
X158472000Y-104131500D01*
X158473000Y-104137500D01*
X158474000Y-104144500D01*
X158475000Y-104150500D01*
X158475000Y-104157500D01*
X158475000Y-104597500D01*
X158475000Y-104604500D01*
X158474000Y-104610500D01*
X158473000Y-104617500D01*
X158472000Y-104623500D01*
X158471000Y-104629500D01*
X158469000Y-104636500D01*
X158467000Y-104642500D01*
X158464000Y-104648500D01*
X158461000Y-104654500D01*
X158458000Y-104660500D01*
X158455000Y-104665500D01*
X158451000Y-104670500D01*
X158447000Y-104676500D01*
X158443000Y-104681500D01*
X158438000Y-104685500D01*
X158434000Y-104690500D01*
X158429000Y-104694500D01*
X158423000Y-104698500D01*
X158418000Y-104702500D01*
X158413000Y-104705500D01*
X158407000Y-104708500D01*
X158401000Y-104711500D01*
X158395000Y-104714500D01*
X158389000Y-104716500D01*
X158382000Y-104718500D01*
X158376000Y-104719500D01*
X158370000Y-104720500D01*
X158363000Y-104721500D01*
X158357000Y-104722500D01*
X158350000Y-104722500D01*
X158150000Y-104722500D01*
X158143000Y-104722500D01*
X158137000Y-104721500D01*
X158130000Y-104720500D01*
X158124000Y-104719500D01*
X158118000Y-104718500D01*
X158111000Y-104716500D01*
X158105000Y-104714500D01*
X158099000Y-104711500D01*
X158093000Y-104708500D01*
X158087000Y-104705500D01*
X158082000Y-104702500D01*
X158077000Y-104698500D01*
X158071000Y-104694500D01*
X158066000Y-104690500D01*
X158062000Y-104685500D01*
X158057000Y-104681500D01*
X158053000Y-104676500D01*
X158049000Y-104670500D01*
X158045000Y-104665500D01*
X158042000Y-104660500D01*
X158039000Y-104654500D01*
X158036000Y-104648500D01*
X158033000Y-104642500D01*
X158031000Y-104636500D01*
X158029000Y-104629500D01*
X158028000Y-104623500D01*
X158027000Y-104617500D01*
X158026000Y-104610500D01*
X158025000Y-104604500D01*
X158025000Y-104597500D01*
X158025000Y-104157500D01*
X158025000Y-104150500D01*
X158026000Y-104144500D01*
X158027000Y-104137500D01*
X158028000Y-104131500D01*
X158029000Y-104125500D01*
X158031000Y-104118500D01*
X158033000Y-104112500D01*
X158036000Y-104106500D01*
X158039000Y-104100500D01*
X158042000Y-104094500D01*
X158045000Y-104089500D01*
X158049000Y-104084500D01*
X158053000Y-104078500D01*
X158057000Y-104073500D01*
X158062000Y-104069500D01*
X158066000Y-104064500D01*
X158071000Y-104060500D01*
X158077000Y-104056500D01*
X158082000Y-104052500D01*
X158088000Y-104049500D01*
X158093000Y-104046500D01*
X158099000Y-104043500D01*
X158105000Y-104040500D01*
X158111000Y-104038500D01*
X158118000Y-104036500D01*
X158124000Y-104035500D01*
X158130000Y-104034500D01*
X158137000Y-104033500D01*
X158143000Y-104032500D01*
X158150000Y-104032500D01*
X158350000Y-104032500D01*
X158357000Y-104032500D01*
X158363000Y-104033500D01*
G37*
X158863000Y-102203500D02*
X158870000Y-102204500D01*
X158876000Y-102205500D01*
X158882000Y-102206500D01*
X158889000Y-102208500D01*
X158895000Y-102210500D01*
X158901000Y-102213500D01*
X158907000Y-102216500D01*
X158912000Y-102219500D01*
X158918000Y-102222500D01*
X158923000Y-102226500D01*
X158929000Y-102230500D01*
X158934000Y-102234500D01*
X158938000Y-102239500D01*
X158943000Y-102243500D01*
X158947000Y-102248500D01*
X158951000Y-102254500D01*
X158955000Y-102259500D01*
X158958000Y-102264500D01*
X158961000Y-102270500D01*
X158964000Y-102276500D01*
X158967000Y-102282500D01*
X158969000Y-102288500D01*
X158971000Y-102295500D01*
X158972000Y-102301500D01*
X158973000Y-102307500D01*
X158974000Y-102314500D01*
X158975000Y-102320500D01*
X158975000Y-102327500D01*
X158975000Y-102767500D01*
X158975000Y-102774500D01*
X158974000Y-102780500D01*
X158973000Y-102787500D01*
X158972000Y-102793500D01*
X158971000Y-102799500D01*
X158969000Y-102806500D01*
X158967000Y-102812500D01*
X158964000Y-102818500D01*
X158961000Y-102824500D01*
X158958000Y-102830500D01*
X158955000Y-102835500D01*
X158951000Y-102840500D01*
X158947000Y-102846500D01*
X158943000Y-102851500D01*
X158938000Y-102855500D01*
X158934000Y-102860500D01*
X158929000Y-102864500D01*
X158923000Y-102868500D01*
X158918000Y-102872500D01*
X158912000Y-102875500D01*
X158907000Y-102878500D01*
X158901000Y-102881500D01*
X158895000Y-102884500D01*
X158889000Y-102886500D01*
X158882000Y-102888500D01*
X158876000Y-102889500D01*
X158870000Y-102890500D01*
X158863000Y-102891500D01*
X158857000Y-102892500D01*
X158850000Y-102892500D01*
X158650000Y-102892500D01*
X158643000Y-102892500D01*
X158637000Y-102891500D01*
X158630000Y-102890500D01*
X158624000Y-102889500D01*
X158618000Y-102888500D01*
X158611000Y-102886500D01*
X158605000Y-102884500D01*
X158599000Y-102881500D01*
X158593000Y-102878500D01*
X158587000Y-102875500D01*
X158582000Y-102872500D01*
X158577000Y-102868500D01*
X158571000Y-102864500D01*
X158566000Y-102860500D01*
X158562000Y-102855500D01*
X158557000Y-102851500D01*
X158553000Y-102846500D01*
X158549000Y-102840500D01*
X158545000Y-102835500D01*
X158542000Y-102830500D01*
X158539000Y-102824500D01*
X158536000Y-102818500D01*
X158533000Y-102812500D01*
X158531000Y-102806500D01*
X158529000Y-102799500D01*
X158528000Y-102793500D01*
X158527000Y-102787500D01*
X158526000Y-102780500D01*
X158525000Y-102774500D01*
X158525000Y-102767500D01*
X158525000Y-102327500D01*
X158525000Y-102320500D01*
X158526000Y-102314500D01*
X158527000Y-102307500D01*
X158528000Y-102301500D01*
X158529000Y-102295500D01*
X158531000Y-102288500D01*
X158533000Y-102282500D01*
X158536000Y-102276500D01*
X158539000Y-102270500D01*
X158542000Y-102264500D01*
X158545000Y-102259500D01*
X158549000Y-102254500D01*
X158553000Y-102248500D01*
X158557000Y-102243500D01*
X158562000Y-102239500D01*
X158566000Y-102234500D01*
X158571000Y-102230500D01*
X158577000Y-102226500D01*
X158582000Y-102222500D01*
X158588000Y-102219500D01*
X158593000Y-102216500D01*
X158599000Y-102213500D01*
X158605000Y-102210500D01*
X158611000Y-102208500D01*
X158618000Y-102206500D01*
X158624000Y-102205500D01*
X158630000Y-102204500D01*
X158637000Y-102203500D01*
X158643000Y-102202500D01*
X158650000Y-102202500D01*
X158850000Y-102202500D01*
X158857000Y-102202500D01*
X158863000Y-102203500D01*
G36*
X158863000Y-102203500D02*
G01*
X158870000Y-102204500D01*
X158876000Y-102205500D01*
X158882000Y-102206500D01*
X158889000Y-102208500D01*
X158895000Y-102210500D01*
X158901000Y-102213500D01*
X158907000Y-102216500D01*
X158912000Y-102219500D01*
X158918000Y-102222500D01*
X158923000Y-102226500D01*
X158929000Y-102230500D01*
X158934000Y-102234500D01*
X158938000Y-102239500D01*
X158943000Y-102243500D01*
X158947000Y-102248500D01*
X158951000Y-102254500D01*
X158955000Y-102259500D01*
X158958000Y-102264500D01*
X158961000Y-102270500D01*
X158964000Y-102276500D01*
X158967000Y-102282500D01*
X158969000Y-102288500D01*
X158971000Y-102295500D01*
X158972000Y-102301500D01*
X158973000Y-102307500D01*
X158974000Y-102314500D01*
X158975000Y-102320500D01*
X158975000Y-102327500D01*
X158975000Y-102767500D01*
X158975000Y-102774500D01*
X158974000Y-102780500D01*
X158973000Y-102787500D01*
X158972000Y-102793500D01*
X158971000Y-102799500D01*
X158969000Y-102806500D01*
X158967000Y-102812500D01*
X158964000Y-102818500D01*
X158961000Y-102824500D01*
X158958000Y-102830500D01*
X158955000Y-102835500D01*
X158951000Y-102840500D01*
X158947000Y-102846500D01*
X158943000Y-102851500D01*
X158938000Y-102855500D01*
X158934000Y-102860500D01*
X158929000Y-102864500D01*
X158923000Y-102868500D01*
X158918000Y-102872500D01*
X158912000Y-102875500D01*
X158907000Y-102878500D01*
X158901000Y-102881500D01*
X158895000Y-102884500D01*
X158889000Y-102886500D01*
X158882000Y-102888500D01*
X158876000Y-102889500D01*
X158870000Y-102890500D01*
X158863000Y-102891500D01*
X158857000Y-102892500D01*
X158850000Y-102892500D01*
X158650000Y-102892500D01*
X158643000Y-102892500D01*
X158637000Y-102891500D01*
X158630000Y-102890500D01*
X158624000Y-102889500D01*
X158618000Y-102888500D01*
X158611000Y-102886500D01*
X158605000Y-102884500D01*
X158599000Y-102881500D01*
X158593000Y-102878500D01*
X158587000Y-102875500D01*
X158582000Y-102872500D01*
X158577000Y-102868500D01*
X158571000Y-102864500D01*
X158566000Y-102860500D01*
X158562000Y-102855500D01*
X158557000Y-102851500D01*
X158553000Y-102846500D01*
X158549000Y-102840500D01*
X158545000Y-102835500D01*
X158542000Y-102830500D01*
X158539000Y-102824500D01*
X158536000Y-102818500D01*
X158533000Y-102812500D01*
X158531000Y-102806500D01*
X158529000Y-102799500D01*
X158528000Y-102793500D01*
X158527000Y-102787500D01*
X158526000Y-102780500D01*
X158525000Y-102774500D01*
X158525000Y-102767500D01*
X158525000Y-102327500D01*
X158525000Y-102320500D01*
X158526000Y-102314500D01*
X158527000Y-102307500D01*
X158528000Y-102301500D01*
X158529000Y-102295500D01*
X158531000Y-102288500D01*
X158533000Y-102282500D01*
X158536000Y-102276500D01*
X158539000Y-102270500D01*
X158542000Y-102264500D01*
X158545000Y-102259500D01*
X158549000Y-102254500D01*
X158553000Y-102248500D01*
X158557000Y-102243500D01*
X158562000Y-102239500D01*
X158566000Y-102234500D01*
X158571000Y-102230500D01*
X158577000Y-102226500D01*
X158582000Y-102222500D01*
X158588000Y-102219500D01*
X158593000Y-102216500D01*
X158599000Y-102213500D01*
X158605000Y-102210500D01*
X158611000Y-102208500D01*
X158618000Y-102206500D01*
X158624000Y-102205500D01*
X158630000Y-102204500D01*
X158637000Y-102203500D01*
X158643000Y-102202500D01*
X158650000Y-102202500D01*
X158850000Y-102202500D01*
X158857000Y-102202500D01*
X158863000Y-102203500D01*
G37*
X158863000Y-104033500D02*
X158870000Y-104034500D01*
X158876000Y-104035500D01*
X158882000Y-104036500D01*
X158889000Y-104038500D01*
X158895000Y-104040500D01*
X158901000Y-104043500D01*
X158907000Y-104046500D01*
X158912000Y-104049500D01*
X158918000Y-104052500D01*
X158923000Y-104056500D01*
X158929000Y-104060500D01*
X158934000Y-104064500D01*
X158938000Y-104069500D01*
X158943000Y-104073500D01*
X158947000Y-104078500D01*
X158951000Y-104084500D01*
X158955000Y-104089500D01*
X158958000Y-104094500D01*
X158961000Y-104100500D01*
X158964000Y-104106500D01*
X158967000Y-104112500D01*
X158969000Y-104118500D01*
X158971000Y-104125500D01*
X158972000Y-104131500D01*
X158973000Y-104137500D01*
X158974000Y-104144500D01*
X158975000Y-104150500D01*
X158975000Y-104157500D01*
X158975000Y-104597500D01*
X158975000Y-104604500D01*
X158974000Y-104610500D01*
X158973000Y-104617500D01*
X158972000Y-104623500D01*
X158971000Y-104629500D01*
X158969000Y-104636500D01*
X158967000Y-104642500D01*
X158964000Y-104648500D01*
X158961000Y-104654500D01*
X158958000Y-104660500D01*
X158955000Y-104665500D01*
X158951000Y-104670500D01*
X158947000Y-104676500D01*
X158943000Y-104681500D01*
X158938000Y-104685500D01*
X158934000Y-104690500D01*
X158929000Y-104694500D01*
X158923000Y-104698500D01*
X158918000Y-104702500D01*
X158912000Y-104705500D01*
X158907000Y-104708500D01*
X158901000Y-104711500D01*
X158895000Y-104714500D01*
X158889000Y-104716500D01*
X158882000Y-104718500D01*
X158876000Y-104719500D01*
X158870000Y-104720500D01*
X158863000Y-104721500D01*
X158857000Y-104722500D01*
X158850000Y-104722500D01*
X158650000Y-104722500D01*
X158643000Y-104722500D01*
X158637000Y-104721500D01*
X158630000Y-104720500D01*
X158624000Y-104719500D01*
X158618000Y-104718500D01*
X158611000Y-104716500D01*
X158605000Y-104714500D01*
X158599000Y-104711500D01*
X158593000Y-104708500D01*
X158587000Y-104705500D01*
X158582000Y-104702500D01*
X158577000Y-104698500D01*
X158571000Y-104694500D01*
X158566000Y-104690500D01*
X158562000Y-104685500D01*
X158557000Y-104681500D01*
X158553000Y-104676500D01*
X158549000Y-104670500D01*
X158545000Y-104665500D01*
X158542000Y-104660500D01*
X158539000Y-104654500D01*
X158536000Y-104648500D01*
X158533000Y-104642500D01*
X158531000Y-104636500D01*
X158529000Y-104629500D01*
X158528000Y-104623500D01*
X158527000Y-104617500D01*
X158526000Y-104610500D01*
X158525000Y-104604500D01*
X158525000Y-104597500D01*
X158525000Y-104157500D01*
X158525000Y-104150500D01*
X158526000Y-104144500D01*
X158527000Y-104137500D01*
X158528000Y-104131500D01*
X158529000Y-104125500D01*
X158531000Y-104118500D01*
X158533000Y-104112500D01*
X158536000Y-104106500D01*
X158539000Y-104100500D01*
X158542000Y-104094500D01*
X158545000Y-104089500D01*
X158549000Y-104084500D01*
X158553000Y-104078500D01*
X158557000Y-104073500D01*
X158562000Y-104069500D01*
X158566000Y-104064500D01*
X158571000Y-104060500D01*
X158577000Y-104056500D01*
X158582000Y-104052500D01*
X158588000Y-104049500D01*
X158593000Y-104046500D01*
X158599000Y-104043500D01*
X158605000Y-104040500D01*
X158611000Y-104038500D01*
X158618000Y-104036500D01*
X158624000Y-104035500D01*
X158630000Y-104034500D01*
X158637000Y-104033500D01*
X158643000Y-104032500D01*
X158650000Y-104032500D01*
X158850000Y-104032500D01*
X158857000Y-104032500D01*
X158863000Y-104033500D01*
G36*
X158863000Y-104033500D02*
G01*
X158870000Y-104034500D01*
X158876000Y-104035500D01*
X158882000Y-104036500D01*
X158889000Y-104038500D01*
X158895000Y-104040500D01*
X158901000Y-104043500D01*
X158907000Y-104046500D01*
X158912000Y-104049500D01*
X158918000Y-104052500D01*
X158923000Y-104056500D01*
X158929000Y-104060500D01*
X158934000Y-104064500D01*
X158938000Y-104069500D01*
X158943000Y-104073500D01*
X158947000Y-104078500D01*
X158951000Y-104084500D01*
X158955000Y-104089500D01*
X158958000Y-104094500D01*
X158961000Y-104100500D01*
X158964000Y-104106500D01*
X158967000Y-104112500D01*
X158969000Y-104118500D01*
X158971000Y-104125500D01*
X158972000Y-104131500D01*
X158973000Y-104137500D01*
X158974000Y-104144500D01*
X158975000Y-104150500D01*
X158975000Y-104157500D01*
X158975000Y-104597500D01*
X158975000Y-104604500D01*
X158974000Y-104610500D01*
X158973000Y-104617500D01*
X158972000Y-104623500D01*
X158971000Y-104629500D01*
X158969000Y-104636500D01*
X158967000Y-104642500D01*
X158964000Y-104648500D01*
X158961000Y-104654500D01*
X158958000Y-104660500D01*
X158955000Y-104665500D01*
X158951000Y-104670500D01*
X158947000Y-104676500D01*
X158943000Y-104681500D01*
X158938000Y-104685500D01*
X158934000Y-104690500D01*
X158929000Y-104694500D01*
X158923000Y-104698500D01*
X158918000Y-104702500D01*
X158912000Y-104705500D01*
X158907000Y-104708500D01*
X158901000Y-104711500D01*
X158895000Y-104714500D01*
X158889000Y-104716500D01*
X158882000Y-104718500D01*
X158876000Y-104719500D01*
X158870000Y-104720500D01*
X158863000Y-104721500D01*
X158857000Y-104722500D01*
X158850000Y-104722500D01*
X158650000Y-104722500D01*
X158643000Y-104722500D01*
X158637000Y-104721500D01*
X158630000Y-104720500D01*
X158624000Y-104719500D01*
X158618000Y-104718500D01*
X158611000Y-104716500D01*
X158605000Y-104714500D01*
X158599000Y-104711500D01*
X158593000Y-104708500D01*
X158587000Y-104705500D01*
X158582000Y-104702500D01*
X158577000Y-104698500D01*
X158571000Y-104694500D01*
X158566000Y-104690500D01*
X158562000Y-104685500D01*
X158557000Y-104681500D01*
X158553000Y-104676500D01*
X158549000Y-104670500D01*
X158545000Y-104665500D01*
X158542000Y-104660500D01*
X158539000Y-104654500D01*
X158536000Y-104648500D01*
X158533000Y-104642500D01*
X158531000Y-104636500D01*
X158529000Y-104629500D01*
X158528000Y-104623500D01*
X158527000Y-104617500D01*
X158526000Y-104610500D01*
X158525000Y-104604500D01*
X158525000Y-104597500D01*
X158525000Y-104157500D01*
X158525000Y-104150500D01*
X158526000Y-104144500D01*
X158527000Y-104137500D01*
X158528000Y-104131500D01*
X158529000Y-104125500D01*
X158531000Y-104118500D01*
X158533000Y-104112500D01*
X158536000Y-104106500D01*
X158539000Y-104100500D01*
X158542000Y-104094500D01*
X158545000Y-104089500D01*
X158549000Y-104084500D01*
X158553000Y-104078500D01*
X158557000Y-104073500D01*
X158562000Y-104069500D01*
X158566000Y-104064500D01*
X158571000Y-104060500D01*
X158577000Y-104056500D01*
X158582000Y-104052500D01*
X158588000Y-104049500D01*
X158593000Y-104046500D01*
X158599000Y-104043500D01*
X158605000Y-104040500D01*
X158611000Y-104038500D01*
X158618000Y-104036500D01*
X158624000Y-104035500D01*
X158630000Y-104034500D01*
X158637000Y-104033500D01*
X158643000Y-104032500D01*
X158650000Y-104032500D01*
X158850000Y-104032500D01*
X158857000Y-104032500D01*
X158863000Y-104033500D01*
G37*
X159648000Y-102488500D02*
X159655000Y-102489500D01*
X159661000Y-102490500D01*
X159667000Y-102491500D01*
X159674000Y-102493500D01*
X159680000Y-102495500D01*
X159686000Y-102498500D01*
X159692000Y-102501500D01*
X159698000Y-102504500D01*
X159703000Y-102507500D01*
X159708000Y-102511500D01*
X159714000Y-102515500D01*
X159719000Y-102519500D01*
X159723000Y-102524500D01*
X159728000Y-102528500D01*
X159732000Y-102533500D01*
X159736000Y-102539500D01*
X159740000Y-102544500D01*
X159743000Y-102550500D01*
X159746000Y-102555500D01*
X159749000Y-102561500D01*
X159752000Y-102567500D01*
X159754000Y-102573500D01*
X159756000Y-102580500D01*
X159757000Y-102586500D01*
X159758000Y-102592500D01*
X159759000Y-102599500D01*
X159760000Y-102605500D01*
X159760000Y-102612500D01*
X159760000Y-102812500D01*
X159760000Y-102819500D01*
X159759000Y-102825500D01*
X159758000Y-102832500D01*
X159757000Y-102838500D01*
X159756000Y-102844500D01*
X159754000Y-102851500D01*
X159752000Y-102857500D01*
X159749000Y-102863500D01*
X159746000Y-102869500D01*
X159743000Y-102874500D01*
X159740000Y-102880500D01*
X159736000Y-102885500D01*
X159732000Y-102891500D01*
X159728000Y-102896500D01*
X159723000Y-102900500D01*
X159719000Y-102905500D01*
X159714000Y-102909500D01*
X159708000Y-102913500D01*
X159703000Y-102917500D01*
X159698000Y-102920500D01*
X159692000Y-102923500D01*
X159686000Y-102926500D01*
X159680000Y-102929500D01*
X159674000Y-102931500D01*
X159667000Y-102933500D01*
X159661000Y-102934500D01*
X159655000Y-102935500D01*
X159648000Y-102936500D01*
X159642000Y-102937500D01*
X159635000Y-102937500D01*
X159195000Y-102937500D01*
X159188000Y-102937500D01*
X159182000Y-102936500D01*
X159175000Y-102935500D01*
X159169000Y-102934500D01*
X159163000Y-102933500D01*
X159156000Y-102931500D01*
X159150000Y-102929500D01*
X159144000Y-102926500D01*
X159138000Y-102923500D01*
X159132000Y-102920500D01*
X159127000Y-102917500D01*
X159122000Y-102913500D01*
X159116000Y-102909500D01*
X159111000Y-102905500D01*
X159107000Y-102900500D01*
X159102000Y-102896500D01*
X159098000Y-102891500D01*
X159094000Y-102885500D01*
X159090000Y-102880500D01*
X159087000Y-102874500D01*
X159084000Y-102869500D01*
X159081000Y-102863500D01*
X159078000Y-102857500D01*
X159076000Y-102851500D01*
X159074000Y-102844500D01*
X159073000Y-102838500D01*
X159072000Y-102832500D01*
X159071000Y-102825500D01*
X159070000Y-102819500D01*
X159070000Y-102812500D01*
X159070000Y-102612500D01*
X159070000Y-102605500D01*
X159071000Y-102599500D01*
X159072000Y-102592500D01*
X159073000Y-102586500D01*
X159074000Y-102580500D01*
X159076000Y-102573500D01*
X159078000Y-102567500D01*
X159081000Y-102561500D01*
X159084000Y-102555500D01*
X159087000Y-102550500D01*
X159090000Y-102544500D01*
X159094000Y-102539500D01*
X159098000Y-102533500D01*
X159102000Y-102528500D01*
X159107000Y-102524500D01*
X159111000Y-102519500D01*
X159116000Y-102515500D01*
X159122000Y-102511500D01*
X159127000Y-102507500D01*
X159132000Y-102504500D01*
X159138000Y-102501500D01*
X159144000Y-102498500D01*
X159150000Y-102495500D01*
X159156000Y-102493500D01*
X159163000Y-102491500D01*
X159169000Y-102490500D01*
X159175000Y-102489500D01*
X159182000Y-102488500D01*
X159188000Y-102487500D01*
X159195000Y-102487500D01*
X159635000Y-102487500D01*
X159642000Y-102487500D01*
X159648000Y-102488500D01*
G36*
X159648000Y-102488500D02*
G01*
X159655000Y-102489500D01*
X159661000Y-102490500D01*
X159667000Y-102491500D01*
X159674000Y-102493500D01*
X159680000Y-102495500D01*
X159686000Y-102498500D01*
X159692000Y-102501500D01*
X159698000Y-102504500D01*
X159703000Y-102507500D01*
X159708000Y-102511500D01*
X159714000Y-102515500D01*
X159719000Y-102519500D01*
X159723000Y-102524500D01*
X159728000Y-102528500D01*
X159732000Y-102533500D01*
X159736000Y-102539500D01*
X159740000Y-102544500D01*
X159743000Y-102550500D01*
X159746000Y-102555500D01*
X159749000Y-102561500D01*
X159752000Y-102567500D01*
X159754000Y-102573500D01*
X159756000Y-102580500D01*
X159757000Y-102586500D01*
X159758000Y-102592500D01*
X159759000Y-102599500D01*
X159760000Y-102605500D01*
X159760000Y-102612500D01*
X159760000Y-102812500D01*
X159760000Y-102819500D01*
X159759000Y-102825500D01*
X159758000Y-102832500D01*
X159757000Y-102838500D01*
X159756000Y-102844500D01*
X159754000Y-102851500D01*
X159752000Y-102857500D01*
X159749000Y-102863500D01*
X159746000Y-102869500D01*
X159743000Y-102874500D01*
X159740000Y-102880500D01*
X159736000Y-102885500D01*
X159732000Y-102891500D01*
X159728000Y-102896500D01*
X159723000Y-102900500D01*
X159719000Y-102905500D01*
X159714000Y-102909500D01*
X159708000Y-102913500D01*
X159703000Y-102917500D01*
X159698000Y-102920500D01*
X159692000Y-102923500D01*
X159686000Y-102926500D01*
X159680000Y-102929500D01*
X159674000Y-102931500D01*
X159667000Y-102933500D01*
X159661000Y-102934500D01*
X159655000Y-102935500D01*
X159648000Y-102936500D01*
X159642000Y-102937500D01*
X159635000Y-102937500D01*
X159195000Y-102937500D01*
X159188000Y-102937500D01*
X159182000Y-102936500D01*
X159175000Y-102935500D01*
X159169000Y-102934500D01*
X159163000Y-102933500D01*
X159156000Y-102931500D01*
X159150000Y-102929500D01*
X159144000Y-102926500D01*
X159138000Y-102923500D01*
X159132000Y-102920500D01*
X159127000Y-102917500D01*
X159122000Y-102913500D01*
X159116000Y-102909500D01*
X159111000Y-102905500D01*
X159107000Y-102900500D01*
X159102000Y-102896500D01*
X159098000Y-102891500D01*
X159094000Y-102885500D01*
X159090000Y-102880500D01*
X159087000Y-102874500D01*
X159084000Y-102869500D01*
X159081000Y-102863500D01*
X159078000Y-102857500D01*
X159076000Y-102851500D01*
X159074000Y-102844500D01*
X159073000Y-102838500D01*
X159072000Y-102832500D01*
X159071000Y-102825500D01*
X159070000Y-102819500D01*
X159070000Y-102812500D01*
X159070000Y-102612500D01*
X159070000Y-102605500D01*
X159071000Y-102599500D01*
X159072000Y-102592500D01*
X159073000Y-102586500D01*
X159074000Y-102580500D01*
X159076000Y-102573500D01*
X159078000Y-102567500D01*
X159081000Y-102561500D01*
X159084000Y-102555500D01*
X159087000Y-102550500D01*
X159090000Y-102544500D01*
X159094000Y-102539500D01*
X159098000Y-102533500D01*
X159102000Y-102528500D01*
X159107000Y-102524500D01*
X159111000Y-102519500D01*
X159116000Y-102515500D01*
X159122000Y-102511500D01*
X159127000Y-102507500D01*
X159132000Y-102504500D01*
X159138000Y-102501500D01*
X159144000Y-102498500D01*
X159150000Y-102495500D01*
X159156000Y-102493500D01*
X159163000Y-102491500D01*
X159169000Y-102490500D01*
X159175000Y-102489500D01*
X159182000Y-102488500D01*
X159188000Y-102487500D01*
X159195000Y-102487500D01*
X159635000Y-102487500D01*
X159642000Y-102487500D01*
X159648000Y-102488500D01*
G37*
X159648000Y-102988500D02*
X159655000Y-102989500D01*
X159661000Y-102990500D01*
X159667000Y-102991500D01*
X159674000Y-102993500D01*
X159680000Y-102995500D01*
X159686000Y-102998500D01*
X159692000Y-103001500D01*
X159698000Y-103004500D01*
X159703000Y-103007500D01*
X159708000Y-103011500D01*
X159714000Y-103015500D01*
X159719000Y-103019500D01*
X159723000Y-103024500D01*
X159728000Y-103028500D01*
X159732000Y-103033500D01*
X159736000Y-103039500D01*
X159740000Y-103044500D01*
X159743000Y-103050500D01*
X159746000Y-103055500D01*
X159749000Y-103061500D01*
X159752000Y-103067500D01*
X159754000Y-103073500D01*
X159756000Y-103080500D01*
X159757000Y-103086500D01*
X159758000Y-103092500D01*
X159759000Y-103099500D01*
X159760000Y-103105500D01*
X159760000Y-103112500D01*
X159760000Y-103312500D01*
X159760000Y-103319500D01*
X159759000Y-103325500D01*
X159758000Y-103332500D01*
X159757000Y-103338500D01*
X159756000Y-103344500D01*
X159754000Y-103351500D01*
X159752000Y-103357500D01*
X159749000Y-103363500D01*
X159746000Y-103369500D01*
X159743000Y-103374500D01*
X159740000Y-103380500D01*
X159736000Y-103385500D01*
X159732000Y-103391500D01*
X159728000Y-103396500D01*
X159723000Y-103400500D01*
X159719000Y-103405500D01*
X159714000Y-103409500D01*
X159708000Y-103413500D01*
X159703000Y-103417500D01*
X159698000Y-103420500D01*
X159692000Y-103423500D01*
X159686000Y-103426500D01*
X159680000Y-103429500D01*
X159674000Y-103431500D01*
X159667000Y-103433500D01*
X159661000Y-103434500D01*
X159655000Y-103435500D01*
X159648000Y-103436500D01*
X159642000Y-103437500D01*
X159635000Y-103437500D01*
X159195000Y-103437500D01*
X159188000Y-103437500D01*
X159182000Y-103436500D01*
X159175000Y-103435500D01*
X159169000Y-103434500D01*
X159163000Y-103433500D01*
X159156000Y-103431500D01*
X159150000Y-103429500D01*
X159144000Y-103426500D01*
X159138000Y-103423500D01*
X159132000Y-103420500D01*
X159127000Y-103417500D01*
X159122000Y-103413500D01*
X159116000Y-103409500D01*
X159111000Y-103405500D01*
X159107000Y-103400500D01*
X159102000Y-103396500D01*
X159098000Y-103391500D01*
X159094000Y-103385500D01*
X159090000Y-103380500D01*
X159087000Y-103374500D01*
X159084000Y-103369500D01*
X159081000Y-103363500D01*
X159078000Y-103357500D01*
X159076000Y-103351500D01*
X159074000Y-103344500D01*
X159073000Y-103338500D01*
X159072000Y-103332500D01*
X159071000Y-103325500D01*
X159070000Y-103319500D01*
X159070000Y-103312500D01*
X159070000Y-103112500D01*
X159070000Y-103105500D01*
X159071000Y-103099500D01*
X159072000Y-103092500D01*
X159073000Y-103086500D01*
X159074000Y-103080500D01*
X159076000Y-103073500D01*
X159078000Y-103067500D01*
X159081000Y-103061500D01*
X159084000Y-103055500D01*
X159087000Y-103050500D01*
X159090000Y-103044500D01*
X159094000Y-103039500D01*
X159098000Y-103033500D01*
X159102000Y-103028500D01*
X159107000Y-103024500D01*
X159111000Y-103019500D01*
X159116000Y-103015500D01*
X159122000Y-103011500D01*
X159127000Y-103007500D01*
X159132000Y-103004500D01*
X159138000Y-103001500D01*
X159144000Y-102998500D01*
X159150000Y-102995500D01*
X159156000Y-102993500D01*
X159163000Y-102991500D01*
X159169000Y-102990500D01*
X159175000Y-102989500D01*
X159182000Y-102988500D01*
X159188000Y-102987500D01*
X159195000Y-102987500D01*
X159635000Y-102987500D01*
X159642000Y-102987500D01*
X159648000Y-102988500D01*
G36*
X159648000Y-102988500D02*
G01*
X159655000Y-102989500D01*
X159661000Y-102990500D01*
X159667000Y-102991500D01*
X159674000Y-102993500D01*
X159680000Y-102995500D01*
X159686000Y-102998500D01*
X159692000Y-103001500D01*
X159698000Y-103004500D01*
X159703000Y-103007500D01*
X159708000Y-103011500D01*
X159714000Y-103015500D01*
X159719000Y-103019500D01*
X159723000Y-103024500D01*
X159728000Y-103028500D01*
X159732000Y-103033500D01*
X159736000Y-103039500D01*
X159740000Y-103044500D01*
X159743000Y-103050500D01*
X159746000Y-103055500D01*
X159749000Y-103061500D01*
X159752000Y-103067500D01*
X159754000Y-103073500D01*
X159756000Y-103080500D01*
X159757000Y-103086500D01*
X159758000Y-103092500D01*
X159759000Y-103099500D01*
X159760000Y-103105500D01*
X159760000Y-103112500D01*
X159760000Y-103312500D01*
X159760000Y-103319500D01*
X159759000Y-103325500D01*
X159758000Y-103332500D01*
X159757000Y-103338500D01*
X159756000Y-103344500D01*
X159754000Y-103351500D01*
X159752000Y-103357500D01*
X159749000Y-103363500D01*
X159746000Y-103369500D01*
X159743000Y-103374500D01*
X159740000Y-103380500D01*
X159736000Y-103385500D01*
X159732000Y-103391500D01*
X159728000Y-103396500D01*
X159723000Y-103400500D01*
X159719000Y-103405500D01*
X159714000Y-103409500D01*
X159708000Y-103413500D01*
X159703000Y-103417500D01*
X159698000Y-103420500D01*
X159692000Y-103423500D01*
X159686000Y-103426500D01*
X159680000Y-103429500D01*
X159674000Y-103431500D01*
X159667000Y-103433500D01*
X159661000Y-103434500D01*
X159655000Y-103435500D01*
X159648000Y-103436500D01*
X159642000Y-103437500D01*
X159635000Y-103437500D01*
X159195000Y-103437500D01*
X159188000Y-103437500D01*
X159182000Y-103436500D01*
X159175000Y-103435500D01*
X159169000Y-103434500D01*
X159163000Y-103433500D01*
X159156000Y-103431500D01*
X159150000Y-103429500D01*
X159144000Y-103426500D01*
X159138000Y-103423500D01*
X159132000Y-103420500D01*
X159127000Y-103417500D01*
X159122000Y-103413500D01*
X159116000Y-103409500D01*
X159111000Y-103405500D01*
X159107000Y-103400500D01*
X159102000Y-103396500D01*
X159098000Y-103391500D01*
X159094000Y-103385500D01*
X159090000Y-103380500D01*
X159087000Y-103374500D01*
X159084000Y-103369500D01*
X159081000Y-103363500D01*
X159078000Y-103357500D01*
X159076000Y-103351500D01*
X159074000Y-103344500D01*
X159073000Y-103338500D01*
X159072000Y-103332500D01*
X159071000Y-103325500D01*
X159070000Y-103319500D01*
X159070000Y-103312500D01*
X159070000Y-103112500D01*
X159070000Y-103105500D01*
X159071000Y-103099500D01*
X159072000Y-103092500D01*
X159073000Y-103086500D01*
X159074000Y-103080500D01*
X159076000Y-103073500D01*
X159078000Y-103067500D01*
X159081000Y-103061500D01*
X159084000Y-103055500D01*
X159087000Y-103050500D01*
X159090000Y-103044500D01*
X159094000Y-103039500D01*
X159098000Y-103033500D01*
X159102000Y-103028500D01*
X159107000Y-103024500D01*
X159111000Y-103019500D01*
X159116000Y-103015500D01*
X159122000Y-103011500D01*
X159127000Y-103007500D01*
X159132000Y-103004500D01*
X159138000Y-103001500D01*
X159144000Y-102998500D01*
X159150000Y-102995500D01*
X159156000Y-102993500D01*
X159163000Y-102991500D01*
X159169000Y-102990500D01*
X159175000Y-102989500D01*
X159182000Y-102988500D01*
X159188000Y-102987500D01*
X159195000Y-102987500D01*
X159635000Y-102987500D01*
X159642000Y-102987500D01*
X159648000Y-102988500D01*
G37*
X159648000Y-103488500D02*
X159655000Y-103489500D01*
X159661000Y-103490500D01*
X159667000Y-103491500D01*
X159674000Y-103493500D01*
X159680000Y-103495500D01*
X159686000Y-103498500D01*
X159692000Y-103501500D01*
X159698000Y-103504500D01*
X159703000Y-103507500D01*
X159708000Y-103511500D01*
X159714000Y-103515500D01*
X159719000Y-103519500D01*
X159723000Y-103524500D01*
X159728000Y-103528500D01*
X159732000Y-103533500D01*
X159736000Y-103539500D01*
X159740000Y-103544500D01*
X159743000Y-103550500D01*
X159746000Y-103555500D01*
X159749000Y-103561500D01*
X159752000Y-103567500D01*
X159754000Y-103573500D01*
X159756000Y-103580500D01*
X159757000Y-103586500D01*
X159758000Y-103592500D01*
X159759000Y-103599500D01*
X159760000Y-103605500D01*
X159760000Y-103612500D01*
X159760000Y-103812500D01*
X159760000Y-103819500D01*
X159759000Y-103825500D01*
X159758000Y-103832500D01*
X159757000Y-103838500D01*
X159756000Y-103844500D01*
X159754000Y-103851500D01*
X159752000Y-103857500D01*
X159749000Y-103863500D01*
X159746000Y-103869500D01*
X159743000Y-103874500D01*
X159740000Y-103880500D01*
X159736000Y-103885500D01*
X159732000Y-103891500D01*
X159728000Y-103896500D01*
X159723000Y-103900500D01*
X159719000Y-103905500D01*
X159714000Y-103909500D01*
X159708000Y-103913500D01*
X159703000Y-103917500D01*
X159698000Y-103920500D01*
X159692000Y-103923500D01*
X159686000Y-103926500D01*
X159680000Y-103929500D01*
X159674000Y-103931500D01*
X159667000Y-103933500D01*
X159661000Y-103934500D01*
X159655000Y-103935500D01*
X159648000Y-103936500D01*
X159642000Y-103937500D01*
X159635000Y-103937500D01*
X159195000Y-103937500D01*
X159188000Y-103937500D01*
X159182000Y-103936500D01*
X159175000Y-103935500D01*
X159169000Y-103934500D01*
X159163000Y-103933500D01*
X159156000Y-103931500D01*
X159150000Y-103929500D01*
X159144000Y-103926500D01*
X159138000Y-103923500D01*
X159132000Y-103920500D01*
X159127000Y-103917500D01*
X159122000Y-103913500D01*
X159116000Y-103909500D01*
X159111000Y-103905500D01*
X159107000Y-103900500D01*
X159102000Y-103896500D01*
X159098000Y-103891500D01*
X159094000Y-103885500D01*
X159090000Y-103880500D01*
X159087000Y-103874500D01*
X159084000Y-103869500D01*
X159081000Y-103863500D01*
X159078000Y-103857500D01*
X159076000Y-103851500D01*
X159074000Y-103844500D01*
X159073000Y-103838500D01*
X159072000Y-103832500D01*
X159071000Y-103825500D01*
X159070000Y-103819500D01*
X159070000Y-103812500D01*
X159070000Y-103612500D01*
X159070000Y-103605500D01*
X159071000Y-103599500D01*
X159072000Y-103592500D01*
X159073000Y-103586500D01*
X159074000Y-103580500D01*
X159076000Y-103573500D01*
X159078000Y-103567500D01*
X159081000Y-103561500D01*
X159084000Y-103555500D01*
X159087000Y-103550500D01*
X159090000Y-103544500D01*
X159094000Y-103539500D01*
X159098000Y-103533500D01*
X159102000Y-103528500D01*
X159107000Y-103524500D01*
X159111000Y-103519500D01*
X159116000Y-103515500D01*
X159122000Y-103511500D01*
X159127000Y-103507500D01*
X159132000Y-103504500D01*
X159138000Y-103501500D01*
X159144000Y-103498500D01*
X159150000Y-103495500D01*
X159156000Y-103493500D01*
X159163000Y-103491500D01*
X159169000Y-103490500D01*
X159175000Y-103489500D01*
X159182000Y-103488500D01*
X159188000Y-103487500D01*
X159195000Y-103487500D01*
X159635000Y-103487500D01*
X159642000Y-103487500D01*
X159648000Y-103488500D01*
G36*
X159648000Y-103488500D02*
G01*
X159655000Y-103489500D01*
X159661000Y-103490500D01*
X159667000Y-103491500D01*
X159674000Y-103493500D01*
X159680000Y-103495500D01*
X159686000Y-103498500D01*
X159692000Y-103501500D01*
X159698000Y-103504500D01*
X159703000Y-103507500D01*
X159708000Y-103511500D01*
X159714000Y-103515500D01*
X159719000Y-103519500D01*
X159723000Y-103524500D01*
X159728000Y-103528500D01*
X159732000Y-103533500D01*
X159736000Y-103539500D01*
X159740000Y-103544500D01*
X159743000Y-103550500D01*
X159746000Y-103555500D01*
X159749000Y-103561500D01*
X159752000Y-103567500D01*
X159754000Y-103573500D01*
X159756000Y-103580500D01*
X159757000Y-103586500D01*
X159758000Y-103592500D01*
X159759000Y-103599500D01*
X159760000Y-103605500D01*
X159760000Y-103612500D01*
X159760000Y-103812500D01*
X159760000Y-103819500D01*
X159759000Y-103825500D01*
X159758000Y-103832500D01*
X159757000Y-103838500D01*
X159756000Y-103844500D01*
X159754000Y-103851500D01*
X159752000Y-103857500D01*
X159749000Y-103863500D01*
X159746000Y-103869500D01*
X159743000Y-103874500D01*
X159740000Y-103880500D01*
X159736000Y-103885500D01*
X159732000Y-103891500D01*
X159728000Y-103896500D01*
X159723000Y-103900500D01*
X159719000Y-103905500D01*
X159714000Y-103909500D01*
X159708000Y-103913500D01*
X159703000Y-103917500D01*
X159698000Y-103920500D01*
X159692000Y-103923500D01*
X159686000Y-103926500D01*
X159680000Y-103929500D01*
X159674000Y-103931500D01*
X159667000Y-103933500D01*
X159661000Y-103934500D01*
X159655000Y-103935500D01*
X159648000Y-103936500D01*
X159642000Y-103937500D01*
X159635000Y-103937500D01*
X159195000Y-103937500D01*
X159188000Y-103937500D01*
X159182000Y-103936500D01*
X159175000Y-103935500D01*
X159169000Y-103934500D01*
X159163000Y-103933500D01*
X159156000Y-103931500D01*
X159150000Y-103929500D01*
X159144000Y-103926500D01*
X159138000Y-103923500D01*
X159132000Y-103920500D01*
X159127000Y-103917500D01*
X159122000Y-103913500D01*
X159116000Y-103909500D01*
X159111000Y-103905500D01*
X159107000Y-103900500D01*
X159102000Y-103896500D01*
X159098000Y-103891500D01*
X159094000Y-103885500D01*
X159090000Y-103880500D01*
X159087000Y-103874500D01*
X159084000Y-103869500D01*
X159081000Y-103863500D01*
X159078000Y-103857500D01*
X159076000Y-103851500D01*
X159074000Y-103844500D01*
X159073000Y-103838500D01*
X159072000Y-103832500D01*
X159071000Y-103825500D01*
X159070000Y-103819500D01*
X159070000Y-103812500D01*
X159070000Y-103612500D01*
X159070000Y-103605500D01*
X159071000Y-103599500D01*
X159072000Y-103592500D01*
X159073000Y-103586500D01*
X159074000Y-103580500D01*
X159076000Y-103573500D01*
X159078000Y-103567500D01*
X159081000Y-103561500D01*
X159084000Y-103555500D01*
X159087000Y-103550500D01*
X159090000Y-103544500D01*
X159094000Y-103539500D01*
X159098000Y-103533500D01*
X159102000Y-103528500D01*
X159107000Y-103524500D01*
X159111000Y-103519500D01*
X159116000Y-103515500D01*
X159122000Y-103511500D01*
X159127000Y-103507500D01*
X159132000Y-103504500D01*
X159138000Y-103501500D01*
X159144000Y-103498500D01*
X159150000Y-103495500D01*
X159156000Y-103493500D01*
X159163000Y-103491500D01*
X159169000Y-103490500D01*
X159175000Y-103489500D01*
X159182000Y-103488500D01*
X159188000Y-103487500D01*
X159195000Y-103487500D01*
X159635000Y-103487500D01*
X159642000Y-103487500D01*
X159648000Y-103488500D01*
G37*
X159648000Y-103988500D02*
X159655000Y-103989500D01*
X159661000Y-103990500D01*
X159667000Y-103991500D01*
X159674000Y-103993500D01*
X159680000Y-103995500D01*
X159686000Y-103998500D01*
X159692000Y-104001500D01*
X159698000Y-104004500D01*
X159703000Y-104007500D01*
X159708000Y-104011500D01*
X159714000Y-104015500D01*
X159719000Y-104019500D01*
X159723000Y-104024500D01*
X159728000Y-104028500D01*
X159732000Y-104033500D01*
X159736000Y-104039500D01*
X159740000Y-104044500D01*
X159743000Y-104050500D01*
X159746000Y-104055500D01*
X159749000Y-104061500D01*
X159752000Y-104067500D01*
X159754000Y-104073500D01*
X159756000Y-104080500D01*
X159757000Y-104086500D01*
X159758000Y-104092500D01*
X159759000Y-104099500D01*
X159760000Y-104105500D01*
X159760000Y-104112500D01*
X159760000Y-104312500D01*
X159760000Y-104319500D01*
X159759000Y-104325500D01*
X159758000Y-104332500D01*
X159757000Y-104338500D01*
X159756000Y-104344500D01*
X159754000Y-104351500D01*
X159752000Y-104357500D01*
X159749000Y-104363500D01*
X159746000Y-104369500D01*
X159743000Y-104374500D01*
X159740000Y-104380500D01*
X159736000Y-104385500D01*
X159732000Y-104391500D01*
X159728000Y-104396500D01*
X159723000Y-104400500D01*
X159719000Y-104405500D01*
X159714000Y-104409500D01*
X159708000Y-104413500D01*
X159703000Y-104417500D01*
X159698000Y-104420500D01*
X159692000Y-104423500D01*
X159686000Y-104426500D01*
X159680000Y-104429500D01*
X159674000Y-104431500D01*
X159667000Y-104433500D01*
X159661000Y-104434500D01*
X159655000Y-104435500D01*
X159648000Y-104436500D01*
X159642000Y-104437500D01*
X159635000Y-104437500D01*
X159195000Y-104437500D01*
X159188000Y-104437500D01*
X159182000Y-104436500D01*
X159175000Y-104435500D01*
X159169000Y-104434500D01*
X159163000Y-104433500D01*
X159156000Y-104431500D01*
X159150000Y-104429500D01*
X159144000Y-104426500D01*
X159138000Y-104423500D01*
X159132000Y-104420500D01*
X159127000Y-104417500D01*
X159122000Y-104413500D01*
X159116000Y-104409500D01*
X159111000Y-104405500D01*
X159107000Y-104400500D01*
X159102000Y-104396500D01*
X159098000Y-104391500D01*
X159094000Y-104385500D01*
X159090000Y-104380500D01*
X159087000Y-104374500D01*
X159084000Y-104369500D01*
X159081000Y-104363500D01*
X159078000Y-104357500D01*
X159076000Y-104351500D01*
X159074000Y-104344500D01*
X159073000Y-104338500D01*
X159072000Y-104332500D01*
X159071000Y-104325500D01*
X159070000Y-104319500D01*
X159070000Y-104312500D01*
X159070000Y-104112500D01*
X159070000Y-104105500D01*
X159071000Y-104099500D01*
X159072000Y-104092500D01*
X159073000Y-104086500D01*
X159074000Y-104080500D01*
X159076000Y-104073500D01*
X159078000Y-104067500D01*
X159081000Y-104061500D01*
X159084000Y-104055500D01*
X159087000Y-104050500D01*
X159090000Y-104044500D01*
X159094000Y-104039500D01*
X159098000Y-104033500D01*
X159102000Y-104028500D01*
X159107000Y-104024500D01*
X159111000Y-104019500D01*
X159116000Y-104015500D01*
X159122000Y-104011500D01*
X159127000Y-104007500D01*
X159132000Y-104004500D01*
X159138000Y-104001500D01*
X159144000Y-103998500D01*
X159150000Y-103995500D01*
X159156000Y-103993500D01*
X159163000Y-103991500D01*
X159169000Y-103990500D01*
X159175000Y-103989500D01*
X159182000Y-103988500D01*
X159188000Y-103987500D01*
X159195000Y-103987500D01*
X159635000Y-103987500D01*
X159642000Y-103987500D01*
X159648000Y-103988500D01*
G36*
X159648000Y-103988500D02*
G01*
X159655000Y-103989500D01*
X159661000Y-103990500D01*
X159667000Y-103991500D01*
X159674000Y-103993500D01*
X159680000Y-103995500D01*
X159686000Y-103998500D01*
X159692000Y-104001500D01*
X159698000Y-104004500D01*
X159703000Y-104007500D01*
X159708000Y-104011500D01*
X159714000Y-104015500D01*
X159719000Y-104019500D01*
X159723000Y-104024500D01*
X159728000Y-104028500D01*
X159732000Y-104033500D01*
X159736000Y-104039500D01*
X159740000Y-104044500D01*
X159743000Y-104050500D01*
X159746000Y-104055500D01*
X159749000Y-104061500D01*
X159752000Y-104067500D01*
X159754000Y-104073500D01*
X159756000Y-104080500D01*
X159757000Y-104086500D01*
X159758000Y-104092500D01*
X159759000Y-104099500D01*
X159760000Y-104105500D01*
X159760000Y-104112500D01*
X159760000Y-104312500D01*
X159760000Y-104319500D01*
X159759000Y-104325500D01*
X159758000Y-104332500D01*
X159757000Y-104338500D01*
X159756000Y-104344500D01*
X159754000Y-104351500D01*
X159752000Y-104357500D01*
X159749000Y-104363500D01*
X159746000Y-104369500D01*
X159743000Y-104374500D01*
X159740000Y-104380500D01*
X159736000Y-104385500D01*
X159732000Y-104391500D01*
X159728000Y-104396500D01*
X159723000Y-104400500D01*
X159719000Y-104405500D01*
X159714000Y-104409500D01*
X159708000Y-104413500D01*
X159703000Y-104417500D01*
X159698000Y-104420500D01*
X159692000Y-104423500D01*
X159686000Y-104426500D01*
X159680000Y-104429500D01*
X159674000Y-104431500D01*
X159667000Y-104433500D01*
X159661000Y-104434500D01*
X159655000Y-104435500D01*
X159648000Y-104436500D01*
X159642000Y-104437500D01*
X159635000Y-104437500D01*
X159195000Y-104437500D01*
X159188000Y-104437500D01*
X159182000Y-104436500D01*
X159175000Y-104435500D01*
X159169000Y-104434500D01*
X159163000Y-104433500D01*
X159156000Y-104431500D01*
X159150000Y-104429500D01*
X159144000Y-104426500D01*
X159138000Y-104423500D01*
X159132000Y-104420500D01*
X159127000Y-104417500D01*
X159122000Y-104413500D01*
X159116000Y-104409500D01*
X159111000Y-104405500D01*
X159107000Y-104400500D01*
X159102000Y-104396500D01*
X159098000Y-104391500D01*
X159094000Y-104385500D01*
X159090000Y-104380500D01*
X159087000Y-104374500D01*
X159084000Y-104369500D01*
X159081000Y-104363500D01*
X159078000Y-104357500D01*
X159076000Y-104351500D01*
X159074000Y-104344500D01*
X159073000Y-104338500D01*
X159072000Y-104332500D01*
X159071000Y-104325500D01*
X159070000Y-104319500D01*
X159070000Y-104312500D01*
X159070000Y-104112500D01*
X159070000Y-104105500D01*
X159071000Y-104099500D01*
X159072000Y-104092500D01*
X159073000Y-104086500D01*
X159074000Y-104080500D01*
X159076000Y-104073500D01*
X159078000Y-104067500D01*
X159081000Y-104061500D01*
X159084000Y-104055500D01*
X159087000Y-104050500D01*
X159090000Y-104044500D01*
X159094000Y-104039500D01*
X159098000Y-104033500D01*
X159102000Y-104028500D01*
X159107000Y-104024500D01*
X159111000Y-104019500D01*
X159116000Y-104015500D01*
X159122000Y-104011500D01*
X159127000Y-104007500D01*
X159132000Y-104004500D01*
X159138000Y-104001500D01*
X159144000Y-103998500D01*
X159150000Y-103995500D01*
X159156000Y-103993500D01*
X159163000Y-103991500D01*
X159169000Y-103990500D01*
X159175000Y-103989500D01*
X159182000Y-103988500D01*
X159188000Y-103987500D01*
X159195000Y-103987500D01*
X159635000Y-103987500D01*
X159642000Y-103987500D01*
X159648000Y-103988500D01*
G37*
%TD*%
D11*
%TO.C,J6*%
X164906299Y-138669999D03*
X171706301Y-138669999D03*
%TD*%
D12*
%TO.C,R25*%
X109500000Y-128000000D03*
X111500000Y-128000000D03*
%TD*%
D13*
%TO.C,R11*%
X139223100Y-120680100D03*
X137223100Y-120680100D03*
%TD*%
D14*
%TO.C,Conn_01x02_Pin3*%
X158651200Y-118550000D03*
D15*
X158651200Y-116010000D03*
%TD*%
D16*
%TO.C,TP19*%
X162500000Y-108000000D03*
%TD*%
%TO.C,TP30*%
X135083300Y-102750000D03*
%TD*%
D17*
%TO.C,R29*%
X168885600Y-125250000D03*
X168885600Y-123250000D03*
%TD*%
D14*
%TO.C,J3*%
X133720000Y-76750000D03*
D15*
X136260000Y-76750000D03*
X138800000Y-76750000D03*
X141340000Y-76750000D03*
X143880000Y-76750000D03*
X146420000Y-76750000D03*
X148960000Y-76750000D03*
X151500000Y-76750000D03*
X154040000Y-76750000D03*
X156580000Y-76750000D03*
%TD*%
D14*
%TO.C,Conn_01x02_Pin2*%
X190725000Y-124900000D03*
D15*
X193265000Y-124900000D03*
%TD*%
D18*
%TO.C,R5*%
X159750000Y-124262500D03*
X159750000Y-126262500D03*
%TD*%
D14*
%TO.C,J1*%
X115000000Y-123250000D03*
%TD*%
D19*
%TO.C,BZ1*%
X98000000Y-122750000D03*
X98000000Y-129750000D03*
X105000000Y-129750000D03*
X105000000Y-122750000D03*
%TD*%
D20*
%TO.C,C2*%
X108000000Y-135675000D03*
X108000000Y-133600000D03*
%TD*%
D13*
%TO.C,R15*%
X153374400Y-120680100D03*
X151374400Y-120680100D03*
%TD*%
D21*
%TO.C,U5*%
X140947200Y-118835100D03*
X140947200Y-117565100D03*
X140947200Y-116295100D03*
X140947200Y-115025100D03*
X135499000Y-115025100D03*
X135499000Y-116295100D03*
X135499000Y-117565100D03*
X135499000Y-118835100D03*
D22*
X138223100Y-116930100D03*
%TD*%
D12*
%TO.C,D6*%
X177750000Y-122550000D03*
X179750000Y-122550000D03*
%TD*%
D23*
%TO.C,C10*%
X172747200Y-124225000D03*
X172747200Y-126300000D03*
%TD*%
D16*
%TO.C,TP17*%
X158000000Y-108000000D03*
%TD*%
D24*
%TO.C,L1*%
X121500000Y-127000000D03*
X131000000Y-127000000D03*
%TD*%
D17*
%TO.C,R27*%
X167192800Y-125250000D03*
X167192800Y-123250000D03*
%TD*%
D25*
%TO.C,U10*%
X112887500Y-135500000D03*
X112887500Y-134550000D03*
X112887500Y-133600000D03*
X110612500Y-133600000D03*
X110612500Y-134550000D03*
X110612500Y-135500000D03*
%TD*%
D13*
%TO.C,R30*%
X179750000Y-124750000D03*
X177750000Y-124750000D03*
%TD*%
D18*
%TO.C,R19*%
X162500000Y-128050000D03*
X162500000Y-130050000D03*
%TD*%
D17*
%TO.C,R26*%
X170578400Y-125250000D03*
X170578400Y-123250000D03*
%TD*%
D12*
%TO.C,R6*%
X192500000Y-138800000D03*
X194500000Y-138800000D03*
%TD*%
D26*
%TO.C,SW5*%
X177000000Y-132500000D03*
X172500000Y-132500000D03*
X177000000Y-141600000D03*
X172500000Y-141600000D03*
%TD*%
D16*
%TO.C,TP11*%
X155250000Y-120750000D03*
%TD*%
D27*
%TO.C,RV1*%
X91850000Y-75750000D03*
D28*
X93000000Y-70250000D03*
D27*
X94150000Y-75750000D03*
%TD*%
D14*
%TO.C,J5*%
X139250000Y-128750000D03*
%TD*%
D13*
%TO.C,D4*%
X190000000Y-133000000D03*
X188000000Y-133000000D03*
%TD*%
D18*
%TO.C,R24*%
X193225000Y-127900000D03*
X193225000Y-129900000D03*
%TD*%
D16*
%TO.C,TP27*%
X138500000Y-102750000D03*
%TD*%
D26*
%TO.C,SW1*%
X162500000Y-132500000D03*
X158000000Y-132500000D03*
X162500000Y-141600000D03*
X158000000Y-141600000D03*
%TD*%
D29*
%TO.C,U9*%
X139220000Y-108905000D03*
X139220000Y-107635000D03*
X139220000Y-106365000D03*
X139220000Y-105095000D03*
X134280000Y-105095000D03*
X134280000Y-106365000D03*
X134280000Y-107635000D03*
X134280000Y-108905000D03*
%TD*%
D16*
%TO.C,TP16*%
X111750000Y-124250000D03*
%TD*%
D14*
%TO.C,J4*%
X139250000Y-131750000D03*
%TD*%
D20*
%TO.C,C3*%
X163500000Y-104500000D03*
X163500000Y-102425000D03*
%TD*%
D16*
%TO.C,TP29*%
X145000000Y-102750000D03*
%TD*%
%TO.C,TP26*%
X141916700Y-102750000D03*
%TD*%
D30*
%TO.C,U11*%
X146630000Y-106975000D03*
X146630000Y-107625000D03*
X146630000Y-108275000D03*
X146630000Y-108925000D03*
X146630000Y-109575000D03*
X146630000Y-110225000D03*
X146630000Y-110875000D03*
X146630000Y-111525000D03*
X152370000Y-111525000D03*
X152370000Y-110875000D03*
X152370000Y-110225000D03*
X152370000Y-109575000D03*
X152370000Y-108925000D03*
X152370000Y-108275000D03*
X152370000Y-107625000D03*
X152370000Y-106975000D03*
%TD*%
D16*
%TO.C,TP10*%
X141250000Y-120750000D03*
%TD*%
%TO.C,TP28*%
X127750000Y-104000000D03*
%TD*%
D31*
%TO.C,U1*%
X154000000Y-141760000D03*
X154000000Y-140490000D03*
X154000000Y-139220000D03*
X154000000Y-137950000D03*
X154000000Y-136680000D03*
X154000000Y-135410000D03*
X154000000Y-134140000D03*
X154000000Y-132870000D03*
X154000000Y-131600000D03*
X154000000Y-130330000D03*
X154000000Y-129060000D03*
X154000000Y-127790000D03*
X154000000Y-126520000D03*
X154000000Y-125250000D03*
D32*
X152235000Y-124000000D03*
X150965000Y-124000000D03*
X149695000Y-124000000D03*
X148425000Y-124000000D03*
X147155000Y-124000000D03*
X145885000Y-124000000D03*
X144615000Y-124000000D03*
X143345000Y-124000000D03*
X142075000Y-124000000D03*
X140805000Y-124000000D03*
X139535000Y-124000000D03*
X138265000Y-124000000D03*
D31*
X136500000Y-125250000D03*
X136500000Y-126520000D03*
X136500000Y-127790000D03*
X136500000Y-129060000D03*
X136500000Y-130330000D03*
X136500000Y-131600000D03*
X136500000Y-132870000D03*
X136500000Y-134140000D03*
X136500000Y-135410000D03*
X136500000Y-136680000D03*
X136500000Y-137950000D03*
X136500000Y-139220000D03*
X136500000Y-140490000D03*
X136500000Y-141760000D03*
D33*
X148150000Y-135440000D03*
X148150000Y-134040000D03*
X148150000Y-132640000D03*
X148150000Y-132640000D03*
X146750000Y-135440000D03*
X146750000Y-135440000D03*
X146750000Y-134040000D03*
X146750000Y-132640000D03*
X145350000Y-135440000D03*
X145350000Y-134040000D03*
X145350000Y-132640000D03*
%TD*%
D34*
%TO.C,Q1*%
X142000000Y-107350000D03*
X142000000Y-109250000D03*
X143875000Y-108300000D03*
%TD*%
D35*
%TO.C,U6*%
X149650300Y-115025100D03*
X149650300Y-116295100D03*
X149650300Y-117565100D03*
X149650300Y-118835100D03*
X155098500Y-118835100D03*
X155098500Y-117565100D03*
X155098500Y-116295100D03*
X155098500Y-115025100D03*
D36*
X152374400Y-116930100D03*
%TD*%
D18*
%TO.C,R10*%
X177000000Y-128050000D03*
X177000000Y-130050000D03*
%TD*%
D12*
%TO.C,D1*%
X181750000Y-122550000D03*
X183750000Y-122550000D03*
%TD*%
D37*
%TO.C,C8*%
X148462500Y-105000000D03*
X150537500Y-105000000D03*
%TD*%
D13*
%TO.C,D3*%
X190000000Y-138800000D03*
X188000000Y-138800000D03*
%TD*%
D20*
%TO.C,C6*%
X161250000Y-104500000D03*
X161250000Y-102425000D03*
%TD*%
D14*
%TO.C,Conn_01x04_Pin2*%
X129130000Y-111700000D03*
D15*
X131670000Y-111700000D03*
X134210000Y-111700000D03*
X136750000Y-111700000D03*
%TD*%
D12*
%TO.C,R22*%
X109500000Y-130500000D03*
X111500000Y-130500000D03*
%TD*%
D14*
%TO.C,Conn_01x04_Pin1*%
X163330000Y-111750000D03*
D15*
X160790000Y-111750000D03*
X158250000Y-111750000D03*
X155710000Y-111750000D03*
%TD*%
D26*
%TO.C,SW2*%
X169750000Y-132500000D03*
X165250000Y-132500000D03*
X169750000Y-141600000D03*
X165250000Y-141600000D03*
%TD*%
D38*
%TO.C,con1*%
X106500000Y-76580000D03*
D39*
X106500000Y-71500000D03*
%TD*%
D14*
%TO.C,Conn_01x02_Pin1*%
X131946300Y-116050000D03*
D15*
X131946300Y-118590000D03*
%TD*%
D20*
%TO.C,C7*%
X155250000Y-104500000D03*
X155250000Y-102425000D03*
%TD*%
%TO.C,C4*%
X115250000Y-135675000D03*
X115250000Y-133600000D03*
%TD*%
D40*
%TO.C,Q2*%
X131500000Y-106750000D03*
X131500000Y-104850000D03*
X129625000Y-105800000D03*
%TD*%
D41*
%TO.C,SW6*%
X114500000Y-141750000D03*
D42*
X112000000Y-141750000D03*
X109500000Y-141750000D03*
X109500000Y-138450000D03*
X112000000Y-138450000D03*
X114500000Y-138450000D03*
%TD*%
D14*
%TO.C,J2*%
X139250000Y-140000000D03*
%TD*%
D43*
%TO.C,USB-B-S-X-X-TH1*%
X127250000Y-134250000D03*
D44*
X124750000Y-134250000D03*
X124750000Y-136250000D03*
X127250000Y-136250000D03*
D45*
X119980000Y-138950000D03*
X132020000Y-138950000D03*
%TD*%
D23*
%TO.C,C9*%
X174500000Y-124225000D03*
X174500000Y-126300000D03*
%TD*%
D17*
%TO.C,R28*%
X165500000Y-125250000D03*
X165500000Y-123250000D03*
%TD*%
%TO.C,R23*%
X190225000Y-129900000D03*
X190225000Y-127900000D03*
%TD*%
D18*
%TO.C,R7*%
X157750000Y-124262500D03*
X157750000Y-126262500D03*
%TD*%
D13*
%TO.C,R31*%
X183750000Y-124750000D03*
X181750000Y-124750000D03*
%TD*%
D12*
%TO.C,R12*%
X192500000Y-133000000D03*
X194500000Y-133000000D03*
%TD*%
D13*
%TO.C,D2*%
X190000000Y-141750000D03*
X188000000Y-141750000D03*
%TD*%
D18*
%TO.C,R18*%
X169750000Y-128050000D03*
X169750000Y-130050000D03*
%TD*%
D27*
%TO.C,RV2*%
X196200000Y-75750000D03*
D28*
X197350000Y-70250000D03*
D27*
X198500000Y-75750000D03*
%TD*%
D13*
%TO.C,R3*%
X131750000Y-108750000D03*
X129750000Y-108750000D03*
%TD*%
D16*
%TO.C,TP25*%
X127750000Y-107250000D03*
%TD*%
%TO.C,TP21*%
X155750000Y-108000000D03*
%TD*%
D12*
%TO.C,R17*%
X192500000Y-135750000D03*
X194500000Y-135750000D03*
%TD*%
D17*
%TO.C,R21*%
X108750000Y-124750000D03*
X108750000Y-122750000D03*
%TD*%
D18*
%TO.C,R20*%
X184250000Y-128050000D03*
X184250000Y-130050000D03*
%TD*%
D12*
%TO.C,R4*%
X192500000Y-141800000D03*
X194500000Y-141800000D03*
%TD*%
D13*
%TO.C,R13*%
X143750000Y-105250000D03*
X141750000Y-105250000D03*
%TD*%
%TO.C,D5*%
X190000000Y-135750000D03*
X188000000Y-135750000D03*
%TD*%
D26*
%TO.C,SW3*%
X184250000Y-132500000D03*
X179750000Y-132500000D03*
X184250000Y-141600000D03*
X179750000Y-141600000D03*
%TD*%
D16*
%TO.C,TP18*%
X160250000Y-108000000D03*
%TD*%
M02*
