%TF.GenerationSoftware,KiCad,Pcbnew,9.0.3*%
%TF.CreationDate,2026-04-23T16:24:05-03:00*%
%TF.ProjectId,projeto,70726f6a-6574-46f2-9e6b-696361645f70,rev?*%
%TF.SameCoordinates,Original*%
%TF.FileFunction,Soldermask,Bot*%
%TF.FilePolarity,Negative*%
%FSLAX46Y46*%
G04 Gerber Fmt 4.6, Leading zero omitted, Abs format (unit mm)*
G04 Created by KiCad (PCBNEW 9.0.3) date 2026-04-23 16:24:05*
%MOMM*%
%LPD*%
G01*
G04 APERTURE LIST*
G04 Aperture macros list*
%AMRoundRect*
0 Rectangle with rounded corners*
0 $1 Rounding radius*
0 $2 $3 $4 $5 $6 $7 $8 $9 X,Y pos of 4 corners*
0 Add a 4 corners polygon primitive as box body*
4,1,4,$2,$3,$4,$5,$6,$7,$8,$9,$2,$3,0*
0 Add four circle primitives for the rounded corners*
1,1,$1+$1,$2,$3*
1,1,$1+$1,$4,$5*
1,1,$1+$1,$6,$7*
1,1,$1+$1,$8,$9*
0 Add four rect primitives between the rounded corners*
20,1,$1+$1,$2,$3,$4,$5,0*
20,1,$1+$1,$4,$5,$6,$7,0*
20,1,$1+$1,$6,$7,$8,$9,0*
20,1,$1+$1,$8,$9,$2,$3,0*%
G04 Aperture macros list end*
%ADD10R,0.609600X1.397000*%
%ADD11C,1.447800*%
%ADD12R,1.092200X2.387600*%
%ADD13R,1.700000X1.700000*%
%ADD14C,1.700000*%
%ADD15R,2.800000X2.800000*%
%ADD16C,2.800000*%
%ADD17RoundRect,0.250000X0.450000X0.450000X-0.450000X0.450000X-0.450000X-0.450000X0.450000X-0.450000X0*%
%ADD18C,1.400000*%
%ADD19RoundRect,0.102000X-0.704000X-0.704000X0.704000X-0.704000X0.704000X0.704000X-0.704000X0.704000X0*%
%ADD20C,1.612000*%
%ADD21C,3.520000*%
%ADD22RoundRect,0.250000X0.450000X-0.350000X0.450000X0.350000X-0.450000X0.350000X-0.450000X-0.350000X0*%
%ADD23RoundRect,0.197500X-0.632500X0.197500X-0.632500X-0.197500X0.632500X-0.197500X0.632500X0.197500X0*%
%ADD24RoundRect,0.250000X0.350000X0.450000X-0.350000X0.450000X-0.350000X-0.450000X0.350000X-0.450000X0*%
%ADD25RoundRect,0.250000X-0.475000X0.337500X-0.475000X-0.337500X0.475000X-0.337500X0.475000X0.337500X0*%
%ADD26RoundRect,0.250000X-0.350000X-0.450000X0.350000X-0.450000X0.350000X0.450000X-0.350000X0.450000X0*%
G04 APERTURE END LIST*
D10*
%TO.C,J6*%
X174526301Y-127249999D03*
X173426300Y-127249999D03*
X172326300Y-127249999D03*
X171226300Y-127249999D03*
X170126299Y-127249999D03*
X169026299Y-127249999D03*
X167926301Y-127249999D03*
X166826301Y-127249999D03*
X165726300Y-127249999D03*
D11*
X164906299Y-138669999D03*
X171706301Y-138669999D03*
D12*
X159756300Y-138250000D03*
X175906300Y-138250000D03*
X159756300Y-129250000D03*
X175906300Y-129250000D03*
%TD*%
D13*
%TO.C,Conn_01x02_Pin3*%
X158651200Y-118550000D03*
D14*
X158651200Y-116010000D03*
%TD*%
D13*
%TO.C,J3*%
X133720000Y-76750000D03*
D14*
X136260000Y-76750000D03*
X138800000Y-76750000D03*
X141340000Y-76750000D03*
X143880000Y-76750000D03*
X146420000Y-76750000D03*
X148960000Y-76750000D03*
X151500000Y-76750000D03*
X154040000Y-76750000D03*
X156580000Y-76750000D03*
%TD*%
D13*
%TO.C,Conn_01x02_Pin2*%
X190725000Y-124900000D03*
D14*
X193265000Y-124900000D03*
%TD*%
D13*
%TO.C,J1*%
X115000000Y-123250000D03*
%TD*%
%TO.C,J5*%
X139250000Y-128750000D03*
%TD*%
%TO.C,J4*%
X139250000Y-131750000D03*
%TD*%
%TO.C,Conn_01x04_Pin2*%
X129130000Y-111700000D03*
D14*
X131670000Y-111700000D03*
X134210000Y-111700000D03*
X136750000Y-111700000D03*
%TD*%
D13*
%TO.C,Conn_01x04_Pin1*%
X163330000Y-111750000D03*
D14*
X160790000Y-111750000D03*
X158250000Y-111750000D03*
X155710000Y-111750000D03*
%TD*%
D15*
%TO.C,con1*%
X106500000Y-76580000D03*
D16*
X106500000Y-71500000D03*
%TD*%
D13*
%TO.C,Conn_01x02_Pin1*%
X131946300Y-116050000D03*
D14*
X131946300Y-118590000D03*
%TD*%
D17*
%TO.C,SW6*%
X114500000Y-141750000D03*
D18*
X112000000Y-141750000D03*
X109500000Y-141750000D03*
X109500000Y-138450000D03*
X112000000Y-138450000D03*
X114500000Y-138450000D03*
%TD*%
D13*
%TO.C,J2*%
X139250000Y-140000000D03*
%TD*%
D19*
%TO.C,USB-B-S-X-X-TH1*%
X127250000Y-134250000D03*
D20*
X124750000Y-134250000D03*
X124750000Y-136250000D03*
X127250000Y-136250000D03*
D21*
X119980000Y-138950000D03*
X132020000Y-138950000D03*
%TD*%
D22*
%TO.C,R8*%
X65772500Y-73462500D03*
X65772500Y-71462500D03*
%TD*%
D23*
%TO.C,U8*%
X217985000Y-71581200D03*
X221985000Y-71581200D03*
X221985000Y-73381200D03*
X217985000Y-73381200D03*
%TD*%
D24*
%TO.C,R32*%
X133500000Y-134750000D03*
X131500000Y-134750000D03*
%TD*%
D25*
%TO.C,C1*%
X84772500Y-71425000D03*
X84772500Y-73500000D03*
%TD*%
D23*
%TO.C,U3*%
X78000000Y-71600000D03*
X82000000Y-71600000D03*
X82000000Y-73400000D03*
X78000000Y-73400000D03*
%TD*%
D26*
%TO.C,R2*%
X74257500Y-75712500D03*
X76257500Y-75712500D03*
%TD*%
D22*
%TO.C,R9*%
X75257500Y-73462500D03*
X75257500Y-71462500D03*
%TD*%
%TO.C,R16*%
X205757500Y-73443700D03*
X205757500Y-71443700D03*
%TD*%
D26*
%TO.C,R14*%
X214242500Y-75731200D03*
X216242500Y-75731200D03*
%TD*%
D22*
%TO.C,R1*%
X215242500Y-73443700D03*
X215242500Y-71443700D03*
%TD*%
D23*
%TO.C,U7*%
X208500000Y-71581200D03*
X212500000Y-71581200D03*
X212500000Y-73381200D03*
X208500000Y-73381200D03*
%TD*%
D25*
%TO.C,C5*%
X224757500Y-71406200D03*
X224757500Y-73481200D03*
%TD*%
D24*
%TO.C,R33*%
X133500000Y-132500000D03*
X131500000Y-132500000D03*
%TD*%
D23*
%TO.C,U2*%
X68515000Y-71600000D03*
X72515000Y-71600000D03*
X72515000Y-73400000D03*
X68515000Y-73400000D03*
%TD*%
M02*
