M48
; DRILL file {KiCad 9.0.3} date 2026-04-23T16:24:21-0300
; FORMAT={-:-/ absolute / metric / decimal}
; #@! TF.CreationDate,2026-04-23T16:24:21-03:00
; #@! TF.GenerationSoftware,Kicad,Pcbnew,9.0.3
; #@! TF.FileFunction,Plated,1,2,PTH
FMAT,2
METRIC
; #@! TA.AperFunction,Plated,PTH,ViaDrill
T1C0.300
; #@! TA.AperFunction,Plated,PTH,ComponentDrill
T2C0.900
; #@! TA.AperFunction,Plated,PTH,ComponentDrill
T3C0.940
; #@! TA.AperFunction,Plated,PTH,ComponentDrill
T4C1.000
; #@! TA.AperFunction,Plated,PTH,ComponentDrill
T5C1.750
; #@! TA.AperFunction,Plated,PTH,ComponentDrill
T6C2.300
%
G90
G05
T1
X74.257Y-75.712
X82.0Y-73.4
X84.772Y-73.5
X91.85Y-75.75
X93.0Y-70.25
X99.0Y-72.75
X99.25Y-76.0
X100.0Y-72.75
X100.25Y-76.0
X101.0Y-72.75
X101.25Y-76.0
X103.25Y-90.5
X103.375Y-84.875
X104.0Y-84.25
X104.0Y-91.25
X104.75Y-92.25
X107.698Y-129.74
X109.25Y-132.25
X109.5Y-130.25
X110.5Y-72.75
X111.25Y-72.75
X112.0Y-72.75
X114.5Y-133.6
X115.75Y-133.6
X121.25Y-133.5
X121.25Y-135.25
X121.25Y-141.75
X121.5Y-127.0
X123.75Y-131.0
X127.75Y-107.25
X131.085Y-120.415
X131.914Y-120.25
X132.25Y-102.75
X133.5Y-102.75
X135.487Y-115.013
X136.5Y-108.75
X136.5Y-127.79
X136.5Y-134.14
X136.5Y-135.41
X136.5Y-136.68
X136.5Y-137.95
X136.5Y-139.22
X137.0Y-108.0
X137.25Y-118.25
X138.25Y-118.25
X139.25Y-118.25
X139.75Y-103.5
X140.947Y-115.025
X141.0Y-101.5
X141.25Y-120.75
X142.0Y-107.35
X143.345Y-124.0
X143.75Y-105.25
X144.75Y-107.25
X145.25Y-99.25
X145.337Y-109.301
X145.547Y-107.628
X146.5Y-99.25
X146.75Y-135.44
X147.48Y-134.77
X147.75Y-99.25
X148.0Y-108.25
X148.064Y-107.355
X148.15Y-134.0
X148.15Y-135.44
X148.801Y-107.779
X149.65Y-118.835
X149.99Y-107.429
X150.541Y-108.04
X150.74Y-126.091
X151.0Y-108.925
X151.294Y-125.448
X151.75Y-118.25
X152.25Y-128.746
X152.25Y-129.594
X152.25Y-131.15
X152.5Y-118.25
X152.5Y-142.0
X153.25Y-118.25
X154.0Y-140.49
X154.5Y-77.75
X155.099Y-118.835
X155.25Y-104.5
X155.5Y-96.25
X155.75Y-108.0
X157.434Y-124.218
X158.25Y-103.5
X159.5Y-133.75
X159.75Y-124.65
X161.0Y-131.5
X161.25Y-102.425
X161.25Y-122.25
X162.25Y-122.25
X162.5Y-132.5
X162.5Y-141.6
X162.75Y-125.25
X164.0Y-130.75
X164.75Y-122.0
X165.175Y-102.325
X165.5Y-129.25
X165.75Y-103.75
X166.484Y-132.476
X166.826Y-127.25
X167.1Y-131.89
X167.85Y-132.459
X167.926Y-127.25
X168.5Y-131.75
X169.026Y-127.25
X169.75Y-132.25
X169.75Y-141.6
X169.982Y-126.9
X171.0Y-128.75
X173.5Y-135.0
X175.25Y-136.25
X175.25Y-138.5
X176.134Y-127.016
X177.0Y-132.5
X177.0Y-141.6
X181.75Y-142.0
X187.75Y-141.75
X188.0Y-133.0
X188.0Y-135.75
X188.0Y-138.8
X196.2Y-75.75
X197.35Y-70.25
X212.5Y-73.381
T2
X109.5Y-138.45
X109.5Y-141.75
X112.0Y-138.45
X112.0Y-141.75
X114.5Y-138.45
X114.5Y-141.75
X124.75Y-134.25
X124.75Y-136.25
X127.25Y-134.25
X127.25Y-136.25
T3
X164.906Y-138.67
X171.706Y-138.67
T4
X115.0Y-123.25
X129.13Y-111.7
X131.67Y-111.7
X131.946Y-116.05
X131.946Y-118.59
X133.72Y-76.75
X134.21Y-111.7
X136.26Y-76.75
X136.75Y-111.7
X138.8Y-76.75
X139.25Y-128.75
X139.25Y-131.75
X139.25Y-140.0
X141.34Y-76.75
X143.88Y-76.75
X146.42Y-76.75
X148.96Y-76.75
X151.5Y-76.75
X154.04Y-76.75
X155.71Y-111.75
X156.58Y-76.75
X158.25Y-111.75
X158.651Y-116.01
X158.651Y-118.55
X160.79Y-111.75
X163.33Y-111.75
X190.725Y-124.9
X193.265Y-124.9
T5
X106.5Y-71.5
X106.5Y-76.58
T6
X119.98Y-138.95
X132.02Y-138.95
M30
