%TF.GenerationSoftware,KiCad,Pcbnew,9.0.3*%
%TF.CreationDate,2026-04-23T16:24:05-03:00*%
%TF.ProjectId,projeto,70726f6a-6574-46f2-9e6b-696361645f70,rev?*%
%TF.SameCoordinates,Original*%
%TF.FileFunction,Legend,Bot*%
%TF.FilePolarity,Positive*%
%FSLAX46Y46*%
G04 Gerber Fmt 4.6, Leading zero omitted, Abs format (unit mm)*
G04 Created by KiCad (PCBNEW 9.0.3) date 2026-04-23 16:24:05*
%MOMM*%
%LPD*%
G01*
G04 APERTURE LIST*
%ADD10C,0.150000*%
%ADD11C,0.508000*%
%ADD12C,0.152400*%
%ADD13C,0.120000*%
G04 APERTURE END LIST*
D10*
X109619819Y-87586779D02*
X108619819Y-87586779D01*
X109619819Y-88015350D02*
X109096009Y-88015350D01*
X109096009Y-88015350D02*
X109000771Y-87967731D01*
X109000771Y-87967731D02*
X108953152Y-87872493D01*
X108953152Y-87872493D02*
X108953152Y-87729636D01*
X108953152Y-87729636D02*
X109000771Y-87634398D01*
X109000771Y-87634398D02*
X109048390Y-87586779D01*
X108953152Y-88348684D02*
X108953152Y-88729636D01*
X108619819Y-88491541D02*
X109476961Y-88491541D01*
X109476961Y-88491541D02*
X109572200Y-88539160D01*
X109572200Y-88539160D02*
X109619819Y-88634398D01*
X109619819Y-88634398D02*
X109619819Y-88729636D01*
X108953152Y-88920113D02*
X108953152Y-89301065D01*
X108619819Y-89062970D02*
X109476961Y-89062970D01*
X109476961Y-89062970D02*
X109572200Y-89110589D01*
X109572200Y-89110589D02*
X109619819Y-89205827D01*
X109619819Y-89205827D02*
X109619819Y-89301065D01*
X108953152Y-89634399D02*
X109953152Y-89634399D01*
X109000771Y-89634399D02*
X108953152Y-89729637D01*
X108953152Y-89729637D02*
X108953152Y-89920113D01*
X108953152Y-89920113D02*
X109000771Y-90015351D01*
X109000771Y-90015351D02*
X109048390Y-90062970D01*
X109048390Y-90062970D02*
X109143628Y-90110589D01*
X109143628Y-90110589D02*
X109429342Y-90110589D01*
X109429342Y-90110589D02*
X109524580Y-90062970D01*
X109524580Y-90062970D02*
X109572200Y-90015351D01*
X109572200Y-90015351D02*
X109619819Y-89920113D01*
X109619819Y-89920113D02*
X109619819Y-89729637D01*
X109619819Y-89729637D02*
X109572200Y-89634399D01*
X109572200Y-90491542D02*
X109619819Y-90586780D01*
X109619819Y-90586780D02*
X109619819Y-90777256D01*
X109619819Y-90777256D02*
X109572200Y-90872494D01*
X109572200Y-90872494D02*
X109476961Y-90920113D01*
X109476961Y-90920113D02*
X109429342Y-90920113D01*
X109429342Y-90920113D02*
X109334104Y-90872494D01*
X109334104Y-90872494D02*
X109286485Y-90777256D01*
X109286485Y-90777256D02*
X109286485Y-90634399D01*
X109286485Y-90634399D02*
X109238866Y-90539161D01*
X109238866Y-90539161D02*
X109143628Y-90491542D01*
X109143628Y-90491542D02*
X109096009Y-90491542D01*
X109096009Y-90491542D02*
X109000771Y-90539161D01*
X109000771Y-90539161D02*
X108953152Y-90634399D01*
X108953152Y-90634399D02*
X108953152Y-90777256D01*
X108953152Y-90777256D02*
X109000771Y-90872494D01*
X109524580Y-91348685D02*
X109572200Y-91396304D01*
X109572200Y-91396304D02*
X109619819Y-91348685D01*
X109619819Y-91348685D02*
X109572200Y-91301066D01*
X109572200Y-91301066D02*
X109524580Y-91348685D01*
X109524580Y-91348685D02*
X109619819Y-91348685D01*
X109000771Y-91348685D02*
X109048390Y-91396304D01*
X109048390Y-91396304D02*
X109096009Y-91348685D01*
X109096009Y-91348685D02*
X109048390Y-91301066D01*
X109048390Y-91301066D02*
X109000771Y-91348685D01*
X109000771Y-91348685D02*
X109096009Y-91348685D01*
X108572200Y-92539160D02*
X109857914Y-91682018D01*
X108572200Y-93586779D02*
X109857914Y-92729637D01*
X108953152Y-94348684D02*
X109762676Y-94348684D01*
X109762676Y-94348684D02*
X109857914Y-94301065D01*
X109857914Y-94301065D02*
X109905533Y-94253446D01*
X109905533Y-94253446D02*
X109953152Y-94158208D01*
X109953152Y-94158208D02*
X109953152Y-94015351D01*
X109953152Y-94015351D02*
X109905533Y-93920113D01*
X109572200Y-94348684D02*
X109619819Y-94253446D01*
X109619819Y-94253446D02*
X109619819Y-94062970D01*
X109619819Y-94062970D02*
X109572200Y-93967732D01*
X109572200Y-93967732D02*
X109524580Y-93920113D01*
X109524580Y-93920113D02*
X109429342Y-93872494D01*
X109429342Y-93872494D02*
X109143628Y-93872494D01*
X109143628Y-93872494D02*
X109048390Y-93920113D01*
X109048390Y-93920113D02*
X109000771Y-93967732D01*
X109000771Y-93967732D02*
X108953152Y-94062970D01*
X108953152Y-94062970D02*
X108953152Y-94253446D01*
X108953152Y-94253446D02*
X109000771Y-94348684D01*
X109619819Y-94824875D02*
X108953152Y-94824875D01*
X108619819Y-94824875D02*
X108667438Y-94777256D01*
X108667438Y-94777256D02*
X108715057Y-94824875D01*
X108715057Y-94824875D02*
X108667438Y-94872494D01*
X108667438Y-94872494D02*
X108619819Y-94824875D01*
X108619819Y-94824875D02*
X108715057Y-94824875D01*
X108953152Y-95158208D02*
X108953152Y-95539160D01*
X108619819Y-95301065D02*
X109476961Y-95301065D01*
X109476961Y-95301065D02*
X109572200Y-95348684D01*
X109572200Y-95348684D02*
X109619819Y-95443922D01*
X109619819Y-95443922D02*
X109619819Y-95539160D01*
X109619819Y-95872494D02*
X108619819Y-95872494D01*
X109619819Y-96301065D02*
X109096009Y-96301065D01*
X109096009Y-96301065D02*
X109000771Y-96253446D01*
X109000771Y-96253446D02*
X108953152Y-96158208D01*
X108953152Y-96158208D02*
X108953152Y-96015351D01*
X108953152Y-96015351D02*
X109000771Y-95920113D01*
X109000771Y-95920113D02*
X109048390Y-95872494D01*
X108953152Y-97205827D02*
X109619819Y-97205827D01*
X108953152Y-96777256D02*
X109476961Y-96777256D01*
X109476961Y-96777256D02*
X109572200Y-96824875D01*
X109572200Y-96824875D02*
X109619819Y-96920113D01*
X109619819Y-96920113D02*
X109619819Y-97062970D01*
X109619819Y-97062970D02*
X109572200Y-97158208D01*
X109572200Y-97158208D02*
X109524580Y-97205827D01*
X109619819Y-97682018D02*
X108619819Y-97682018D01*
X109000771Y-97682018D02*
X108953152Y-97777256D01*
X108953152Y-97777256D02*
X108953152Y-97967732D01*
X108953152Y-97967732D02*
X109000771Y-98062970D01*
X109000771Y-98062970D02*
X109048390Y-98110589D01*
X109048390Y-98110589D02*
X109143628Y-98158208D01*
X109143628Y-98158208D02*
X109429342Y-98158208D01*
X109429342Y-98158208D02*
X109524580Y-98110589D01*
X109524580Y-98110589D02*
X109572200Y-98062970D01*
X109572200Y-98062970D02*
X109619819Y-97967732D01*
X109619819Y-97967732D02*
X109619819Y-97777256D01*
X109619819Y-97777256D02*
X109572200Y-97682018D01*
X109524580Y-98586780D02*
X109572200Y-98634399D01*
X109572200Y-98634399D02*
X109619819Y-98586780D01*
X109619819Y-98586780D02*
X109572200Y-98539161D01*
X109572200Y-98539161D02*
X109524580Y-98586780D01*
X109524580Y-98586780D02*
X109619819Y-98586780D01*
X109572200Y-99491541D02*
X109619819Y-99396303D01*
X109619819Y-99396303D02*
X109619819Y-99205827D01*
X109619819Y-99205827D02*
X109572200Y-99110589D01*
X109572200Y-99110589D02*
X109524580Y-99062970D01*
X109524580Y-99062970D02*
X109429342Y-99015351D01*
X109429342Y-99015351D02*
X109143628Y-99015351D01*
X109143628Y-99015351D02*
X109048390Y-99062970D01*
X109048390Y-99062970D02*
X109000771Y-99110589D01*
X109000771Y-99110589D02*
X108953152Y-99205827D01*
X108953152Y-99205827D02*
X108953152Y-99396303D01*
X108953152Y-99396303D02*
X109000771Y-99491541D01*
X109619819Y-100062970D02*
X109572200Y-99967732D01*
X109572200Y-99967732D02*
X109524580Y-99920113D01*
X109524580Y-99920113D02*
X109429342Y-99872494D01*
X109429342Y-99872494D02*
X109143628Y-99872494D01*
X109143628Y-99872494D02*
X109048390Y-99920113D01*
X109048390Y-99920113D02*
X109000771Y-99967732D01*
X109000771Y-99967732D02*
X108953152Y-100062970D01*
X108953152Y-100062970D02*
X108953152Y-100205827D01*
X108953152Y-100205827D02*
X109000771Y-100301065D01*
X109000771Y-100301065D02*
X109048390Y-100348684D01*
X109048390Y-100348684D02*
X109143628Y-100396303D01*
X109143628Y-100396303D02*
X109429342Y-100396303D01*
X109429342Y-100396303D02*
X109524580Y-100348684D01*
X109524580Y-100348684D02*
X109572200Y-100301065D01*
X109572200Y-100301065D02*
X109619819Y-100205827D01*
X109619819Y-100205827D02*
X109619819Y-100062970D01*
X109619819Y-100824875D02*
X108953152Y-100824875D01*
X109048390Y-100824875D02*
X109000771Y-100872494D01*
X109000771Y-100872494D02*
X108953152Y-100967732D01*
X108953152Y-100967732D02*
X108953152Y-101110589D01*
X108953152Y-101110589D02*
X109000771Y-101205827D01*
X109000771Y-101205827D02*
X109096009Y-101253446D01*
X109096009Y-101253446D02*
X109619819Y-101253446D01*
X109096009Y-101253446D02*
X109000771Y-101301065D01*
X109000771Y-101301065D02*
X108953152Y-101396303D01*
X108953152Y-101396303D02*
X108953152Y-101539160D01*
X108953152Y-101539160D02*
X109000771Y-101634399D01*
X109000771Y-101634399D02*
X109096009Y-101682018D01*
X109096009Y-101682018D02*
X109619819Y-101682018D01*
X108572200Y-102872493D02*
X109857914Y-102015351D01*
X109334104Y-103158208D02*
X109334104Y-103634398D01*
X109619819Y-103062970D02*
X108619819Y-103396303D01*
X108619819Y-103396303D02*
X109619819Y-103729636D01*
X109619819Y-104205827D02*
X109572200Y-104110589D01*
X109572200Y-104110589D02*
X109476961Y-104062970D01*
X109476961Y-104062970D02*
X108619819Y-104062970D01*
X109619819Y-104586780D02*
X108953152Y-104586780D01*
X108619819Y-104586780D02*
X108667438Y-104539161D01*
X108667438Y-104539161D02*
X108715057Y-104586780D01*
X108715057Y-104586780D02*
X108667438Y-104634399D01*
X108667438Y-104634399D02*
X108619819Y-104586780D01*
X108619819Y-104586780D02*
X108715057Y-104586780D01*
X109572200Y-105015351D02*
X109619819Y-105110589D01*
X109619819Y-105110589D02*
X109619819Y-105301065D01*
X109619819Y-105301065D02*
X109572200Y-105396303D01*
X109572200Y-105396303D02*
X109476961Y-105443922D01*
X109476961Y-105443922D02*
X109429342Y-105443922D01*
X109429342Y-105443922D02*
X109334104Y-105396303D01*
X109334104Y-105396303D02*
X109286485Y-105301065D01*
X109286485Y-105301065D02*
X109286485Y-105158208D01*
X109286485Y-105158208D02*
X109238866Y-105062970D01*
X109238866Y-105062970D02*
X109143628Y-105015351D01*
X109143628Y-105015351D02*
X109096009Y-105015351D01*
X109096009Y-105015351D02*
X109000771Y-105062970D01*
X109000771Y-105062970D02*
X108953152Y-105158208D01*
X108953152Y-105158208D02*
X108953152Y-105301065D01*
X108953152Y-105301065D02*
X109000771Y-105396303D01*
X109619819Y-106015351D02*
X109572200Y-105920113D01*
X109572200Y-105920113D02*
X109524580Y-105872494D01*
X109524580Y-105872494D02*
X109429342Y-105824875D01*
X109429342Y-105824875D02*
X109143628Y-105824875D01*
X109143628Y-105824875D02*
X109048390Y-105872494D01*
X109048390Y-105872494D02*
X109000771Y-105920113D01*
X109000771Y-105920113D02*
X108953152Y-106015351D01*
X108953152Y-106015351D02*
X108953152Y-106158208D01*
X108953152Y-106158208D02*
X109000771Y-106253446D01*
X109000771Y-106253446D02*
X109048390Y-106301065D01*
X109048390Y-106301065D02*
X109143628Y-106348684D01*
X109143628Y-106348684D02*
X109429342Y-106348684D01*
X109429342Y-106348684D02*
X109524580Y-106301065D01*
X109524580Y-106301065D02*
X109572200Y-106253446D01*
X109572200Y-106253446D02*
X109619819Y-106158208D01*
X109619819Y-106158208D02*
X109619819Y-106015351D01*
X108953152Y-106777256D02*
X109619819Y-106777256D01*
X109048390Y-106777256D02*
X109000771Y-106824875D01*
X109000771Y-106824875D02*
X108953152Y-106920113D01*
X108953152Y-106920113D02*
X108953152Y-107062970D01*
X108953152Y-107062970D02*
X109000771Y-107158208D01*
X109000771Y-107158208D02*
X109096009Y-107205827D01*
X109096009Y-107205827D02*
X109619819Y-107205827D01*
X108619819Y-107539161D02*
X108619819Y-108110589D01*
X109619819Y-107824875D02*
X108619819Y-107824875D01*
X109619819Y-108443923D02*
X108953152Y-108443923D01*
X109143628Y-108443923D02*
X109048390Y-108491542D01*
X109048390Y-108491542D02*
X109000771Y-108539161D01*
X109000771Y-108539161D02*
X108953152Y-108634399D01*
X108953152Y-108634399D02*
X108953152Y-108729637D01*
X109619819Y-109062971D02*
X108953152Y-109062971D01*
X108619819Y-109062971D02*
X108667438Y-109015352D01*
X108667438Y-109015352D02*
X108715057Y-109062971D01*
X108715057Y-109062971D02*
X108667438Y-109110590D01*
X108667438Y-109110590D02*
X108619819Y-109062971D01*
X108619819Y-109062971D02*
X108715057Y-109062971D01*
X109572200Y-109491542D02*
X109619819Y-109586780D01*
X109619819Y-109586780D02*
X109619819Y-109777256D01*
X109619819Y-109777256D02*
X109572200Y-109872494D01*
X109572200Y-109872494D02*
X109476961Y-109920113D01*
X109476961Y-109920113D02*
X109429342Y-109920113D01*
X109429342Y-109920113D02*
X109334104Y-109872494D01*
X109334104Y-109872494D02*
X109286485Y-109777256D01*
X109286485Y-109777256D02*
X109286485Y-109634399D01*
X109286485Y-109634399D02*
X109238866Y-109539161D01*
X109238866Y-109539161D02*
X109143628Y-109491542D01*
X109143628Y-109491542D02*
X109096009Y-109491542D01*
X109096009Y-109491542D02*
X109000771Y-109539161D01*
X109000771Y-109539161D02*
X108953152Y-109634399D01*
X108953152Y-109634399D02*
X108953152Y-109777256D01*
X108953152Y-109777256D02*
X109000771Y-109872494D01*
X108953152Y-110205828D02*
X108953152Y-110586780D01*
X108619819Y-110348685D02*
X109476961Y-110348685D01*
X109476961Y-110348685D02*
X109572200Y-110396304D01*
X109572200Y-110396304D02*
X109619819Y-110491542D01*
X109619819Y-110491542D02*
X109619819Y-110586780D01*
X109619819Y-111348685D02*
X109096009Y-111348685D01*
X109096009Y-111348685D02*
X109000771Y-111301066D01*
X109000771Y-111301066D02*
X108953152Y-111205828D01*
X108953152Y-111205828D02*
X108953152Y-111015352D01*
X108953152Y-111015352D02*
X109000771Y-110920114D01*
X109572200Y-111348685D02*
X109619819Y-111253447D01*
X109619819Y-111253447D02*
X109619819Y-111015352D01*
X109619819Y-111015352D02*
X109572200Y-110920114D01*
X109572200Y-110920114D02*
X109476961Y-110872495D01*
X109476961Y-110872495D02*
X109381723Y-110872495D01*
X109381723Y-110872495D02*
X109286485Y-110920114D01*
X109286485Y-110920114D02*
X109238866Y-111015352D01*
X109238866Y-111015352D02*
X109238866Y-111253447D01*
X109238866Y-111253447D02*
X109191247Y-111348685D01*
X109619819Y-111967733D02*
X109572200Y-111872495D01*
X109572200Y-111872495D02*
X109524580Y-111824876D01*
X109524580Y-111824876D02*
X109429342Y-111777257D01*
X109429342Y-111777257D02*
X109143628Y-111777257D01*
X109143628Y-111777257D02*
X109048390Y-111824876D01*
X109048390Y-111824876D02*
X109000771Y-111872495D01*
X109000771Y-111872495D02*
X108953152Y-111967733D01*
X108953152Y-111967733D02*
X108953152Y-112110590D01*
X108953152Y-112110590D02*
X109000771Y-112205828D01*
X109000771Y-112205828D02*
X109048390Y-112253447D01*
X109048390Y-112253447D02*
X109143628Y-112301066D01*
X109143628Y-112301066D02*
X109429342Y-112301066D01*
X109429342Y-112301066D02*
X109524580Y-112253447D01*
X109524580Y-112253447D02*
X109572200Y-112205828D01*
X109572200Y-112205828D02*
X109619819Y-112110590D01*
X109619819Y-112110590D02*
X109619819Y-111967733D01*
X108572200Y-113443923D02*
X109857914Y-112586781D01*
X109619819Y-113777257D02*
X108619819Y-113777257D01*
X109000771Y-113777257D02*
X108953152Y-113872495D01*
X108953152Y-113872495D02*
X108953152Y-114062971D01*
X108953152Y-114062971D02*
X109000771Y-114158209D01*
X109000771Y-114158209D02*
X109048390Y-114205828D01*
X109048390Y-114205828D02*
X109143628Y-114253447D01*
X109143628Y-114253447D02*
X109429342Y-114253447D01*
X109429342Y-114253447D02*
X109524580Y-114205828D01*
X109524580Y-114205828D02*
X109572200Y-114158209D01*
X109572200Y-114158209D02*
X109619819Y-114062971D01*
X109619819Y-114062971D02*
X109619819Y-113872495D01*
X109619819Y-113872495D02*
X109572200Y-113777257D01*
X109619819Y-115110590D02*
X109096009Y-115110590D01*
X109096009Y-115110590D02*
X109000771Y-115062971D01*
X109000771Y-115062971D02*
X108953152Y-114967733D01*
X108953152Y-114967733D02*
X108953152Y-114777257D01*
X108953152Y-114777257D02*
X109000771Y-114682019D01*
X109572200Y-115110590D02*
X109619819Y-115015352D01*
X109619819Y-115015352D02*
X109619819Y-114777257D01*
X109619819Y-114777257D02*
X109572200Y-114682019D01*
X109572200Y-114682019D02*
X109476961Y-114634400D01*
X109476961Y-114634400D02*
X109381723Y-114634400D01*
X109381723Y-114634400D02*
X109286485Y-114682019D01*
X109286485Y-114682019D02*
X109238866Y-114777257D01*
X109238866Y-114777257D02*
X109238866Y-115015352D01*
X109238866Y-115015352D02*
X109191247Y-115110590D01*
X109619819Y-115729638D02*
X109572200Y-115634400D01*
X109572200Y-115634400D02*
X109476961Y-115586781D01*
X109476961Y-115586781D02*
X108619819Y-115586781D01*
X109619819Y-116253448D02*
X109572200Y-116158210D01*
X109572200Y-116158210D02*
X109476961Y-116110591D01*
X109476961Y-116110591D02*
X108619819Y-116110591D01*
X108953152Y-116539163D02*
X109619819Y-116777258D01*
X108953152Y-117015353D02*
X109619819Y-116777258D01*
X109619819Y-116777258D02*
X109857914Y-116682020D01*
X109857914Y-116682020D02*
X109905533Y-116634401D01*
X109905533Y-116634401D02*
X109953152Y-116539163D01*
X109715057Y-117158211D02*
X109715057Y-117920115D01*
X109619819Y-118158211D02*
X108953152Y-118158211D01*
X109143628Y-118158211D02*
X109048390Y-118205830D01*
X109048390Y-118205830D02*
X109000771Y-118253449D01*
X109000771Y-118253449D02*
X108953152Y-118348687D01*
X108953152Y-118348687D02*
X108953152Y-118443925D01*
X109619819Y-118920116D02*
X109572200Y-118824878D01*
X109572200Y-118824878D02*
X109524580Y-118777259D01*
X109524580Y-118777259D02*
X109429342Y-118729640D01*
X109429342Y-118729640D02*
X109143628Y-118729640D01*
X109143628Y-118729640D02*
X109048390Y-118777259D01*
X109048390Y-118777259D02*
X109000771Y-118824878D01*
X109000771Y-118824878D02*
X108953152Y-118920116D01*
X108953152Y-118920116D02*
X108953152Y-119062973D01*
X108953152Y-119062973D02*
X109000771Y-119158211D01*
X109000771Y-119158211D02*
X109048390Y-119205830D01*
X109048390Y-119205830D02*
X109143628Y-119253449D01*
X109143628Y-119253449D02*
X109429342Y-119253449D01*
X109429342Y-119253449D02*
X109524580Y-119205830D01*
X109524580Y-119205830D02*
X109572200Y-119158211D01*
X109572200Y-119158211D02*
X109619819Y-119062973D01*
X109619819Y-119062973D02*
X109619819Y-118920116D01*
X109619819Y-119682021D02*
X108619819Y-119682021D01*
X109000771Y-119682021D02*
X108953152Y-119777259D01*
X108953152Y-119777259D02*
X108953152Y-119967735D01*
X108953152Y-119967735D02*
X109000771Y-120062973D01*
X109000771Y-120062973D02*
X109048390Y-120110592D01*
X109048390Y-120110592D02*
X109143628Y-120158211D01*
X109143628Y-120158211D02*
X109429342Y-120158211D01*
X109429342Y-120158211D02*
X109524580Y-120110592D01*
X109524580Y-120110592D02*
X109572200Y-120062973D01*
X109572200Y-120062973D02*
X109619819Y-119967735D01*
X109619819Y-119967735D02*
X109619819Y-119777259D01*
X109619819Y-119777259D02*
X109572200Y-119682021D01*
X109619819Y-120729640D02*
X109572200Y-120634402D01*
X109572200Y-120634402D02*
X109524580Y-120586783D01*
X109524580Y-120586783D02*
X109429342Y-120539164D01*
X109429342Y-120539164D02*
X109143628Y-120539164D01*
X109143628Y-120539164D02*
X109048390Y-120586783D01*
X109048390Y-120586783D02*
X109000771Y-120634402D01*
X109000771Y-120634402D02*
X108953152Y-120729640D01*
X108953152Y-120729640D02*
X108953152Y-120872497D01*
X108953152Y-120872497D02*
X109000771Y-120967735D01*
X109000771Y-120967735D02*
X109048390Y-121015354D01*
X109048390Y-121015354D02*
X109143628Y-121062973D01*
X109143628Y-121062973D02*
X109429342Y-121062973D01*
X109429342Y-121062973D02*
X109524580Y-121015354D01*
X109524580Y-121015354D02*
X109572200Y-120967735D01*
X109572200Y-120967735D02*
X109619819Y-120872497D01*
X109619819Y-120872497D02*
X109619819Y-120729640D01*
X108953152Y-121348688D02*
X108953152Y-121729640D01*
X108619819Y-121491545D02*
X109476961Y-121491545D01*
X109476961Y-121491545D02*
X109572200Y-121539164D01*
X109572200Y-121539164D02*
X109619819Y-121634402D01*
X109619819Y-121634402D02*
X109619819Y-121729640D01*
X182119819Y-85586779D02*
X181119819Y-85586779D01*
X182119819Y-86015350D02*
X181596009Y-86015350D01*
X181596009Y-86015350D02*
X181500771Y-85967731D01*
X181500771Y-85967731D02*
X181453152Y-85872493D01*
X181453152Y-85872493D02*
X181453152Y-85729636D01*
X181453152Y-85729636D02*
X181500771Y-85634398D01*
X181500771Y-85634398D02*
X181548390Y-85586779D01*
X181453152Y-86348684D02*
X181453152Y-86729636D01*
X181119819Y-86491541D02*
X181976961Y-86491541D01*
X181976961Y-86491541D02*
X182072200Y-86539160D01*
X182072200Y-86539160D02*
X182119819Y-86634398D01*
X182119819Y-86634398D02*
X182119819Y-86729636D01*
X181453152Y-86920113D02*
X181453152Y-87301065D01*
X181119819Y-87062970D02*
X181976961Y-87062970D01*
X181976961Y-87062970D02*
X182072200Y-87110589D01*
X182072200Y-87110589D02*
X182119819Y-87205827D01*
X182119819Y-87205827D02*
X182119819Y-87301065D01*
X181453152Y-87634399D02*
X182453152Y-87634399D01*
X181500771Y-87634399D02*
X181453152Y-87729637D01*
X181453152Y-87729637D02*
X181453152Y-87920113D01*
X181453152Y-87920113D02*
X181500771Y-88015351D01*
X181500771Y-88015351D02*
X181548390Y-88062970D01*
X181548390Y-88062970D02*
X181643628Y-88110589D01*
X181643628Y-88110589D02*
X181929342Y-88110589D01*
X181929342Y-88110589D02*
X182024580Y-88062970D01*
X182024580Y-88062970D02*
X182072200Y-88015351D01*
X182072200Y-88015351D02*
X182119819Y-87920113D01*
X182119819Y-87920113D02*
X182119819Y-87729637D01*
X182119819Y-87729637D02*
X182072200Y-87634399D01*
X182072200Y-88491542D02*
X182119819Y-88586780D01*
X182119819Y-88586780D02*
X182119819Y-88777256D01*
X182119819Y-88777256D02*
X182072200Y-88872494D01*
X182072200Y-88872494D02*
X181976961Y-88920113D01*
X181976961Y-88920113D02*
X181929342Y-88920113D01*
X181929342Y-88920113D02*
X181834104Y-88872494D01*
X181834104Y-88872494D02*
X181786485Y-88777256D01*
X181786485Y-88777256D02*
X181786485Y-88634399D01*
X181786485Y-88634399D02*
X181738866Y-88539161D01*
X181738866Y-88539161D02*
X181643628Y-88491542D01*
X181643628Y-88491542D02*
X181596009Y-88491542D01*
X181596009Y-88491542D02*
X181500771Y-88539161D01*
X181500771Y-88539161D02*
X181453152Y-88634399D01*
X181453152Y-88634399D02*
X181453152Y-88777256D01*
X181453152Y-88777256D02*
X181500771Y-88872494D01*
X182024580Y-89348685D02*
X182072200Y-89396304D01*
X182072200Y-89396304D02*
X182119819Y-89348685D01*
X182119819Y-89348685D02*
X182072200Y-89301066D01*
X182072200Y-89301066D02*
X182024580Y-89348685D01*
X182024580Y-89348685D02*
X182119819Y-89348685D01*
X181500771Y-89348685D02*
X181548390Y-89396304D01*
X181548390Y-89396304D02*
X181596009Y-89348685D01*
X181596009Y-89348685D02*
X181548390Y-89301066D01*
X181548390Y-89301066D02*
X181500771Y-89348685D01*
X181500771Y-89348685D02*
X181596009Y-89348685D01*
X181072200Y-90539160D02*
X182357914Y-89682018D01*
X181072200Y-91586779D02*
X182357914Y-90729637D01*
X181453152Y-92348684D02*
X182262676Y-92348684D01*
X182262676Y-92348684D02*
X182357914Y-92301065D01*
X182357914Y-92301065D02*
X182405533Y-92253446D01*
X182405533Y-92253446D02*
X182453152Y-92158208D01*
X182453152Y-92158208D02*
X182453152Y-92015351D01*
X182453152Y-92015351D02*
X182405533Y-91920113D01*
X182072200Y-92348684D02*
X182119819Y-92253446D01*
X182119819Y-92253446D02*
X182119819Y-92062970D01*
X182119819Y-92062970D02*
X182072200Y-91967732D01*
X182072200Y-91967732D02*
X182024580Y-91920113D01*
X182024580Y-91920113D02*
X181929342Y-91872494D01*
X181929342Y-91872494D02*
X181643628Y-91872494D01*
X181643628Y-91872494D02*
X181548390Y-91920113D01*
X181548390Y-91920113D02*
X181500771Y-91967732D01*
X181500771Y-91967732D02*
X181453152Y-92062970D01*
X181453152Y-92062970D02*
X181453152Y-92253446D01*
X181453152Y-92253446D02*
X181500771Y-92348684D01*
X182119819Y-92824875D02*
X181453152Y-92824875D01*
X181119819Y-92824875D02*
X181167438Y-92777256D01*
X181167438Y-92777256D02*
X181215057Y-92824875D01*
X181215057Y-92824875D02*
X181167438Y-92872494D01*
X181167438Y-92872494D02*
X181119819Y-92824875D01*
X181119819Y-92824875D02*
X181215057Y-92824875D01*
X181453152Y-93158208D02*
X181453152Y-93539160D01*
X181119819Y-93301065D02*
X181976961Y-93301065D01*
X181976961Y-93301065D02*
X182072200Y-93348684D01*
X182072200Y-93348684D02*
X182119819Y-93443922D01*
X182119819Y-93443922D02*
X182119819Y-93539160D01*
X182119819Y-93872494D02*
X181119819Y-93872494D01*
X182119819Y-94301065D02*
X181596009Y-94301065D01*
X181596009Y-94301065D02*
X181500771Y-94253446D01*
X181500771Y-94253446D02*
X181453152Y-94158208D01*
X181453152Y-94158208D02*
X181453152Y-94015351D01*
X181453152Y-94015351D02*
X181500771Y-93920113D01*
X181500771Y-93920113D02*
X181548390Y-93872494D01*
X181453152Y-95205827D02*
X182119819Y-95205827D01*
X181453152Y-94777256D02*
X181976961Y-94777256D01*
X181976961Y-94777256D02*
X182072200Y-94824875D01*
X182072200Y-94824875D02*
X182119819Y-94920113D01*
X182119819Y-94920113D02*
X182119819Y-95062970D01*
X182119819Y-95062970D02*
X182072200Y-95158208D01*
X182072200Y-95158208D02*
X182024580Y-95205827D01*
X182119819Y-95682018D02*
X181119819Y-95682018D01*
X181500771Y-95682018D02*
X181453152Y-95777256D01*
X181453152Y-95777256D02*
X181453152Y-95967732D01*
X181453152Y-95967732D02*
X181500771Y-96062970D01*
X181500771Y-96062970D02*
X181548390Y-96110589D01*
X181548390Y-96110589D02*
X181643628Y-96158208D01*
X181643628Y-96158208D02*
X181929342Y-96158208D01*
X181929342Y-96158208D02*
X182024580Y-96110589D01*
X182024580Y-96110589D02*
X182072200Y-96062970D01*
X182072200Y-96062970D02*
X182119819Y-95967732D01*
X182119819Y-95967732D02*
X182119819Y-95777256D01*
X182119819Y-95777256D02*
X182072200Y-95682018D01*
X182024580Y-96586780D02*
X182072200Y-96634399D01*
X182072200Y-96634399D02*
X182119819Y-96586780D01*
X182119819Y-96586780D02*
X182072200Y-96539161D01*
X182072200Y-96539161D02*
X182024580Y-96586780D01*
X182024580Y-96586780D02*
X182119819Y-96586780D01*
X182072200Y-97491541D02*
X182119819Y-97396303D01*
X182119819Y-97396303D02*
X182119819Y-97205827D01*
X182119819Y-97205827D02*
X182072200Y-97110589D01*
X182072200Y-97110589D02*
X182024580Y-97062970D01*
X182024580Y-97062970D02*
X181929342Y-97015351D01*
X181929342Y-97015351D02*
X181643628Y-97015351D01*
X181643628Y-97015351D02*
X181548390Y-97062970D01*
X181548390Y-97062970D02*
X181500771Y-97110589D01*
X181500771Y-97110589D02*
X181453152Y-97205827D01*
X181453152Y-97205827D02*
X181453152Y-97396303D01*
X181453152Y-97396303D02*
X181500771Y-97491541D01*
X182119819Y-98062970D02*
X182072200Y-97967732D01*
X182072200Y-97967732D02*
X182024580Y-97920113D01*
X182024580Y-97920113D02*
X181929342Y-97872494D01*
X181929342Y-97872494D02*
X181643628Y-97872494D01*
X181643628Y-97872494D02*
X181548390Y-97920113D01*
X181548390Y-97920113D02*
X181500771Y-97967732D01*
X181500771Y-97967732D02*
X181453152Y-98062970D01*
X181453152Y-98062970D02*
X181453152Y-98205827D01*
X181453152Y-98205827D02*
X181500771Y-98301065D01*
X181500771Y-98301065D02*
X181548390Y-98348684D01*
X181548390Y-98348684D02*
X181643628Y-98396303D01*
X181643628Y-98396303D02*
X181929342Y-98396303D01*
X181929342Y-98396303D02*
X182024580Y-98348684D01*
X182024580Y-98348684D02*
X182072200Y-98301065D01*
X182072200Y-98301065D02*
X182119819Y-98205827D01*
X182119819Y-98205827D02*
X182119819Y-98062970D01*
X182119819Y-98824875D02*
X181453152Y-98824875D01*
X181548390Y-98824875D02*
X181500771Y-98872494D01*
X181500771Y-98872494D02*
X181453152Y-98967732D01*
X181453152Y-98967732D02*
X181453152Y-99110589D01*
X181453152Y-99110589D02*
X181500771Y-99205827D01*
X181500771Y-99205827D02*
X181596009Y-99253446D01*
X181596009Y-99253446D02*
X182119819Y-99253446D01*
X181596009Y-99253446D02*
X181500771Y-99301065D01*
X181500771Y-99301065D02*
X181453152Y-99396303D01*
X181453152Y-99396303D02*
X181453152Y-99539160D01*
X181453152Y-99539160D02*
X181500771Y-99634399D01*
X181500771Y-99634399D02*
X181596009Y-99682018D01*
X181596009Y-99682018D02*
X182119819Y-99682018D01*
X181072200Y-100872493D02*
X182357914Y-100015351D01*
X181834104Y-101158208D02*
X181834104Y-101634398D01*
X182119819Y-101062970D02*
X181119819Y-101396303D01*
X181119819Y-101396303D02*
X182119819Y-101729636D01*
X182119819Y-102205827D02*
X182072200Y-102110589D01*
X182072200Y-102110589D02*
X181976961Y-102062970D01*
X181976961Y-102062970D02*
X181119819Y-102062970D01*
X182119819Y-102586780D02*
X181453152Y-102586780D01*
X181119819Y-102586780D02*
X181167438Y-102539161D01*
X181167438Y-102539161D02*
X181215057Y-102586780D01*
X181215057Y-102586780D02*
X181167438Y-102634399D01*
X181167438Y-102634399D02*
X181119819Y-102586780D01*
X181119819Y-102586780D02*
X181215057Y-102586780D01*
X182072200Y-103015351D02*
X182119819Y-103110589D01*
X182119819Y-103110589D02*
X182119819Y-103301065D01*
X182119819Y-103301065D02*
X182072200Y-103396303D01*
X182072200Y-103396303D02*
X181976961Y-103443922D01*
X181976961Y-103443922D02*
X181929342Y-103443922D01*
X181929342Y-103443922D02*
X181834104Y-103396303D01*
X181834104Y-103396303D02*
X181786485Y-103301065D01*
X181786485Y-103301065D02*
X181786485Y-103158208D01*
X181786485Y-103158208D02*
X181738866Y-103062970D01*
X181738866Y-103062970D02*
X181643628Y-103015351D01*
X181643628Y-103015351D02*
X181596009Y-103015351D01*
X181596009Y-103015351D02*
X181500771Y-103062970D01*
X181500771Y-103062970D02*
X181453152Y-103158208D01*
X181453152Y-103158208D02*
X181453152Y-103301065D01*
X181453152Y-103301065D02*
X181500771Y-103396303D01*
X182119819Y-104015351D02*
X182072200Y-103920113D01*
X182072200Y-103920113D02*
X182024580Y-103872494D01*
X182024580Y-103872494D02*
X181929342Y-103824875D01*
X181929342Y-103824875D02*
X181643628Y-103824875D01*
X181643628Y-103824875D02*
X181548390Y-103872494D01*
X181548390Y-103872494D02*
X181500771Y-103920113D01*
X181500771Y-103920113D02*
X181453152Y-104015351D01*
X181453152Y-104015351D02*
X181453152Y-104158208D01*
X181453152Y-104158208D02*
X181500771Y-104253446D01*
X181500771Y-104253446D02*
X181548390Y-104301065D01*
X181548390Y-104301065D02*
X181643628Y-104348684D01*
X181643628Y-104348684D02*
X181929342Y-104348684D01*
X181929342Y-104348684D02*
X182024580Y-104301065D01*
X182024580Y-104301065D02*
X182072200Y-104253446D01*
X182072200Y-104253446D02*
X182119819Y-104158208D01*
X182119819Y-104158208D02*
X182119819Y-104015351D01*
X181453152Y-104777256D02*
X182119819Y-104777256D01*
X181548390Y-104777256D02*
X181500771Y-104824875D01*
X181500771Y-104824875D02*
X181453152Y-104920113D01*
X181453152Y-104920113D02*
X181453152Y-105062970D01*
X181453152Y-105062970D02*
X181500771Y-105158208D01*
X181500771Y-105158208D02*
X181596009Y-105205827D01*
X181596009Y-105205827D02*
X182119819Y-105205827D01*
X181119819Y-105539161D02*
X181119819Y-106110589D01*
X182119819Y-105824875D02*
X181119819Y-105824875D01*
X182119819Y-106443923D02*
X181453152Y-106443923D01*
X181643628Y-106443923D02*
X181548390Y-106491542D01*
X181548390Y-106491542D02*
X181500771Y-106539161D01*
X181500771Y-106539161D02*
X181453152Y-106634399D01*
X181453152Y-106634399D02*
X181453152Y-106729637D01*
X182119819Y-107062971D02*
X181453152Y-107062971D01*
X181119819Y-107062971D02*
X181167438Y-107015352D01*
X181167438Y-107015352D02*
X181215057Y-107062971D01*
X181215057Y-107062971D02*
X181167438Y-107110590D01*
X181167438Y-107110590D02*
X181119819Y-107062971D01*
X181119819Y-107062971D02*
X181215057Y-107062971D01*
X182072200Y-107491542D02*
X182119819Y-107586780D01*
X182119819Y-107586780D02*
X182119819Y-107777256D01*
X182119819Y-107777256D02*
X182072200Y-107872494D01*
X182072200Y-107872494D02*
X181976961Y-107920113D01*
X181976961Y-107920113D02*
X181929342Y-107920113D01*
X181929342Y-107920113D02*
X181834104Y-107872494D01*
X181834104Y-107872494D02*
X181786485Y-107777256D01*
X181786485Y-107777256D02*
X181786485Y-107634399D01*
X181786485Y-107634399D02*
X181738866Y-107539161D01*
X181738866Y-107539161D02*
X181643628Y-107491542D01*
X181643628Y-107491542D02*
X181596009Y-107491542D01*
X181596009Y-107491542D02*
X181500771Y-107539161D01*
X181500771Y-107539161D02*
X181453152Y-107634399D01*
X181453152Y-107634399D02*
X181453152Y-107777256D01*
X181453152Y-107777256D02*
X181500771Y-107872494D01*
X181453152Y-108205828D02*
X181453152Y-108586780D01*
X181119819Y-108348685D02*
X181976961Y-108348685D01*
X181976961Y-108348685D02*
X182072200Y-108396304D01*
X182072200Y-108396304D02*
X182119819Y-108491542D01*
X182119819Y-108491542D02*
X182119819Y-108586780D01*
X182119819Y-109348685D02*
X181596009Y-109348685D01*
X181596009Y-109348685D02*
X181500771Y-109301066D01*
X181500771Y-109301066D02*
X181453152Y-109205828D01*
X181453152Y-109205828D02*
X181453152Y-109015352D01*
X181453152Y-109015352D02*
X181500771Y-108920114D01*
X182072200Y-109348685D02*
X182119819Y-109253447D01*
X182119819Y-109253447D02*
X182119819Y-109015352D01*
X182119819Y-109015352D02*
X182072200Y-108920114D01*
X182072200Y-108920114D02*
X181976961Y-108872495D01*
X181976961Y-108872495D02*
X181881723Y-108872495D01*
X181881723Y-108872495D02*
X181786485Y-108920114D01*
X181786485Y-108920114D02*
X181738866Y-109015352D01*
X181738866Y-109015352D02*
X181738866Y-109253447D01*
X181738866Y-109253447D02*
X181691247Y-109348685D01*
X182119819Y-109967733D02*
X182072200Y-109872495D01*
X182072200Y-109872495D02*
X182024580Y-109824876D01*
X182024580Y-109824876D02*
X181929342Y-109777257D01*
X181929342Y-109777257D02*
X181643628Y-109777257D01*
X181643628Y-109777257D02*
X181548390Y-109824876D01*
X181548390Y-109824876D02*
X181500771Y-109872495D01*
X181500771Y-109872495D02*
X181453152Y-109967733D01*
X181453152Y-109967733D02*
X181453152Y-110110590D01*
X181453152Y-110110590D02*
X181500771Y-110205828D01*
X181500771Y-110205828D02*
X181548390Y-110253447D01*
X181548390Y-110253447D02*
X181643628Y-110301066D01*
X181643628Y-110301066D02*
X181929342Y-110301066D01*
X181929342Y-110301066D02*
X182024580Y-110253447D01*
X182024580Y-110253447D02*
X182072200Y-110205828D01*
X182072200Y-110205828D02*
X182119819Y-110110590D01*
X182119819Y-110110590D02*
X182119819Y-109967733D01*
X181072200Y-111443923D02*
X182357914Y-110586781D01*
X182119819Y-111777257D02*
X181119819Y-111777257D01*
X181500771Y-111777257D02*
X181453152Y-111872495D01*
X181453152Y-111872495D02*
X181453152Y-112062971D01*
X181453152Y-112062971D02*
X181500771Y-112158209D01*
X181500771Y-112158209D02*
X181548390Y-112205828D01*
X181548390Y-112205828D02*
X181643628Y-112253447D01*
X181643628Y-112253447D02*
X181929342Y-112253447D01*
X181929342Y-112253447D02*
X182024580Y-112205828D01*
X182024580Y-112205828D02*
X182072200Y-112158209D01*
X182072200Y-112158209D02*
X182119819Y-112062971D01*
X182119819Y-112062971D02*
X182119819Y-111872495D01*
X182119819Y-111872495D02*
X182072200Y-111777257D01*
X182119819Y-113110590D02*
X181596009Y-113110590D01*
X181596009Y-113110590D02*
X181500771Y-113062971D01*
X181500771Y-113062971D02*
X181453152Y-112967733D01*
X181453152Y-112967733D02*
X181453152Y-112777257D01*
X181453152Y-112777257D02*
X181500771Y-112682019D01*
X182072200Y-113110590D02*
X182119819Y-113015352D01*
X182119819Y-113015352D02*
X182119819Y-112777257D01*
X182119819Y-112777257D02*
X182072200Y-112682019D01*
X182072200Y-112682019D02*
X181976961Y-112634400D01*
X181976961Y-112634400D02*
X181881723Y-112634400D01*
X181881723Y-112634400D02*
X181786485Y-112682019D01*
X181786485Y-112682019D02*
X181738866Y-112777257D01*
X181738866Y-112777257D02*
X181738866Y-113015352D01*
X181738866Y-113015352D02*
X181691247Y-113110590D01*
X182119819Y-113729638D02*
X182072200Y-113634400D01*
X182072200Y-113634400D02*
X181976961Y-113586781D01*
X181976961Y-113586781D02*
X181119819Y-113586781D01*
X182119819Y-114253448D02*
X182072200Y-114158210D01*
X182072200Y-114158210D02*
X181976961Y-114110591D01*
X181976961Y-114110591D02*
X181119819Y-114110591D01*
X181453152Y-114539163D02*
X182119819Y-114777258D01*
X181453152Y-115015353D02*
X182119819Y-114777258D01*
X182119819Y-114777258D02*
X182357914Y-114682020D01*
X182357914Y-114682020D02*
X182405533Y-114634401D01*
X182405533Y-114634401D02*
X182453152Y-114539163D01*
X182215057Y-115158211D02*
X182215057Y-115920115D01*
X182119819Y-116158211D02*
X181453152Y-116158211D01*
X181643628Y-116158211D02*
X181548390Y-116205830D01*
X181548390Y-116205830D02*
X181500771Y-116253449D01*
X181500771Y-116253449D02*
X181453152Y-116348687D01*
X181453152Y-116348687D02*
X181453152Y-116443925D01*
X182119819Y-116920116D02*
X182072200Y-116824878D01*
X182072200Y-116824878D02*
X182024580Y-116777259D01*
X182024580Y-116777259D02*
X181929342Y-116729640D01*
X181929342Y-116729640D02*
X181643628Y-116729640D01*
X181643628Y-116729640D02*
X181548390Y-116777259D01*
X181548390Y-116777259D02*
X181500771Y-116824878D01*
X181500771Y-116824878D02*
X181453152Y-116920116D01*
X181453152Y-116920116D02*
X181453152Y-117062973D01*
X181453152Y-117062973D02*
X181500771Y-117158211D01*
X181500771Y-117158211D02*
X181548390Y-117205830D01*
X181548390Y-117205830D02*
X181643628Y-117253449D01*
X181643628Y-117253449D02*
X181929342Y-117253449D01*
X181929342Y-117253449D02*
X182024580Y-117205830D01*
X182024580Y-117205830D02*
X182072200Y-117158211D01*
X182072200Y-117158211D02*
X182119819Y-117062973D01*
X182119819Y-117062973D02*
X182119819Y-116920116D01*
X182119819Y-117682021D02*
X181119819Y-117682021D01*
X181500771Y-117682021D02*
X181453152Y-117777259D01*
X181453152Y-117777259D02*
X181453152Y-117967735D01*
X181453152Y-117967735D02*
X181500771Y-118062973D01*
X181500771Y-118062973D02*
X181548390Y-118110592D01*
X181548390Y-118110592D02*
X181643628Y-118158211D01*
X181643628Y-118158211D02*
X181929342Y-118158211D01*
X181929342Y-118158211D02*
X182024580Y-118110592D01*
X182024580Y-118110592D02*
X182072200Y-118062973D01*
X182072200Y-118062973D02*
X182119819Y-117967735D01*
X182119819Y-117967735D02*
X182119819Y-117777259D01*
X182119819Y-117777259D02*
X182072200Y-117682021D01*
X182119819Y-118729640D02*
X182072200Y-118634402D01*
X182072200Y-118634402D02*
X182024580Y-118586783D01*
X182024580Y-118586783D02*
X181929342Y-118539164D01*
X181929342Y-118539164D02*
X181643628Y-118539164D01*
X181643628Y-118539164D02*
X181548390Y-118586783D01*
X181548390Y-118586783D02*
X181500771Y-118634402D01*
X181500771Y-118634402D02*
X181453152Y-118729640D01*
X181453152Y-118729640D02*
X181453152Y-118872497D01*
X181453152Y-118872497D02*
X181500771Y-118967735D01*
X181500771Y-118967735D02*
X181548390Y-119015354D01*
X181548390Y-119015354D02*
X181643628Y-119062973D01*
X181643628Y-119062973D02*
X181929342Y-119062973D01*
X181929342Y-119062973D02*
X182024580Y-119015354D01*
X182024580Y-119015354D02*
X182072200Y-118967735D01*
X182072200Y-118967735D02*
X182119819Y-118872497D01*
X182119819Y-118872497D02*
X182119819Y-118729640D01*
X181453152Y-119348688D02*
X181453152Y-119729640D01*
X181119819Y-119491545D02*
X181976961Y-119491545D01*
X181976961Y-119491545D02*
X182072200Y-119539164D01*
X182072200Y-119539164D02*
X182119819Y-119634402D01*
X182119819Y-119634402D02*
X182119819Y-119729640D01*
X163493220Y-91309819D02*
X163493220Y-90309819D01*
X163064649Y-91309819D02*
X163064649Y-90786009D01*
X163064649Y-90786009D02*
X163112268Y-90690771D01*
X163112268Y-90690771D02*
X163207506Y-90643152D01*
X163207506Y-90643152D02*
X163350363Y-90643152D01*
X163350363Y-90643152D02*
X163445601Y-90690771D01*
X163445601Y-90690771D02*
X163493220Y-90738390D01*
X162731315Y-90643152D02*
X162350363Y-90643152D01*
X162588458Y-90309819D02*
X162588458Y-91166961D01*
X162588458Y-91166961D02*
X162540839Y-91262200D01*
X162540839Y-91262200D02*
X162445601Y-91309819D01*
X162445601Y-91309819D02*
X162350363Y-91309819D01*
X162159886Y-90643152D02*
X161778934Y-90643152D01*
X162017029Y-90309819D02*
X162017029Y-91166961D01*
X162017029Y-91166961D02*
X161969410Y-91262200D01*
X161969410Y-91262200D02*
X161874172Y-91309819D01*
X161874172Y-91309819D02*
X161778934Y-91309819D01*
X161445600Y-90643152D02*
X161445600Y-91643152D01*
X161445600Y-90690771D02*
X161350362Y-90643152D01*
X161350362Y-90643152D02*
X161159886Y-90643152D01*
X161159886Y-90643152D02*
X161064648Y-90690771D01*
X161064648Y-90690771D02*
X161017029Y-90738390D01*
X161017029Y-90738390D02*
X160969410Y-90833628D01*
X160969410Y-90833628D02*
X160969410Y-91119342D01*
X160969410Y-91119342D02*
X161017029Y-91214580D01*
X161017029Y-91214580D02*
X161064648Y-91262200D01*
X161064648Y-91262200D02*
X161159886Y-91309819D01*
X161159886Y-91309819D02*
X161350362Y-91309819D01*
X161350362Y-91309819D02*
X161445600Y-91262200D01*
X160588457Y-91262200D02*
X160493219Y-91309819D01*
X160493219Y-91309819D02*
X160302743Y-91309819D01*
X160302743Y-91309819D02*
X160207505Y-91262200D01*
X160207505Y-91262200D02*
X160159886Y-91166961D01*
X160159886Y-91166961D02*
X160159886Y-91119342D01*
X160159886Y-91119342D02*
X160207505Y-91024104D01*
X160207505Y-91024104D02*
X160302743Y-90976485D01*
X160302743Y-90976485D02*
X160445600Y-90976485D01*
X160445600Y-90976485D02*
X160540838Y-90928866D01*
X160540838Y-90928866D02*
X160588457Y-90833628D01*
X160588457Y-90833628D02*
X160588457Y-90786009D01*
X160588457Y-90786009D02*
X160540838Y-90690771D01*
X160540838Y-90690771D02*
X160445600Y-90643152D01*
X160445600Y-90643152D02*
X160302743Y-90643152D01*
X160302743Y-90643152D02*
X160207505Y-90690771D01*
X159731314Y-91214580D02*
X159683695Y-91262200D01*
X159683695Y-91262200D02*
X159731314Y-91309819D01*
X159731314Y-91309819D02*
X159778933Y-91262200D01*
X159778933Y-91262200D02*
X159731314Y-91214580D01*
X159731314Y-91214580D02*
X159731314Y-91309819D01*
X159731314Y-90690771D02*
X159683695Y-90738390D01*
X159683695Y-90738390D02*
X159731314Y-90786009D01*
X159731314Y-90786009D02*
X159778933Y-90738390D01*
X159778933Y-90738390D02*
X159731314Y-90690771D01*
X159731314Y-90690771D02*
X159731314Y-90786009D01*
X158540839Y-90262200D02*
X159397981Y-91547914D01*
X157493220Y-90262200D02*
X158350362Y-91547914D01*
X156731315Y-90643152D02*
X156731315Y-91452676D01*
X156731315Y-91452676D02*
X156778934Y-91547914D01*
X156778934Y-91547914D02*
X156826553Y-91595533D01*
X156826553Y-91595533D02*
X156921791Y-91643152D01*
X156921791Y-91643152D02*
X157064648Y-91643152D01*
X157064648Y-91643152D02*
X157159886Y-91595533D01*
X156731315Y-91262200D02*
X156826553Y-91309819D01*
X156826553Y-91309819D02*
X157017029Y-91309819D01*
X157017029Y-91309819D02*
X157112267Y-91262200D01*
X157112267Y-91262200D02*
X157159886Y-91214580D01*
X157159886Y-91214580D02*
X157207505Y-91119342D01*
X157207505Y-91119342D02*
X157207505Y-90833628D01*
X157207505Y-90833628D02*
X157159886Y-90738390D01*
X157159886Y-90738390D02*
X157112267Y-90690771D01*
X157112267Y-90690771D02*
X157017029Y-90643152D01*
X157017029Y-90643152D02*
X156826553Y-90643152D01*
X156826553Y-90643152D02*
X156731315Y-90690771D01*
X156255124Y-91309819D02*
X156255124Y-90643152D01*
X156255124Y-90309819D02*
X156302743Y-90357438D01*
X156302743Y-90357438D02*
X156255124Y-90405057D01*
X156255124Y-90405057D02*
X156207505Y-90357438D01*
X156207505Y-90357438D02*
X156255124Y-90309819D01*
X156255124Y-90309819D02*
X156255124Y-90405057D01*
X155921791Y-90643152D02*
X155540839Y-90643152D01*
X155778934Y-90309819D02*
X155778934Y-91166961D01*
X155778934Y-91166961D02*
X155731315Y-91262200D01*
X155731315Y-91262200D02*
X155636077Y-91309819D01*
X155636077Y-91309819D02*
X155540839Y-91309819D01*
X155207505Y-91309819D02*
X155207505Y-90309819D01*
X154778934Y-91309819D02*
X154778934Y-90786009D01*
X154778934Y-90786009D02*
X154826553Y-90690771D01*
X154826553Y-90690771D02*
X154921791Y-90643152D01*
X154921791Y-90643152D02*
X155064648Y-90643152D01*
X155064648Y-90643152D02*
X155159886Y-90690771D01*
X155159886Y-90690771D02*
X155207505Y-90738390D01*
X153874172Y-90643152D02*
X153874172Y-91309819D01*
X154302743Y-90643152D02*
X154302743Y-91166961D01*
X154302743Y-91166961D02*
X154255124Y-91262200D01*
X154255124Y-91262200D02*
X154159886Y-91309819D01*
X154159886Y-91309819D02*
X154017029Y-91309819D01*
X154017029Y-91309819D02*
X153921791Y-91262200D01*
X153921791Y-91262200D02*
X153874172Y-91214580D01*
X153397981Y-91309819D02*
X153397981Y-90309819D01*
X153397981Y-90690771D02*
X153302743Y-90643152D01*
X153302743Y-90643152D02*
X153112267Y-90643152D01*
X153112267Y-90643152D02*
X153017029Y-90690771D01*
X153017029Y-90690771D02*
X152969410Y-90738390D01*
X152969410Y-90738390D02*
X152921791Y-90833628D01*
X152921791Y-90833628D02*
X152921791Y-91119342D01*
X152921791Y-91119342D02*
X152969410Y-91214580D01*
X152969410Y-91214580D02*
X153017029Y-91262200D01*
X153017029Y-91262200D02*
X153112267Y-91309819D01*
X153112267Y-91309819D02*
X153302743Y-91309819D01*
X153302743Y-91309819D02*
X153397981Y-91262200D01*
X152493219Y-91214580D02*
X152445600Y-91262200D01*
X152445600Y-91262200D02*
X152493219Y-91309819D01*
X152493219Y-91309819D02*
X152540838Y-91262200D01*
X152540838Y-91262200D02*
X152493219Y-91214580D01*
X152493219Y-91214580D02*
X152493219Y-91309819D01*
X151588458Y-91262200D02*
X151683696Y-91309819D01*
X151683696Y-91309819D02*
X151874172Y-91309819D01*
X151874172Y-91309819D02*
X151969410Y-91262200D01*
X151969410Y-91262200D02*
X152017029Y-91214580D01*
X152017029Y-91214580D02*
X152064648Y-91119342D01*
X152064648Y-91119342D02*
X152064648Y-90833628D01*
X152064648Y-90833628D02*
X152017029Y-90738390D01*
X152017029Y-90738390D02*
X151969410Y-90690771D01*
X151969410Y-90690771D02*
X151874172Y-90643152D01*
X151874172Y-90643152D02*
X151683696Y-90643152D01*
X151683696Y-90643152D02*
X151588458Y-90690771D01*
X151017029Y-91309819D02*
X151112267Y-91262200D01*
X151112267Y-91262200D02*
X151159886Y-91214580D01*
X151159886Y-91214580D02*
X151207505Y-91119342D01*
X151207505Y-91119342D02*
X151207505Y-90833628D01*
X151207505Y-90833628D02*
X151159886Y-90738390D01*
X151159886Y-90738390D02*
X151112267Y-90690771D01*
X151112267Y-90690771D02*
X151017029Y-90643152D01*
X151017029Y-90643152D02*
X150874172Y-90643152D01*
X150874172Y-90643152D02*
X150778934Y-90690771D01*
X150778934Y-90690771D02*
X150731315Y-90738390D01*
X150731315Y-90738390D02*
X150683696Y-90833628D01*
X150683696Y-90833628D02*
X150683696Y-91119342D01*
X150683696Y-91119342D02*
X150731315Y-91214580D01*
X150731315Y-91214580D02*
X150778934Y-91262200D01*
X150778934Y-91262200D02*
X150874172Y-91309819D01*
X150874172Y-91309819D02*
X151017029Y-91309819D01*
X150255124Y-91309819D02*
X150255124Y-90643152D01*
X150255124Y-90738390D02*
X150207505Y-90690771D01*
X150207505Y-90690771D02*
X150112267Y-90643152D01*
X150112267Y-90643152D02*
X149969410Y-90643152D01*
X149969410Y-90643152D02*
X149874172Y-90690771D01*
X149874172Y-90690771D02*
X149826553Y-90786009D01*
X149826553Y-90786009D02*
X149826553Y-91309819D01*
X149826553Y-90786009D02*
X149778934Y-90690771D01*
X149778934Y-90690771D02*
X149683696Y-90643152D01*
X149683696Y-90643152D02*
X149540839Y-90643152D01*
X149540839Y-90643152D02*
X149445600Y-90690771D01*
X149445600Y-90690771D02*
X149397981Y-90786009D01*
X149397981Y-90786009D02*
X149397981Y-91309819D01*
X148207506Y-90262200D02*
X149064648Y-91547914D01*
X147921791Y-91024104D02*
X147445601Y-91024104D01*
X148017029Y-91309819D02*
X147683696Y-90309819D01*
X147683696Y-90309819D02*
X147350363Y-91309819D01*
X146874172Y-91309819D02*
X146969410Y-91262200D01*
X146969410Y-91262200D02*
X147017029Y-91166961D01*
X147017029Y-91166961D02*
X147017029Y-90309819D01*
X146493219Y-91309819D02*
X146493219Y-90643152D01*
X146493219Y-90309819D02*
X146540838Y-90357438D01*
X146540838Y-90357438D02*
X146493219Y-90405057D01*
X146493219Y-90405057D02*
X146445600Y-90357438D01*
X146445600Y-90357438D02*
X146493219Y-90309819D01*
X146493219Y-90309819D02*
X146493219Y-90405057D01*
X146064648Y-91262200D02*
X145969410Y-91309819D01*
X145969410Y-91309819D02*
X145778934Y-91309819D01*
X145778934Y-91309819D02*
X145683696Y-91262200D01*
X145683696Y-91262200D02*
X145636077Y-91166961D01*
X145636077Y-91166961D02*
X145636077Y-91119342D01*
X145636077Y-91119342D02*
X145683696Y-91024104D01*
X145683696Y-91024104D02*
X145778934Y-90976485D01*
X145778934Y-90976485D02*
X145921791Y-90976485D01*
X145921791Y-90976485D02*
X146017029Y-90928866D01*
X146017029Y-90928866D02*
X146064648Y-90833628D01*
X146064648Y-90833628D02*
X146064648Y-90786009D01*
X146064648Y-90786009D02*
X146017029Y-90690771D01*
X146017029Y-90690771D02*
X145921791Y-90643152D01*
X145921791Y-90643152D02*
X145778934Y-90643152D01*
X145778934Y-90643152D02*
X145683696Y-90690771D01*
X145064648Y-91309819D02*
X145159886Y-91262200D01*
X145159886Y-91262200D02*
X145207505Y-91214580D01*
X145207505Y-91214580D02*
X145255124Y-91119342D01*
X145255124Y-91119342D02*
X145255124Y-90833628D01*
X145255124Y-90833628D02*
X145207505Y-90738390D01*
X145207505Y-90738390D02*
X145159886Y-90690771D01*
X145159886Y-90690771D02*
X145064648Y-90643152D01*
X145064648Y-90643152D02*
X144921791Y-90643152D01*
X144921791Y-90643152D02*
X144826553Y-90690771D01*
X144826553Y-90690771D02*
X144778934Y-90738390D01*
X144778934Y-90738390D02*
X144731315Y-90833628D01*
X144731315Y-90833628D02*
X144731315Y-91119342D01*
X144731315Y-91119342D02*
X144778934Y-91214580D01*
X144778934Y-91214580D02*
X144826553Y-91262200D01*
X144826553Y-91262200D02*
X144921791Y-91309819D01*
X144921791Y-91309819D02*
X145064648Y-91309819D01*
X144302743Y-90643152D02*
X144302743Y-91309819D01*
X144302743Y-90738390D02*
X144255124Y-90690771D01*
X144255124Y-90690771D02*
X144159886Y-90643152D01*
X144159886Y-90643152D02*
X144017029Y-90643152D01*
X144017029Y-90643152D02*
X143921791Y-90690771D01*
X143921791Y-90690771D02*
X143874172Y-90786009D01*
X143874172Y-90786009D02*
X143874172Y-91309819D01*
X143540838Y-90309819D02*
X142969410Y-90309819D01*
X143255124Y-91309819D02*
X143255124Y-90309819D01*
X142636076Y-91309819D02*
X142636076Y-90643152D01*
X142636076Y-90833628D02*
X142588457Y-90738390D01*
X142588457Y-90738390D02*
X142540838Y-90690771D01*
X142540838Y-90690771D02*
X142445600Y-90643152D01*
X142445600Y-90643152D02*
X142350362Y-90643152D01*
X142017028Y-91309819D02*
X142017028Y-90643152D01*
X142017028Y-90309819D02*
X142064647Y-90357438D01*
X142064647Y-90357438D02*
X142017028Y-90405057D01*
X142017028Y-90405057D02*
X141969409Y-90357438D01*
X141969409Y-90357438D02*
X142017028Y-90309819D01*
X142017028Y-90309819D02*
X142017028Y-90405057D01*
X141588457Y-91262200D02*
X141493219Y-91309819D01*
X141493219Y-91309819D02*
X141302743Y-91309819D01*
X141302743Y-91309819D02*
X141207505Y-91262200D01*
X141207505Y-91262200D02*
X141159886Y-91166961D01*
X141159886Y-91166961D02*
X141159886Y-91119342D01*
X141159886Y-91119342D02*
X141207505Y-91024104D01*
X141207505Y-91024104D02*
X141302743Y-90976485D01*
X141302743Y-90976485D02*
X141445600Y-90976485D01*
X141445600Y-90976485D02*
X141540838Y-90928866D01*
X141540838Y-90928866D02*
X141588457Y-90833628D01*
X141588457Y-90833628D02*
X141588457Y-90786009D01*
X141588457Y-90786009D02*
X141540838Y-90690771D01*
X141540838Y-90690771D02*
X141445600Y-90643152D01*
X141445600Y-90643152D02*
X141302743Y-90643152D01*
X141302743Y-90643152D02*
X141207505Y-90690771D01*
X140874171Y-90643152D02*
X140493219Y-90643152D01*
X140731314Y-90309819D02*
X140731314Y-91166961D01*
X140731314Y-91166961D02*
X140683695Y-91262200D01*
X140683695Y-91262200D02*
X140588457Y-91309819D01*
X140588457Y-91309819D02*
X140493219Y-91309819D01*
X139731314Y-91309819D02*
X139731314Y-90786009D01*
X139731314Y-90786009D02*
X139778933Y-90690771D01*
X139778933Y-90690771D02*
X139874171Y-90643152D01*
X139874171Y-90643152D02*
X140064647Y-90643152D01*
X140064647Y-90643152D02*
X140159885Y-90690771D01*
X139731314Y-91262200D02*
X139826552Y-91309819D01*
X139826552Y-91309819D02*
X140064647Y-91309819D01*
X140064647Y-91309819D02*
X140159885Y-91262200D01*
X140159885Y-91262200D02*
X140207504Y-91166961D01*
X140207504Y-91166961D02*
X140207504Y-91071723D01*
X140207504Y-91071723D02*
X140159885Y-90976485D01*
X140159885Y-90976485D02*
X140064647Y-90928866D01*
X140064647Y-90928866D02*
X139826552Y-90928866D01*
X139826552Y-90928866D02*
X139731314Y-90881247D01*
X139112266Y-91309819D02*
X139207504Y-91262200D01*
X139207504Y-91262200D02*
X139255123Y-91214580D01*
X139255123Y-91214580D02*
X139302742Y-91119342D01*
X139302742Y-91119342D02*
X139302742Y-90833628D01*
X139302742Y-90833628D02*
X139255123Y-90738390D01*
X139255123Y-90738390D02*
X139207504Y-90690771D01*
X139207504Y-90690771D02*
X139112266Y-90643152D01*
X139112266Y-90643152D02*
X138969409Y-90643152D01*
X138969409Y-90643152D02*
X138874171Y-90690771D01*
X138874171Y-90690771D02*
X138826552Y-90738390D01*
X138826552Y-90738390D02*
X138778933Y-90833628D01*
X138778933Y-90833628D02*
X138778933Y-91119342D01*
X138778933Y-91119342D02*
X138826552Y-91214580D01*
X138826552Y-91214580D02*
X138874171Y-91262200D01*
X138874171Y-91262200D02*
X138969409Y-91309819D01*
X138969409Y-91309819D02*
X139112266Y-91309819D01*
X137636076Y-90262200D02*
X138493218Y-91547914D01*
X137302742Y-91309819D02*
X137302742Y-90309819D01*
X137302742Y-90690771D02*
X137207504Y-90643152D01*
X137207504Y-90643152D02*
X137017028Y-90643152D01*
X137017028Y-90643152D02*
X136921790Y-90690771D01*
X136921790Y-90690771D02*
X136874171Y-90738390D01*
X136874171Y-90738390D02*
X136826552Y-90833628D01*
X136826552Y-90833628D02*
X136826552Y-91119342D01*
X136826552Y-91119342D02*
X136874171Y-91214580D01*
X136874171Y-91214580D02*
X136921790Y-91262200D01*
X136921790Y-91262200D02*
X137017028Y-91309819D01*
X137017028Y-91309819D02*
X137207504Y-91309819D01*
X137207504Y-91309819D02*
X137302742Y-91262200D01*
X135969409Y-91309819D02*
X135969409Y-90786009D01*
X135969409Y-90786009D02*
X136017028Y-90690771D01*
X136017028Y-90690771D02*
X136112266Y-90643152D01*
X136112266Y-90643152D02*
X136302742Y-90643152D01*
X136302742Y-90643152D02*
X136397980Y-90690771D01*
X135969409Y-91262200D02*
X136064647Y-91309819D01*
X136064647Y-91309819D02*
X136302742Y-91309819D01*
X136302742Y-91309819D02*
X136397980Y-91262200D01*
X136397980Y-91262200D02*
X136445599Y-91166961D01*
X136445599Y-91166961D02*
X136445599Y-91071723D01*
X136445599Y-91071723D02*
X136397980Y-90976485D01*
X136397980Y-90976485D02*
X136302742Y-90928866D01*
X136302742Y-90928866D02*
X136064647Y-90928866D01*
X136064647Y-90928866D02*
X135969409Y-90881247D01*
X135350361Y-91309819D02*
X135445599Y-91262200D01*
X135445599Y-91262200D02*
X135493218Y-91166961D01*
X135493218Y-91166961D02*
X135493218Y-90309819D01*
X134826551Y-91309819D02*
X134921789Y-91262200D01*
X134921789Y-91262200D02*
X134969408Y-91166961D01*
X134969408Y-91166961D02*
X134969408Y-90309819D01*
X134540836Y-90643152D02*
X134302741Y-91309819D01*
X134064646Y-90643152D02*
X134302741Y-91309819D01*
X134302741Y-91309819D02*
X134397979Y-91547914D01*
X134397979Y-91547914D02*
X134445598Y-91595533D01*
X134445598Y-91595533D02*
X134540836Y-91643152D01*
X133921789Y-91405057D02*
X133159884Y-91405057D01*
X132921788Y-91309819D02*
X132921788Y-90643152D01*
X132921788Y-90833628D02*
X132874169Y-90738390D01*
X132874169Y-90738390D02*
X132826550Y-90690771D01*
X132826550Y-90690771D02*
X132731312Y-90643152D01*
X132731312Y-90643152D02*
X132636074Y-90643152D01*
X132159883Y-91309819D02*
X132255121Y-91262200D01*
X132255121Y-91262200D02*
X132302740Y-91214580D01*
X132302740Y-91214580D02*
X132350359Y-91119342D01*
X132350359Y-91119342D02*
X132350359Y-90833628D01*
X132350359Y-90833628D02*
X132302740Y-90738390D01*
X132302740Y-90738390D02*
X132255121Y-90690771D01*
X132255121Y-90690771D02*
X132159883Y-90643152D01*
X132159883Y-90643152D02*
X132017026Y-90643152D01*
X132017026Y-90643152D02*
X131921788Y-90690771D01*
X131921788Y-90690771D02*
X131874169Y-90738390D01*
X131874169Y-90738390D02*
X131826550Y-90833628D01*
X131826550Y-90833628D02*
X131826550Y-91119342D01*
X131826550Y-91119342D02*
X131874169Y-91214580D01*
X131874169Y-91214580D02*
X131921788Y-91262200D01*
X131921788Y-91262200D02*
X132017026Y-91309819D01*
X132017026Y-91309819D02*
X132159883Y-91309819D01*
X131397978Y-91309819D02*
X131397978Y-90309819D01*
X131397978Y-90690771D02*
X131302740Y-90643152D01*
X131302740Y-90643152D02*
X131112264Y-90643152D01*
X131112264Y-90643152D02*
X131017026Y-90690771D01*
X131017026Y-90690771D02*
X130969407Y-90738390D01*
X130969407Y-90738390D02*
X130921788Y-90833628D01*
X130921788Y-90833628D02*
X130921788Y-91119342D01*
X130921788Y-91119342D02*
X130969407Y-91214580D01*
X130969407Y-91214580D02*
X131017026Y-91262200D01*
X131017026Y-91262200D02*
X131112264Y-91309819D01*
X131112264Y-91309819D02*
X131302740Y-91309819D01*
X131302740Y-91309819D02*
X131397978Y-91262200D01*
X130350359Y-91309819D02*
X130445597Y-91262200D01*
X130445597Y-91262200D02*
X130493216Y-91214580D01*
X130493216Y-91214580D02*
X130540835Y-91119342D01*
X130540835Y-91119342D02*
X130540835Y-90833628D01*
X130540835Y-90833628D02*
X130493216Y-90738390D01*
X130493216Y-90738390D02*
X130445597Y-90690771D01*
X130445597Y-90690771D02*
X130350359Y-90643152D01*
X130350359Y-90643152D02*
X130207502Y-90643152D01*
X130207502Y-90643152D02*
X130112264Y-90690771D01*
X130112264Y-90690771D02*
X130064645Y-90738390D01*
X130064645Y-90738390D02*
X130017026Y-90833628D01*
X130017026Y-90833628D02*
X130017026Y-91119342D01*
X130017026Y-91119342D02*
X130064645Y-91214580D01*
X130064645Y-91214580D02*
X130112264Y-91262200D01*
X130112264Y-91262200D02*
X130207502Y-91309819D01*
X130207502Y-91309819D02*
X130350359Y-91309819D01*
X129731311Y-90643152D02*
X129350359Y-90643152D01*
X129588454Y-90309819D02*
X129588454Y-91166961D01*
X129588454Y-91166961D02*
X129540835Y-91262200D01*
X129540835Y-91262200D02*
X129445597Y-91309819D01*
X129445597Y-91309819D02*
X129350359Y-91309819D01*
X163493220Y-93849819D02*
X163493220Y-92849819D01*
X163064649Y-93849819D02*
X163064649Y-93326009D01*
X163064649Y-93326009D02*
X163112268Y-93230771D01*
X163112268Y-93230771D02*
X163207506Y-93183152D01*
X163207506Y-93183152D02*
X163350363Y-93183152D01*
X163350363Y-93183152D02*
X163445601Y-93230771D01*
X163445601Y-93230771D02*
X163493220Y-93278390D01*
X162731315Y-93183152D02*
X162350363Y-93183152D01*
X162588458Y-92849819D02*
X162588458Y-93706961D01*
X162588458Y-93706961D02*
X162540839Y-93802200D01*
X162540839Y-93802200D02*
X162445601Y-93849819D01*
X162445601Y-93849819D02*
X162350363Y-93849819D01*
X162159886Y-93183152D02*
X161778934Y-93183152D01*
X162017029Y-92849819D02*
X162017029Y-93706961D01*
X162017029Y-93706961D02*
X161969410Y-93802200D01*
X161969410Y-93802200D02*
X161874172Y-93849819D01*
X161874172Y-93849819D02*
X161778934Y-93849819D01*
X161445600Y-93183152D02*
X161445600Y-94183152D01*
X161445600Y-93230771D02*
X161350362Y-93183152D01*
X161350362Y-93183152D02*
X161159886Y-93183152D01*
X161159886Y-93183152D02*
X161064648Y-93230771D01*
X161064648Y-93230771D02*
X161017029Y-93278390D01*
X161017029Y-93278390D02*
X160969410Y-93373628D01*
X160969410Y-93373628D02*
X160969410Y-93659342D01*
X160969410Y-93659342D02*
X161017029Y-93754580D01*
X161017029Y-93754580D02*
X161064648Y-93802200D01*
X161064648Y-93802200D02*
X161159886Y-93849819D01*
X161159886Y-93849819D02*
X161350362Y-93849819D01*
X161350362Y-93849819D02*
X161445600Y-93802200D01*
X160588457Y-93802200D02*
X160493219Y-93849819D01*
X160493219Y-93849819D02*
X160302743Y-93849819D01*
X160302743Y-93849819D02*
X160207505Y-93802200D01*
X160207505Y-93802200D02*
X160159886Y-93706961D01*
X160159886Y-93706961D02*
X160159886Y-93659342D01*
X160159886Y-93659342D02*
X160207505Y-93564104D01*
X160207505Y-93564104D02*
X160302743Y-93516485D01*
X160302743Y-93516485D02*
X160445600Y-93516485D01*
X160445600Y-93516485D02*
X160540838Y-93468866D01*
X160540838Y-93468866D02*
X160588457Y-93373628D01*
X160588457Y-93373628D02*
X160588457Y-93326009D01*
X160588457Y-93326009D02*
X160540838Y-93230771D01*
X160540838Y-93230771D02*
X160445600Y-93183152D01*
X160445600Y-93183152D02*
X160302743Y-93183152D01*
X160302743Y-93183152D02*
X160207505Y-93230771D01*
X159731314Y-93754580D02*
X159683695Y-93802200D01*
X159683695Y-93802200D02*
X159731314Y-93849819D01*
X159731314Y-93849819D02*
X159778933Y-93802200D01*
X159778933Y-93802200D02*
X159731314Y-93754580D01*
X159731314Y-93754580D02*
X159731314Y-93849819D01*
X159731314Y-93230771D02*
X159683695Y-93278390D01*
X159683695Y-93278390D02*
X159731314Y-93326009D01*
X159731314Y-93326009D02*
X159778933Y-93278390D01*
X159778933Y-93278390D02*
X159731314Y-93230771D01*
X159731314Y-93230771D02*
X159731314Y-93326009D01*
X158540839Y-92802200D02*
X159397981Y-94087914D01*
X157493220Y-92802200D02*
X158350362Y-94087914D01*
X156731315Y-93183152D02*
X156731315Y-93992676D01*
X156731315Y-93992676D02*
X156778934Y-94087914D01*
X156778934Y-94087914D02*
X156826553Y-94135533D01*
X156826553Y-94135533D02*
X156921791Y-94183152D01*
X156921791Y-94183152D02*
X157064648Y-94183152D01*
X157064648Y-94183152D02*
X157159886Y-94135533D01*
X156731315Y-93802200D02*
X156826553Y-93849819D01*
X156826553Y-93849819D02*
X157017029Y-93849819D01*
X157017029Y-93849819D02*
X157112267Y-93802200D01*
X157112267Y-93802200D02*
X157159886Y-93754580D01*
X157159886Y-93754580D02*
X157207505Y-93659342D01*
X157207505Y-93659342D02*
X157207505Y-93373628D01*
X157207505Y-93373628D02*
X157159886Y-93278390D01*
X157159886Y-93278390D02*
X157112267Y-93230771D01*
X157112267Y-93230771D02*
X157017029Y-93183152D01*
X157017029Y-93183152D02*
X156826553Y-93183152D01*
X156826553Y-93183152D02*
X156731315Y-93230771D01*
X156255124Y-93849819D02*
X156255124Y-93183152D01*
X156255124Y-92849819D02*
X156302743Y-92897438D01*
X156302743Y-92897438D02*
X156255124Y-92945057D01*
X156255124Y-92945057D02*
X156207505Y-92897438D01*
X156207505Y-92897438D02*
X156255124Y-92849819D01*
X156255124Y-92849819D02*
X156255124Y-92945057D01*
X155921791Y-93183152D02*
X155540839Y-93183152D01*
X155778934Y-92849819D02*
X155778934Y-93706961D01*
X155778934Y-93706961D02*
X155731315Y-93802200D01*
X155731315Y-93802200D02*
X155636077Y-93849819D01*
X155636077Y-93849819D02*
X155540839Y-93849819D01*
X155207505Y-93849819D02*
X155207505Y-92849819D01*
X154778934Y-93849819D02*
X154778934Y-93326009D01*
X154778934Y-93326009D02*
X154826553Y-93230771D01*
X154826553Y-93230771D02*
X154921791Y-93183152D01*
X154921791Y-93183152D02*
X155064648Y-93183152D01*
X155064648Y-93183152D02*
X155159886Y-93230771D01*
X155159886Y-93230771D02*
X155207505Y-93278390D01*
X153874172Y-93183152D02*
X153874172Y-93849819D01*
X154302743Y-93183152D02*
X154302743Y-93706961D01*
X154302743Y-93706961D02*
X154255124Y-93802200D01*
X154255124Y-93802200D02*
X154159886Y-93849819D01*
X154159886Y-93849819D02*
X154017029Y-93849819D01*
X154017029Y-93849819D02*
X153921791Y-93802200D01*
X153921791Y-93802200D02*
X153874172Y-93754580D01*
X153397981Y-93849819D02*
X153397981Y-92849819D01*
X153397981Y-93230771D02*
X153302743Y-93183152D01*
X153302743Y-93183152D02*
X153112267Y-93183152D01*
X153112267Y-93183152D02*
X153017029Y-93230771D01*
X153017029Y-93230771D02*
X152969410Y-93278390D01*
X152969410Y-93278390D02*
X152921791Y-93373628D01*
X152921791Y-93373628D02*
X152921791Y-93659342D01*
X152921791Y-93659342D02*
X152969410Y-93754580D01*
X152969410Y-93754580D02*
X153017029Y-93802200D01*
X153017029Y-93802200D02*
X153112267Y-93849819D01*
X153112267Y-93849819D02*
X153302743Y-93849819D01*
X153302743Y-93849819D02*
X153397981Y-93802200D01*
X152493219Y-93754580D02*
X152445600Y-93802200D01*
X152445600Y-93802200D02*
X152493219Y-93849819D01*
X152493219Y-93849819D02*
X152540838Y-93802200D01*
X152540838Y-93802200D02*
X152493219Y-93754580D01*
X152493219Y-93754580D02*
X152493219Y-93849819D01*
X151588458Y-93802200D02*
X151683696Y-93849819D01*
X151683696Y-93849819D02*
X151874172Y-93849819D01*
X151874172Y-93849819D02*
X151969410Y-93802200D01*
X151969410Y-93802200D02*
X152017029Y-93754580D01*
X152017029Y-93754580D02*
X152064648Y-93659342D01*
X152064648Y-93659342D02*
X152064648Y-93373628D01*
X152064648Y-93373628D02*
X152017029Y-93278390D01*
X152017029Y-93278390D02*
X151969410Y-93230771D01*
X151969410Y-93230771D02*
X151874172Y-93183152D01*
X151874172Y-93183152D02*
X151683696Y-93183152D01*
X151683696Y-93183152D02*
X151588458Y-93230771D01*
X151017029Y-93849819D02*
X151112267Y-93802200D01*
X151112267Y-93802200D02*
X151159886Y-93754580D01*
X151159886Y-93754580D02*
X151207505Y-93659342D01*
X151207505Y-93659342D02*
X151207505Y-93373628D01*
X151207505Y-93373628D02*
X151159886Y-93278390D01*
X151159886Y-93278390D02*
X151112267Y-93230771D01*
X151112267Y-93230771D02*
X151017029Y-93183152D01*
X151017029Y-93183152D02*
X150874172Y-93183152D01*
X150874172Y-93183152D02*
X150778934Y-93230771D01*
X150778934Y-93230771D02*
X150731315Y-93278390D01*
X150731315Y-93278390D02*
X150683696Y-93373628D01*
X150683696Y-93373628D02*
X150683696Y-93659342D01*
X150683696Y-93659342D02*
X150731315Y-93754580D01*
X150731315Y-93754580D02*
X150778934Y-93802200D01*
X150778934Y-93802200D02*
X150874172Y-93849819D01*
X150874172Y-93849819D02*
X151017029Y-93849819D01*
X150255124Y-93849819D02*
X150255124Y-93183152D01*
X150255124Y-93278390D02*
X150207505Y-93230771D01*
X150207505Y-93230771D02*
X150112267Y-93183152D01*
X150112267Y-93183152D02*
X149969410Y-93183152D01*
X149969410Y-93183152D02*
X149874172Y-93230771D01*
X149874172Y-93230771D02*
X149826553Y-93326009D01*
X149826553Y-93326009D02*
X149826553Y-93849819D01*
X149826553Y-93326009D02*
X149778934Y-93230771D01*
X149778934Y-93230771D02*
X149683696Y-93183152D01*
X149683696Y-93183152D02*
X149540839Y-93183152D01*
X149540839Y-93183152D02*
X149445600Y-93230771D01*
X149445600Y-93230771D02*
X149397981Y-93326009D01*
X149397981Y-93326009D02*
X149397981Y-93849819D01*
X148207506Y-92802200D02*
X149064648Y-94087914D01*
X147921791Y-93564104D02*
X147445601Y-93564104D01*
X148017029Y-93849819D02*
X147683696Y-92849819D01*
X147683696Y-92849819D02*
X147350363Y-93849819D01*
X146874172Y-93849819D02*
X146969410Y-93802200D01*
X146969410Y-93802200D02*
X147017029Y-93706961D01*
X147017029Y-93706961D02*
X147017029Y-92849819D01*
X146493219Y-93849819D02*
X146493219Y-93183152D01*
X146493219Y-92849819D02*
X146540838Y-92897438D01*
X146540838Y-92897438D02*
X146493219Y-92945057D01*
X146493219Y-92945057D02*
X146445600Y-92897438D01*
X146445600Y-92897438D02*
X146493219Y-92849819D01*
X146493219Y-92849819D02*
X146493219Y-92945057D01*
X146064648Y-93802200D02*
X145969410Y-93849819D01*
X145969410Y-93849819D02*
X145778934Y-93849819D01*
X145778934Y-93849819D02*
X145683696Y-93802200D01*
X145683696Y-93802200D02*
X145636077Y-93706961D01*
X145636077Y-93706961D02*
X145636077Y-93659342D01*
X145636077Y-93659342D02*
X145683696Y-93564104D01*
X145683696Y-93564104D02*
X145778934Y-93516485D01*
X145778934Y-93516485D02*
X145921791Y-93516485D01*
X145921791Y-93516485D02*
X146017029Y-93468866D01*
X146017029Y-93468866D02*
X146064648Y-93373628D01*
X146064648Y-93373628D02*
X146064648Y-93326009D01*
X146064648Y-93326009D02*
X146017029Y-93230771D01*
X146017029Y-93230771D02*
X145921791Y-93183152D01*
X145921791Y-93183152D02*
X145778934Y-93183152D01*
X145778934Y-93183152D02*
X145683696Y-93230771D01*
X145064648Y-93849819D02*
X145159886Y-93802200D01*
X145159886Y-93802200D02*
X145207505Y-93754580D01*
X145207505Y-93754580D02*
X145255124Y-93659342D01*
X145255124Y-93659342D02*
X145255124Y-93373628D01*
X145255124Y-93373628D02*
X145207505Y-93278390D01*
X145207505Y-93278390D02*
X145159886Y-93230771D01*
X145159886Y-93230771D02*
X145064648Y-93183152D01*
X145064648Y-93183152D02*
X144921791Y-93183152D01*
X144921791Y-93183152D02*
X144826553Y-93230771D01*
X144826553Y-93230771D02*
X144778934Y-93278390D01*
X144778934Y-93278390D02*
X144731315Y-93373628D01*
X144731315Y-93373628D02*
X144731315Y-93659342D01*
X144731315Y-93659342D02*
X144778934Y-93754580D01*
X144778934Y-93754580D02*
X144826553Y-93802200D01*
X144826553Y-93802200D02*
X144921791Y-93849819D01*
X144921791Y-93849819D02*
X145064648Y-93849819D01*
X144302743Y-93183152D02*
X144302743Y-93849819D01*
X144302743Y-93278390D02*
X144255124Y-93230771D01*
X144255124Y-93230771D02*
X144159886Y-93183152D01*
X144159886Y-93183152D02*
X144017029Y-93183152D01*
X144017029Y-93183152D02*
X143921791Y-93230771D01*
X143921791Y-93230771D02*
X143874172Y-93326009D01*
X143874172Y-93326009D02*
X143874172Y-93849819D01*
X143540838Y-92849819D02*
X142969410Y-92849819D01*
X143255124Y-93849819D02*
X143255124Y-92849819D01*
X142636076Y-93849819D02*
X142636076Y-93183152D01*
X142636076Y-93373628D02*
X142588457Y-93278390D01*
X142588457Y-93278390D02*
X142540838Y-93230771D01*
X142540838Y-93230771D02*
X142445600Y-93183152D01*
X142445600Y-93183152D02*
X142350362Y-93183152D01*
X142017028Y-93849819D02*
X142017028Y-93183152D01*
X142017028Y-92849819D02*
X142064647Y-92897438D01*
X142064647Y-92897438D02*
X142017028Y-92945057D01*
X142017028Y-92945057D02*
X141969409Y-92897438D01*
X141969409Y-92897438D02*
X142017028Y-92849819D01*
X142017028Y-92849819D02*
X142017028Y-92945057D01*
X141588457Y-93802200D02*
X141493219Y-93849819D01*
X141493219Y-93849819D02*
X141302743Y-93849819D01*
X141302743Y-93849819D02*
X141207505Y-93802200D01*
X141207505Y-93802200D02*
X141159886Y-93706961D01*
X141159886Y-93706961D02*
X141159886Y-93659342D01*
X141159886Y-93659342D02*
X141207505Y-93564104D01*
X141207505Y-93564104D02*
X141302743Y-93516485D01*
X141302743Y-93516485D02*
X141445600Y-93516485D01*
X141445600Y-93516485D02*
X141540838Y-93468866D01*
X141540838Y-93468866D02*
X141588457Y-93373628D01*
X141588457Y-93373628D02*
X141588457Y-93326009D01*
X141588457Y-93326009D02*
X141540838Y-93230771D01*
X141540838Y-93230771D02*
X141445600Y-93183152D01*
X141445600Y-93183152D02*
X141302743Y-93183152D01*
X141302743Y-93183152D02*
X141207505Y-93230771D01*
X140874171Y-93183152D02*
X140493219Y-93183152D01*
X140731314Y-92849819D02*
X140731314Y-93706961D01*
X140731314Y-93706961D02*
X140683695Y-93802200D01*
X140683695Y-93802200D02*
X140588457Y-93849819D01*
X140588457Y-93849819D02*
X140493219Y-93849819D01*
X139731314Y-93849819D02*
X139731314Y-93326009D01*
X139731314Y-93326009D02*
X139778933Y-93230771D01*
X139778933Y-93230771D02*
X139874171Y-93183152D01*
X139874171Y-93183152D02*
X140064647Y-93183152D01*
X140064647Y-93183152D02*
X140159885Y-93230771D01*
X139731314Y-93802200D02*
X139826552Y-93849819D01*
X139826552Y-93849819D02*
X140064647Y-93849819D01*
X140064647Y-93849819D02*
X140159885Y-93802200D01*
X140159885Y-93802200D02*
X140207504Y-93706961D01*
X140207504Y-93706961D02*
X140207504Y-93611723D01*
X140207504Y-93611723D02*
X140159885Y-93516485D01*
X140159885Y-93516485D02*
X140064647Y-93468866D01*
X140064647Y-93468866D02*
X139826552Y-93468866D01*
X139826552Y-93468866D02*
X139731314Y-93421247D01*
X139112266Y-93849819D02*
X139207504Y-93802200D01*
X139207504Y-93802200D02*
X139255123Y-93754580D01*
X139255123Y-93754580D02*
X139302742Y-93659342D01*
X139302742Y-93659342D02*
X139302742Y-93373628D01*
X139302742Y-93373628D02*
X139255123Y-93278390D01*
X139255123Y-93278390D02*
X139207504Y-93230771D01*
X139207504Y-93230771D02*
X139112266Y-93183152D01*
X139112266Y-93183152D02*
X138969409Y-93183152D01*
X138969409Y-93183152D02*
X138874171Y-93230771D01*
X138874171Y-93230771D02*
X138826552Y-93278390D01*
X138826552Y-93278390D02*
X138778933Y-93373628D01*
X138778933Y-93373628D02*
X138778933Y-93659342D01*
X138778933Y-93659342D02*
X138826552Y-93754580D01*
X138826552Y-93754580D02*
X138874171Y-93802200D01*
X138874171Y-93802200D02*
X138969409Y-93849819D01*
X138969409Y-93849819D02*
X139112266Y-93849819D01*
X137636076Y-92802200D02*
X138493218Y-94087914D01*
X137302742Y-93849819D02*
X137302742Y-92849819D01*
X137302742Y-93230771D02*
X137207504Y-93183152D01*
X137207504Y-93183152D02*
X137017028Y-93183152D01*
X137017028Y-93183152D02*
X136921790Y-93230771D01*
X136921790Y-93230771D02*
X136874171Y-93278390D01*
X136874171Y-93278390D02*
X136826552Y-93373628D01*
X136826552Y-93373628D02*
X136826552Y-93659342D01*
X136826552Y-93659342D02*
X136874171Y-93754580D01*
X136874171Y-93754580D02*
X136921790Y-93802200D01*
X136921790Y-93802200D02*
X137017028Y-93849819D01*
X137017028Y-93849819D02*
X137207504Y-93849819D01*
X137207504Y-93849819D02*
X137302742Y-93802200D01*
X135969409Y-93849819D02*
X135969409Y-93326009D01*
X135969409Y-93326009D02*
X136017028Y-93230771D01*
X136017028Y-93230771D02*
X136112266Y-93183152D01*
X136112266Y-93183152D02*
X136302742Y-93183152D01*
X136302742Y-93183152D02*
X136397980Y-93230771D01*
X135969409Y-93802200D02*
X136064647Y-93849819D01*
X136064647Y-93849819D02*
X136302742Y-93849819D01*
X136302742Y-93849819D02*
X136397980Y-93802200D01*
X136397980Y-93802200D02*
X136445599Y-93706961D01*
X136445599Y-93706961D02*
X136445599Y-93611723D01*
X136445599Y-93611723D02*
X136397980Y-93516485D01*
X136397980Y-93516485D02*
X136302742Y-93468866D01*
X136302742Y-93468866D02*
X136064647Y-93468866D01*
X136064647Y-93468866D02*
X135969409Y-93421247D01*
X135350361Y-93849819D02*
X135445599Y-93802200D01*
X135445599Y-93802200D02*
X135493218Y-93706961D01*
X135493218Y-93706961D02*
X135493218Y-92849819D01*
X134826551Y-93849819D02*
X134921789Y-93802200D01*
X134921789Y-93802200D02*
X134969408Y-93706961D01*
X134969408Y-93706961D02*
X134969408Y-92849819D01*
X134540836Y-93183152D02*
X134302741Y-93849819D01*
X134064646Y-93183152D02*
X134302741Y-93849819D01*
X134302741Y-93849819D02*
X134397979Y-94087914D01*
X134397979Y-94087914D02*
X134445598Y-94135533D01*
X134445598Y-94135533D02*
X134540836Y-94183152D01*
X133921789Y-93945057D02*
X133159884Y-93945057D01*
X132921788Y-93849819D02*
X132921788Y-93183152D01*
X132921788Y-93373628D02*
X132874169Y-93278390D01*
X132874169Y-93278390D02*
X132826550Y-93230771D01*
X132826550Y-93230771D02*
X132731312Y-93183152D01*
X132731312Y-93183152D02*
X132636074Y-93183152D01*
X132159883Y-93849819D02*
X132255121Y-93802200D01*
X132255121Y-93802200D02*
X132302740Y-93754580D01*
X132302740Y-93754580D02*
X132350359Y-93659342D01*
X132350359Y-93659342D02*
X132350359Y-93373628D01*
X132350359Y-93373628D02*
X132302740Y-93278390D01*
X132302740Y-93278390D02*
X132255121Y-93230771D01*
X132255121Y-93230771D02*
X132159883Y-93183152D01*
X132159883Y-93183152D02*
X132017026Y-93183152D01*
X132017026Y-93183152D02*
X131921788Y-93230771D01*
X131921788Y-93230771D02*
X131874169Y-93278390D01*
X131874169Y-93278390D02*
X131826550Y-93373628D01*
X131826550Y-93373628D02*
X131826550Y-93659342D01*
X131826550Y-93659342D02*
X131874169Y-93754580D01*
X131874169Y-93754580D02*
X131921788Y-93802200D01*
X131921788Y-93802200D02*
X132017026Y-93849819D01*
X132017026Y-93849819D02*
X132159883Y-93849819D01*
X131397978Y-93849819D02*
X131397978Y-92849819D01*
X131397978Y-93230771D02*
X131302740Y-93183152D01*
X131302740Y-93183152D02*
X131112264Y-93183152D01*
X131112264Y-93183152D02*
X131017026Y-93230771D01*
X131017026Y-93230771D02*
X130969407Y-93278390D01*
X130969407Y-93278390D02*
X130921788Y-93373628D01*
X130921788Y-93373628D02*
X130921788Y-93659342D01*
X130921788Y-93659342D02*
X130969407Y-93754580D01*
X130969407Y-93754580D02*
X131017026Y-93802200D01*
X131017026Y-93802200D02*
X131112264Y-93849819D01*
X131112264Y-93849819D02*
X131302740Y-93849819D01*
X131302740Y-93849819D02*
X131397978Y-93802200D01*
X130350359Y-93849819D02*
X130445597Y-93802200D01*
X130445597Y-93802200D02*
X130493216Y-93754580D01*
X130493216Y-93754580D02*
X130540835Y-93659342D01*
X130540835Y-93659342D02*
X130540835Y-93373628D01*
X130540835Y-93373628D02*
X130493216Y-93278390D01*
X130493216Y-93278390D02*
X130445597Y-93230771D01*
X130445597Y-93230771D02*
X130350359Y-93183152D01*
X130350359Y-93183152D02*
X130207502Y-93183152D01*
X130207502Y-93183152D02*
X130112264Y-93230771D01*
X130112264Y-93230771D02*
X130064645Y-93278390D01*
X130064645Y-93278390D02*
X130017026Y-93373628D01*
X130017026Y-93373628D02*
X130017026Y-93659342D01*
X130017026Y-93659342D02*
X130064645Y-93754580D01*
X130064645Y-93754580D02*
X130112264Y-93802200D01*
X130112264Y-93802200D02*
X130207502Y-93849819D01*
X130207502Y-93849819D02*
X130350359Y-93849819D01*
X129731311Y-93183152D02*
X129350359Y-93183152D01*
X129588454Y-92849819D02*
X129588454Y-93706961D01*
X129588454Y-93706961D02*
X129540835Y-93802200D01*
X129540835Y-93802200D02*
X129445597Y-93849819D01*
X129445597Y-93849819D02*
X129350359Y-93849819D01*
X66666666Y-70204819D02*
X67238094Y-70204819D01*
X66952380Y-70204819D02*
X66952380Y-69204819D01*
X66952380Y-69204819D02*
X67047618Y-69347676D01*
X67047618Y-69347676D02*
X67142856Y-69442914D01*
X67142856Y-69442914D02*
X67238094Y-69490533D01*
X66047618Y-69204819D02*
X65952380Y-69204819D01*
X65952380Y-69204819D02*
X65857142Y-69252438D01*
X65857142Y-69252438D02*
X65809523Y-69300057D01*
X65809523Y-69300057D02*
X65761904Y-69395295D01*
X65761904Y-69395295D02*
X65714285Y-69585771D01*
X65714285Y-69585771D02*
X65714285Y-69823866D01*
X65714285Y-69823866D02*
X65761904Y-70014342D01*
X65761904Y-70014342D02*
X65809523Y-70109580D01*
X65809523Y-70109580D02*
X65857142Y-70157200D01*
X65857142Y-70157200D02*
X65952380Y-70204819D01*
X65952380Y-70204819D02*
X66047618Y-70204819D01*
X66047618Y-70204819D02*
X66142856Y-70157200D01*
X66142856Y-70157200D02*
X66190475Y-70109580D01*
X66190475Y-70109580D02*
X66238094Y-70014342D01*
X66238094Y-70014342D02*
X66285713Y-69823866D01*
X66285713Y-69823866D02*
X66285713Y-69585771D01*
X66285713Y-69585771D02*
X66238094Y-69395295D01*
X66238094Y-69395295D02*
X66190475Y-69300057D01*
X66190475Y-69300057D02*
X66142856Y-69252438D01*
X66142856Y-69252438D02*
X66047618Y-69204819D01*
X65095237Y-69204819D02*
X64999999Y-69204819D01*
X64999999Y-69204819D02*
X64904761Y-69252438D01*
X64904761Y-69252438D02*
X64857142Y-69300057D01*
X64857142Y-69300057D02*
X64809523Y-69395295D01*
X64809523Y-69395295D02*
X64761904Y-69585771D01*
X64761904Y-69585771D02*
X64761904Y-69823866D01*
X64761904Y-69823866D02*
X64809523Y-70014342D01*
X64809523Y-70014342D02*
X64857142Y-70109580D01*
X64857142Y-70109580D02*
X64904761Y-70157200D01*
X64904761Y-70157200D02*
X64999999Y-70204819D01*
X64999999Y-70204819D02*
X65095237Y-70204819D01*
X65095237Y-70204819D02*
X65190475Y-70157200D01*
X65190475Y-70157200D02*
X65238094Y-70109580D01*
X65238094Y-70109580D02*
X65285713Y-70014342D01*
X65285713Y-70014342D02*
X65333332Y-69823866D01*
X65333332Y-69823866D02*
X65333332Y-69585771D01*
X65333332Y-69585771D02*
X65285713Y-69395295D01*
X65285713Y-69395295D02*
X65238094Y-69300057D01*
X65238094Y-69300057D02*
X65190475Y-69252438D01*
X65190475Y-69252438D02*
X65095237Y-69204819D01*
X86464285Y-69050057D02*
X86416666Y-69002438D01*
X86416666Y-69002438D02*
X86321428Y-68954819D01*
X86321428Y-68954819D02*
X86083333Y-68954819D01*
X86083333Y-68954819D02*
X85988095Y-69002438D01*
X85988095Y-69002438D02*
X85940476Y-69050057D01*
X85940476Y-69050057D02*
X85892857Y-69145295D01*
X85892857Y-69145295D02*
X85892857Y-69240533D01*
X85892857Y-69240533D02*
X85940476Y-69383390D01*
X85940476Y-69383390D02*
X86511904Y-69954819D01*
X86511904Y-69954819D02*
X85892857Y-69954819D01*
X85511904Y-69050057D02*
X85464285Y-69002438D01*
X85464285Y-69002438D02*
X85369047Y-68954819D01*
X85369047Y-68954819D02*
X85130952Y-68954819D01*
X85130952Y-68954819D02*
X85035714Y-69002438D01*
X85035714Y-69002438D02*
X84988095Y-69050057D01*
X84988095Y-69050057D02*
X84940476Y-69145295D01*
X84940476Y-69145295D02*
X84940476Y-69240533D01*
X84940476Y-69240533D02*
X84988095Y-69383390D01*
X84988095Y-69383390D02*
X85559523Y-69954819D01*
X85559523Y-69954819D02*
X84940476Y-69954819D01*
X84511904Y-69288152D02*
X84511904Y-70288152D01*
X84035714Y-69811961D02*
X83988095Y-69907200D01*
X83988095Y-69907200D02*
X83892857Y-69954819D01*
X84511904Y-69811961D02*
X84464285Y-69907200D01*
X84464285Y-69907200D02*
X84369047Y-69954819D01*
X84369047Y-69954819D02*
X84178571Y-69954819D01*
X84178571Y-69954819D02*
X84083333Y-69907200D01*
X84083333Y-69907200D02*
X84035714Y-69811961D01*
X84035714Y-69811961D02*
X84035714Y-69288152D01*
X83130952Y-69431009D02*
X83464285Y-69431009D01*
X83464285Y-69954819D02*
X83464285Y-68954819D01*
X83464285Y-68954819D02*
X82988095Y-68954819D01*
X82476190Y-75538152D02*
X82476190Y-76538152D01*
X82476190Y-75585771D02*
X82380952Y-75538152D01*
X82380952Y-75538152D02*
X82190476Y-75538152D01*
X82190476Y-75538152D02*
X82095238Y-75585771D01*
X82095238Y-75585771D02*
X82047619Y-75633390D01*
X82047619Y-75633390D02*
X82000000Y-75728628D01*
X82000000Y-75728628D02*
X82000000Y-76014342D01*
X82000000Y-76014342D02*
X82047619Y-76109580D01*
X82047619Y-76109580D02*
X82095238Y-76157200D01*
X82095238Y-76157200D02*
X82190476Y-76204819D01*
X82190476Y-76204819D02*
X82380952Y-76204819D01*
X82380952Y-76204819D02*
X82476190Y-76157200D01*
X81142857Y-75538152D02*
X81142857Y-76204819D01*
X81571428Y-75538152D02*
X81571428Y-76061961D01*
X81571428Y-76061961D02*
X81523809Y-76157200D01*
X81523809Y-76157200D02*
X81428571Y-76204819D01*
X81428571Y-76204819D02*
X81285714Y-76204819D01*
X81285714Y-76204819D02*
X81190476Y-76157200D01*
X81190476Y-76157200D02*
X81142857Y-76109580D01*
X80523809Y-76204819D02*
X80619047Y-76157200D01*
X80619047Y-76157200D02*
X80666666Y-76061961D01*
X80666666Y-76061961D02*
X80666666Y-75204819D01*
X79999999Y-76204819D02*
X80095237Y-76157200D01*
X80095237Y-76157200D02*
X80142856Y-76061961D01*
X80142856Y-76061961D02*
X80142856Y-75204819D01*
X79857142Y-76300057D02*
X79095237Y-76300057D01*
X78428570Y-75538152D02*
X78428570Y-76204819D01*
X78857141Y-75538152D02*
X78857141Y-76061961D01*
X78857141Y-76061961D02*
X78809522Y-76157200D01*
X78809522Y-76157200D02*
X78714284Y-76204819D01*
X78714284Y-76204819D02*
X78571427Y-76204819D01*
X78571427Y-76204819D02*
X78476189Y-76157200D01*
X78476189Y-76157200D02*
X78428570Y-76109580D01*
X77952379Y-75538152D02*
X77952379Y-76538152D01*
X77952379Y-75585771D02*
X77857141Y-75538152D01*
X77857141Y-75538152D02*
X77666665Y-75538152D01*
X77666665Y-75538152D02*
X77571427Y-75585771D01*
X77571427Y-75585771D02*
X77523808Y-75633390D01*
X77523808Y-75633390D02*
X77476189Y-75728628D01*
X77476189Y-75728628D02*
X77476189Y-76014342D01*
X77476189Y-76014342D02*
X77523808Y-76109580D01*
X77523808Y-76109580D02*
X77571427Y-76157200D01*
X77571427Y-76157200D02*
X77666665Y-76204819D01*
X77666665Y-76204819D02*
X77857141Y-76204819D01*
X77857141Y-76204819D02*
X77952379Y-76157200D01*
X75916666Y-70204819D02*
X76488094Y-70204819D01*
X76202380Y-70204819D02*
X76202380Y-69204819D01*
X76202380Y-69204819D02*
X76297618Y-69347676D01*
X76297618Y-69347676D02*
X76392856Y-69442914D01*
X76392856Y-69442914D02*
X76488094Y-69490533D01*
X75297618Y-69204819D02*
X75202380Y-69204819D01*
X75202380Y-69204819D02*
X75107142Y-69252438D01*
X75107142Y-69252438D02*
X75059523Y-69300057D01*
X75059523Y-69300057D02*
X75011904Y-69395295D01*
X75011904Y-69395295D02*
X74964285Y-69585771D01*
X74964285Y-69585771D02*
X74964285Y-69823866D01*
X74964285Y-69823866D02*
X75011904Y-70014342D01*
X75011904Y-70014342D02*
X75059523Y-70109580D01*
X75059523Y-70109580D02*
X75107142Y-70157200D01*
X75107142Y-70157200D02*
X75202380Y-70204819D01*
X75202380Y-70204819D02*
X75297618Y-70204819D01*
X75297618Y-70204819D02*
X75392856Y-70157200D01*
X75392856Y-70157200D02*
X75440475Y-70109580D01*
X75440475Y-70109580D02*
X75488094Y-70014342D01*
X75488094Y-70014342D02*
X75535713Y-69823866D01*
X75535713Y-69823866D02*
X75535713Y-69585771D01*
X75535713Y-69585771D02*
X75488094Y-69395295D01*
X75488094Y-69395295D02*
X75440475Y-69300057D01*
X75440475Y-69300057D02*
X75392856Y-69252438D01*
X75392856Y-69252438D02*
X75297618Y-69204819D01*
X74345237Y-69204819D02*
X74249999Y-69204819D01*
X74249999Y-69204819D02*
X74154761Y-69252438D01*
X74154761Y-69252438D02*
X74107142Y-69300057D01*
X74107142Y-69300057D02*
X74059523Y-69395295D01*
X74059523Y-69395295D02*
X74011904Y-69585771D01*
X74011904Y-69585771D02*
X74011904Y-69823866D01*
X74011904Y-69823866D02*
X74059523Y-70014342D01*
X74059523Y-70014342D02*
X74107142Y-70109580D01*
X74107142Y-70109580D02*
X74154761Y-70157200D01*
X74154761Y-70157200D02*
X74249999Y-70204819D01*
X74249999Y-70204819D02*
X74345237Y-70204819D01*
X74345237Y-70204819D02*
X74440475Y-70157200D01*
X74440475Y-70157200D02*
X74488094Y-70109580D01*
X74488094Y-70109580D02*
X74535713Y-70014342D01*
X74535713Y-70014342D02*
X74583332Y-69823866D01*
X74583332Y-69823866D02*
X74583332Y-69585771D01*
X74583332Y-69585771D02*
X74535713Y-69395295D01*
X74535713Y-69395295D02*
X74488094Y-69300057D01*
X74488094Y-69300057D02*
X74440475Y-69252438D01*
X74440475Y-69252438D02*
X74345237Y-69204819D01*
X206416666Y-70204769D02*
X206988094Y-70204769D01*
X206702380Y-70204769D02*
X206702380Y-69204769D01*
X206702380Y-69204769D02*
X206797618Y-69347626D01*
X206797618Y-69347626D02*
X206892856Y-69442864D01*
X206892856Y-69442864D02*
X206988094Y-69490483D01*
X205797618Y-69204769D02*
X205702380Y-69204769D01*
X205702380Y-69204769D02*
X205607142Y-69252388D01*
X205607142Y-69252388D02*
X205559523Y-69300007D01*
X205559523Y-69300007D02*
X205511904Y-69395245D01*
X205511904Y-69395245D02*
X205464285Y-69585721D01*
X205464285Y-69585721D02*
X205464285Y-69823816D01*
X205464285Y-69823816D02*
X205511904Y-70014292D01*
X205511904Y-70014292D02*
X205559523Y-70109530D01*
X205559523Y-70109530D02*
X205607142Y-70157150D01*
X205607142Y-70157150D02*
X205702380Y-70204769D01*
X205702380Y-70204769D02*
X205797618Y-70204769D01*
X205797618Y-70204769D02*
X205892856Y-70157150D01*
X205892856Y-70157150D02*
X205940475Y-70109530D01*
X205940475Y-70109530D02*
X205988094Y-70014292D01*
X205988094Y-70014292D02*
X206035713Y-69823816D01*
X206035713Y-69823816D02*
X206035713Y-69585721D01*
X206035713Y-69585721D02*
X205988094Y-69395245D01*
X205988094Y-69395245D02*
X205940475Y-69300007D01*
X205940475Y-69300007D02*
X205892856Y-69252388D01*
X205892856Y-69252388D02*
X205797618Y-69204769D01*
X204845237Y-69204769D02*
X204749999Y-69204769D01*
X204749999Y-69204769D02*
X204654761Y-69252388D01*
X204654761Y-69252388D02*
X204607142Y-69300007D01*
X204607142Y-69300007D02*
X204559523Y-69395245D01*
X204559523Y-69395245D02*
X204511904Y-69585721D01*
X204511904Y-69585721D02*
X204511904Y-69823816D01*
X204511904Y-69823816D02*
X204559523Y-70014292D01*
X204559523Y-70014292D02*
X204607142Y-70109530D01*
X204607142Y-70109530D02*
X204654761Y-70157150D01*
X204654761Y-70157150D02*
X204749999Y-70204769D01*
X204749999Y-70204769D02*
X204845237Y-70204769D01*
X204845237Y-70204769D02*
X204940475Y-70157150D01*
X204940475Y-70157150D02*
X204988094Y-70109530D01*
X204988094Y-70109530D02*
X205035713Y-70014292D01*
X205035713Y-70014292D02*
X205083332Y-69823816D01*
X205083332Y-69823816D02*
X205083332Y-69585721D01*
X205083332Y-69585721D02*
X205035713Y-69395245D01*
X205035713Y-69395245D02*
X204988094Y-69300007D01*
X204988094Y-69300007D02*
X204940475Y-69252388D01*
X204940475Y-69252388D02*
X204845237Y-69204769D01*
X212976190Y-75538102D02*
X212976190Y-76538102D01*
X212976190Y-75585721D02*
X212880952Y-75538102D01*
X212880952Y-75538102D02*
X212690476Y-75538102D01*
X212690476Y-75538102D02*
X212595238Y-75585721D01*
X212595238Y-75585721D02*
X212547619Y-75633340D01*
X212547619Y-75633340D02*
X212500000Y-75728578D01*
X212500000Y-75728578D02*
X212500000Y-76014292D01*
X212500000Y-76014292D02*
X212547619Y-76109530D01*
X212547619Y-76109530D02*
X212595238Y-76157150D01*
X212595238Y-76157150D02*
X212690476Y-76204769D01*
X212690476Y-76204769D02*
X212880952Y-76204769D01*
X212880952Y-76204769D02*
X212976190Y-76157150D01*
X211642857Y-75538102D02*
X211642857Y-76204769D01*
X212071428Y-75538102D02*
X212071428Y-76061911D01*
X212071428Y-76061911D02*
X212023809Y-76157150D01*
X212023809Y-76157150D02*
X211928571Y-76204769D01*
X211928571Y-76204769D02*
X211785714Y-76204769D01*
X211785714Y-76204769D02*
X211690476Y-76157150D01*
X211690476Y-76157150D02*
X211642857Y-76109530D01*
X211023809Y-76204769D02*
X211119047Y-76157150D01*
X211119047Y-76157150D02*
X211166666Y-76061911D01*
X211166666Y-76061911D02*
X211166666Y-75204769D01*
X210499999Y-76204769D02*
X210595237Y-76157150D01*
X210595237Y-76157150D02*
X210642856Y-76061911D01*
X210642856Y-76061911D02*
X210642856Y-75204769D01*
X210357142Y-76300007D02*
X209595237Y-76300007D01*
X208928570Y-75538102D02*
X208928570Y-76204769D01*
X209357141Y-75538102D02*
X209357141Y-76061911D01*
X209357141Y-76061911D02*
X209309522Y-76157150D01*
X209309522Y-76157150D02*
X209214284Y-76204769D01*
X209214284Y-76204769D02*
X209071427Y-76204769D01*
X209071427Y-76204769D02*
X208976189Y-76157150D01*
X208976189Y-76157150D02*
X208928570Y-76109530D01*
X208452379Y-75538102D02*
X208452379Y-76538102D01*
X208452379Y-75585721D02*
X208357141Y-75538102D01*
X208357141Y-75538102D02*
X208166665Y-75538102D01*
X208166665Y-75538102D02*
X208071427Y-75585721D01*
X208071427Y-75585721D02*
X208023808Y-75633340D01*
X208023808Y-75633340D02*
X207976189Y-75728578D01*
X207976189Y-75728578D02*
X207976189Y-76014292D01*
X207976189Y-76014292D02*
X208023808Y-76109530D01*
X208023808Y-76109530D02*
X208071427Y-76157150D01*
X208071427Y-76157150D02*
X208166665Y-76204769D01*
X208166665Y-76204769D02*
X208357141Y-76204769D01*
X208357141Y-76204769D02*
X208452379Y-76157150D01*
X215916666Y-70204769D02*
X216488094Y-70204769D01*
X216202380Y-70204769D02*
X216202380Y-69204769D01*
X216202380Y-69204769D02*
X216297618Y-69347626D01*
X216297618Y-69347626D02*
X216392856Y-69442864D01*
X216392856Y-69442864D02*
X216488094Y-69490483D01*
X215297618Y-69204769D02*
X215202380Y-69204769D01*
X215202380Y-69204769D02*
X215107142Y-69252388D01*
X215107142Y-69252388D02*
X215059523Y-69300007D01*
X215059523Y-69300007D02*
X215011904Y-69395245D01*
X215011904Y-69395245D02*
X214964285Y-69585721D01*
X214964285Y-69585721D02*
X214964285Y-69823816D01*
X214964285Y-69823816D02*
X215011904Y-70014292D01*
X215011904Y-70014292D02*
X215059523Y-70109530D01*
X215059523Y-70109530D02*
X215107142Y-70157150D01*
X215107142Y-70157150D02*
X215202380Y-70204769D01*
X215202380Y-70204769D02*
X215297618Y-70204769D01*
X215297618Y-70204769D02*
X215392856Y-70157150D01*
X215392856Y-70157150D02*
X215440475Y-70109530D01*
X215440475Y-70109530D02*
X215488094Y-70014292D01*
X215488094Y-70014292D02*
X215535713Y-69823816D01*
X215535713Y-69823816D02*
X215535713Y-69585721D01*
X215535713Y-69585721D02*
X215488094Y-69395245D01*
X215488094Y-69395245D02*
X215440475Y-69300007D01*
X215440475Y-69300007D02*
X215392856Y-69252388D01*
X215392856Y-69252388D02*
X215297618Y-69204769D01*
X214345237Y-69204769D02*
X214249999Y-69204769D01*
X214249999Y-69204769D02*
X214154761Y-69252388D01*
X214154761Y-69252388D02*
X214107142Y-69300007D01*
X214107142Y-69300007D02*
X214059523Y-69395245D01*
X214059523Y-69395245D02*
X214011904Y-69585721D01*
X214011904Y-69585721D02*
X214011904Y-69823816D01*
X214011904Y-69823816D02*
X214059523Y-70014292D01*
X214059523Y-70014292D02*
X214107142Y-70109530D01*
X214107142Y-70109530D02*
X214154761Y-70157150D01*
X214154761Y-70157150D02*
X214249999Y-70204769D01*
X214249999Y-70204769D02*
X214345237Y-70204769D01*
X214345237Y-70204769D02*
X214440475Y-70157150D01*
X214440475Y-70157150D02*
X214488094Y-70109530D01*
X214488094Y-70109530D02*
X214535713Y-70014292D01*
X214535713Y-70014292D02*
X214583332Y-69823816D01*
X214583332Y-69823816D02*
X214583332Y-69585721D01*
X214583332Y-69585721D02*
X214535713Y-69395245D01*
X214535713Y-69395245D02*
X214488094Y-69300007D01*
X214488094Y-69300007D02*
X214440475Y-69252388D01*
X214440475Y-69252388D02*
X214345237Y-69204769D01*
X225964285Y-69300007D02*
X225916666Y-69252388D01*
X225916666Y-69252388D02*
X225821428Y-69204769D01*
X225821428Y-69204769D02*
X225583333Y-69204769D01*
X225583333Y-69204769D02*
X225488095Y-69252388D01*
X225488095Y-69252388D02*
X225440476Y-69300007D01*
X225440476Y-69300007D02*
X225392857Y-69395245D01*
X225392857Y-69395245D02*
X225392857Y-69490483D01*
X225392857Y-69490483D02*
X225440476Y-69633340D01*
X225440476Y-69633340D02*
X226011904Y-70204769D01*
X226011904Y-70204769D02*
X225392857Y-70204769D01*
X225011904Y-69300007D02*
X224964285Y-69252388D01*
X224964285Y-69252388D02*
X224869047Y-69204769D01*
X224869047Y-69204769D02*
X224630952Y-69204769D01*
X224630952Y-69204769D02*
X224535714Y-69252388D01*
X224535714Y-69252388D02*
X224488095Y-69300007D01*
X224488095Y-69300007D02*
X224440476Y-69395245D01*
X224440476Y-69395245D02*
X224440476Y-69490483D01*
X224440476Y-69490483D02*
X224488095Y-69633340D01*
X224488095Y-69633340D02*
X225059523Y-70204769D01*
X225059523Y-70204769D02*
X224440476Y-70204769D01*
X224011904Y-69538102D02*
X224011904Y-70538102D01*
X223535714Y-70061911D02*
X223488095Y-70157150D01*
X223488095Y-70157150D02*
X223392857Y-70204769D01*
X224011904Y-70061911D02*
X223964285Y-70157150D01*
X223964285Y-70157150D02*
X223869047Y-70204769D01*
X223869047Y-70204769D02*
X223678571Y-70204769D01*
X223678571Y-70204769D02*
X223583333Y-70157150D01*
X223583333Y-70157150D02*
X223535714Y-70061911D01*
X223535714Y-70061911D02*
X223535714Y-69538102D01*
X222630952Y-69680959D02*
X222964285Y-69680959D01*
X222964285Y-70204769D02*
X222964285Y-69204769D01*
X222964285Y-69204769D02*
X222488095Y-69204769D01*
D11*
%TO.C,J6*%
X158946039Y-127619313D02*
G75*
G02*
X158471400Y-127249999I-93639J369314D01*
G01*
X158471400Y-127249999D02*
G75*
G02*
X159063445Y-127567207I381000J0D01*
G01*
D12*
X176175200Y-143046599D02*
X159487400Y-143046599D01*
X176175200Y-139776540D02*
X176175200Y-143046599D01*
X176175200Y-130776540D02*
X176175200Y-136723460D01*
X176175200Y-126942999D02*
X176175200Y-127723460D01*
X175163841Y-126942999D02*
X176175200Y-126942999D01*
X159487400Y-143046599D02*
X159487400Y-139776540D01*
X159487400Y-136723460D02*
X159487400Y-130776540D01*
X159487400Y-127723460D02*
X159487400Y-126942999D01*
X159487400Y-126942999D02*
X165088760Y-126942999D01*
D13*
%TO.C,R8*%
X65037500Y-72689564D02*
X65037500Y-72235436D01*
X66507500Y-72689564D02*
X66507500Y-72235436D01*
%TO.C,U8*%
X221385000Y-70781200D02*
X218315000Y-70781200D01*
X221385000Y-74181200D02*
X218585000Y-74181200D01*
X217755000Y-70871200D02*
X217475000Y-70871200D01*
X217755000Y-70591200D01*
X217755000Y-70871200D01*
G36*
X217755000Y-70871200D02*
G01*
X217475000Y-70871200D01*
X217755000Y-70591200D01*
X217755000Y-70871200D01*
G37*
%TO.C,R32*%
X132727064Y-134015000D02*
X132272936Y-134015000D01*
X132727064Y-135485000D02*
X132272936Y-135485000D01*
%TO.C,C1*%
X84037500Y-72201248D02*
X84037500Y-72723752D01*
X85507500Y-72201248D02*
X85507500Y-72723752D01*
%TO.C,U3*%
X81400000Y-70800000D02*
X78330000Y-70800000D01*
X81400000Y-74200000D02*
X78600000Y-74200000D01*
X77770000Y-70890000D02*
X77490000Y-70890000D01*
X77770000Y-70610000D01*
X77770000Y-70890000D01*
G36*
X77770000Y-70890000D02*
G01*
X77490000Y-70890000D01*
X77770000Y-70610000D01*
X77770000Y-70890000D01*
G37*
%TO.C,R2*%
X75030436Y-74977500D02*
X75484564Y-74977500D01*
X75030436Y-76447500D02*
X75484564Y-76447500D01*
%TO.C,R9*%
X74522500Y-72689564D02*
X74522500Y-72235436D01*
X75992500Y-72689564D02*
X75992500Y-72235436D01*
%TO.C,R16*%
X205022500Y-72670764D02*
X205022500Y-72216636D01*
X206492500Y-72670764D02*
X206492500Y-72216636D01*
%TO.C,R14*%
X215015436Y-74996200D02*
X215469564Y-74996200D01*
X215015436Y-76466200D02*
X215469564Y-76466200D01*
%TO.C,R1*%
X214507500Y-72670764D02*
X214507500Y-72216636D01*
X215977500Y-72670764D02*
X215977500Y-72216636D01*
%TO.C,U7*%
X211900000Y-70781200D02*
X208830000Y-70781200D01*
X211900000Y-74181200D02*
X209100000Y-74181200D01*
X208270000Y-70871200D02*
X207990000Y-70871200D01*
X208270000Y-70591200D01*
X208270000Y-70871200D01*
G36*
X208270000Y-70871200D02*
G01*
X207990000Y-70871200D01*
X208270000Y-70591200D01*
X208270000Y-70871200D01*
G37*
%TO.C,C5*%
X224022500Y-72182448D02*
X224022500Y-72704952D01*
X225492500Y-72182448D02*
X225492500Y-72704952D01*
%TO.C,R33*%
X132727064Y-131765000D02*
X132272936Y-131765000D01*
X132727064Y-133235000D02*
X132272936Y-133235000D01*
%TO.C,U2*%
X71915000Y-70800000D02*
X68845000Y-70800000D01*
X71915000Y-74200000D02*
X69115000Y-74200000D01*
X68285000Y-70890000D02*
X68005000Y-70890000D01*
X68285000Y-70610000D01*
X68285000Y-70890000D01*
G36*
X68285000Y-70890000D02*
G01*
X68005000Y-70890000D01*
X68285000Y-70610000D01*
X68285000Y-70890000D01*
G37*
%TD*%
M02*
