%TF.GenerationSoftware,KiCad,Pcbnew,9.0.3*%
%TF.CreationDate,2026-04-23T16:24:05-03:00*%
%TF.ProjectId,projeto,70726f6a-6574-46f2-9e6b-696361645f70,rev?*%
%TF.SameCoordinates,Original*%
%TF.FileFunction,Profile,NP*%
%FSLAX46Y46*%
G04 Gerber Fmt 4.6, Leading zero omitted, Abs format (unit mm)*
G04 Created by KiCad (PCBNEW 9.0.3) date 2026-04-23 16:24:05*
%MOMM*%
%LPD*%
G01*
G04 APERTURE LIST*
%TA.AperFunction,Profile*%
%ADD10C,0.050000*%
%TD*%
G04 APERTURE END LIST*
D10*
X154785000Y-98730000D02*
X166215000Y-98730000D01*
X166215000Y-100000000D01*
X154785000Y-100000000D01*
X154785000Y-98730000D01*
X124285000Y-98730000D02*
X135715000Y-98730000D01*
X135715000Y-100000000D01*
X124285000Y-100000000D01*
X124285000Y-98730000D01*
X171350000Y-90000000D02*
G75*
G02*
X169150000Y-90000000I-1100000J0D01*
G01*
X169150000Y-90000000D02*
G75*
G02*
X171350000Y-90000000I1100000J0D01*
G01*
X171350000Y-119000000D02*
G75*
G02*
X169150000Y-119000000I-1100000J0D01*
G01*
X169150000Y-119000000D02*
G75*
G02*
X171350000Y-119000000I1100000J0D01*
G01*
X121450000Y-119000000D02*
G75*
G02*
X119250000Y-119000000I-1100000J0D01*
G01*
X119250000Y-119000000D02*
G75*
G02*
X121450000Y-119000000I1100000J0D01*
G01*
X121450000Y-90000000D02*
G75*
G02*
X119250000Y-90000000I-1100000J0D01*
G01*
X119250000Y-90000000D02*
G75*
G02*
X121450000Y-90000000I1100000J0D01*
G01*
X165950000Y-77240928D02*
G75*
G02*
X163750000Y-77240928I-1100000J0D01*
G01*
X163750000Y-77240928D02*
G75*
G02*
X165950000Y-77240928I1100000J0D01*
G01*
X168750000Y-73250000D02*
X145250000Y-73250000D01*
X177400000Y-71500000D02*
G75*
G02*
X175200000Y-71500000I-1100000J0D01*
G01*
X175200000Y-71500000D02*
G75*
G02*
X177400000Y-71500000I1100000J0D01*
G01*
X64500000Y-77500000D02*
X88750000Y-77500000D01*
X201750000Y-77500000D02*
X196250000Y-83250000D01*
X226000000Y-67500000D02*
G75*
G02*
X226750000Y-68250000I0J-750000D01*
G01*
X116250000Y-67500000D02*
X121750000Y-73250000D01*
X64500000Y-77500000D02*
G75*
G02*
X63750000Y-76750000I0J750000D01*
G01*
X99350000Y-86500000D02*
G75*
G02*
X97150000Y-86500000I-1100000J0D01*
G01*
X97150000Y-86500000D02*
G75*
G02*
X99350000Y-86500000I1100000J0D01*
G01*
X226750000Y-76750000D02*
G75*
G02*
X226000000Y-77500000I-750000J0D01*
G01*
X121750000Y-73250000D02*
X145250000Y-73250000D01*
X115400000Y-71500000D02*
G75*
G02*
X113200000Y-71500000I-1100000J0D01*
G01*
X113200000Y-71500000D02*
G75*
G02*
X115400000Y-71500000I1100000J0D01*
G01*
X99350000Y-115500000D02*
G75*
G02*
X97150000Y-115500000I-1100000J0D01*
G01*
X97150000Y-115500000D02*
G75*
G02*
X99350000Y-115500000I1100000J0D01*
G01*
X154785000Y-81000000D02*
X166215000Y-81000000D01*
X166215000Y-82270000D01*
X154785000Y-82270000D01*
X154785000Y-81000000D01*
X126750000Y-77231856D02*
G75*
G02*
X124550000Y-77231856I-1100000J0D01*
G01*
X124550000Y-77231856D02*
G75*
G02*
X126750000Y-77231856I1100000J0D01*
G01*
X226750000Y-68250000D02*
X226750000Y-76750000D01*
X63750000Y-68250000D02*
G75*
G02*
X64500000Y-67500000I750000J0D01*
G01*
X88750000Y-77500000D02*
X94250000Y-83250000D01*
X94250000Y-143250000D02*
X94250000Y-83250000D01*
X174250000Y-67500000D02*
X168750000Y-73250000D01*
X226000000Y-67500000D02*
X174250000Y-67500000D01*
X196250000Y-143250000D02*
X145250000Y-143250000D01*
X63750000Y-68250000D02*
X63750000Y-76750000D01*
X64500000Y-67500000D02*
X116250000Y-67500000D01*
X196250000Y-143250000D02*
X196250000Y-83250000D01*
X226000000Y-77500000D02*
X201750000Y-77500000D01*
X94250000Y-143250000D02*
X145250000Y-143250000D01*
X193350000Y-86500000D02*
G75*
G02*
X191150000Y-86500000I-1100000J0D01*
G01*
X191150000Y-86500000D02*
G75*
G02*
X193350000Y-86500000I1100000J0D01*
G01*
X102500000Y-138500000D02*
G75*
G02*
X99500000Y-138500000I-1500000J0D01*
G01*
X99500000Y-138500000D02*
G75*
G02*
X102500000Y-138500000I1500000J0D01*
G01*
X124285000Y-81000000D02*
X135715000Y-81000000D01*
X135715000Y-82270000D01*
X124285000Y-82270000D01*
X124285000Y-81000000D01*
X193350000Y-115500000D02*
G75*
G02*
X191150000Y-115500000I-1100000J0D01*
G01*
X191150000Y-115500000D02*
G75*
G02*
X193350000Y-115500000I1100000J0D01*
G01*
M02*
